<?xml version="1.0" encoding="UTF-8"?>
<svg xmlns="http://www.w3.org/2000/svg" xmlns:xlink="http://www.w3.org/1999/xlink" width="128px" height="128px" viewBox="0 0 128 128" version="1.1">
<defs>
<linearGradient id="linear0" gradientUnits="userSpaceOnUse" x1="26" y1="282" x2="104" y2="282" gradientTransform="matrix(1,0,0,1,0,-172)">
<stop offset="0" style="stop-color:rgb(75.294119%,74.901962%,73.725492%);stop-opacity:1;"/>
<stop offset="0.923077" style="stop-color:rgb(75.294119%,74.901962%,73.725492%);stop-opacity:1;"/>
<stop offset="0.961538" style="stop-color:rgb(60.392159%,60.000002%,58.823532%);stop-opacity:0.247059;"/>
<stop offset="1" style="stop-color:rgb(75.294119%,74.901962%,73.725492%);stop-opacity:1;"/>
</linearGradient>
</defs>
<g id="surface76634">
<path style=" stroke:none;fill-rule:nonzero;fill:rgb(93.333334%,92.941177%,92.156863%);fill-opacity:1;" d="M 24 16 L 24 116 L 98.460938 116 C 101.527344 116 104 112.433594 104 108 L 104 24 C 104 19.566406 101.527344 16 98.460938 16 Z M 24 16 "/>
<path style=" stroke:none;fill-rule:nonzero;fill:url(#linear0);" d="M 24 14 L 24 114 L 98.460938 114 C 101.527344 114 104 110.433594 104 106 L 104 22 C 104 17.566406 101.527344 14 98.460938 14 Z M 24 14 "/>
<path style=" stroke:none;fill-rule:nonzero;fill:rgb(93.333334%,92.941177%,92.156863%);fill-opacity:1;" d="M 24 12 L 24 112 L 98.460938 112 C 101.527344 112 104 108.433594 104 104 L 104 20 C 104 15.566406 101.527344 12 98.460938 12 Z M 24 12 "/>
<path style=" stroke:none;fill-rule:nonzero;fill:rgb(96.470588%,96.078432%,95.686275%);fill-opacity:1;" d="M 24 112 L 26 112 L 26 114 L 24 114 Z M 24 112 "/>
<path style="fill-rule:nonzero;fill:rgb(100%,100%,38.82353%);fill-opacity:1;stroke-width:5.056415;stroke-linecap:round;stroke-linejoin:round;stroke:rgb(0%,0%,60.000002%);stroke-opacity:1;stroke-miterlimit:4;" d="M 88.000721 236 C 89.746815 260.03125 49.719471 269.8125 41.219471 246.632812 C 30.801502 224.707031 62.024159 199.230469 79.965565 217.78125 C 85.153065 222.238281 88.69994 229.035156 88.000721 236 Z M 88.000721 236 " transform="matrix(1,0,0,1,-0.23119,-167.5)"/>
<path style="fill-rule:nonzero;fill:rgb(100%,100%,38.82353%);fill-opacity:1;stroke-width:4.464;stroke-linecap:round;stroke-linejoin:round;stroke:rgb(0%,0%,60.000002%);stroke-opacity:1;stroke-miterlimit:4;" d="M 74.770252 237.5 C 76.180409 251.078125 51.492909 250.34375 52.23119 237.5 " transform="matrix(1,0,0,1,-0.23119,-167.5)"/>
<path style="fill:none;stroke-width:4.464;stroke-linecap:round;stroke-linejoin:round;stroke:rgb(0%,0%,60.000002%);stroke-opacity:1;stroke-miterlimit:4;" d="M 40.000721 201 C 41.434315 204.878906 44.32494 207.945312 47.000721 211 " transform="matrix(1,0,0,1,-0.23119,-167.5)"/>
<path style="fill:none;stroke-width:4.464;stroke-linecap:round;stroke-linejoin:miter;stroke:rgb(0%,0%,60.000002%);stroke-opacity:1;stroke-miterlimit:4;" d="M 64.000721 192 C 62.602284 195.859375 62.524159 200.125 63.000721 204 " transform="matrix(1,0,0,1,-0.23119,-167.5)"/>
<path style="fill:none;stroke-width:4.464;stroke-linecap:round;stroke-linejoin:miter;stroke:rgb(0%,0%,60.000002%);stroke-opacity:1;stroke-miterlimit:4;" d="M 86.000721 198.308594 C 83.414784 201.964844 82.41869 205.40625 81.270252 209.382812 " transform="matrix(1,0,0,1,-0.23119,-167.5)"/>
</g>
</svg>
