<?xml version="1.0" encoding="UTF-8"?>
<svg xmlns="http://www.w3.org/2000/svg" xmlns:xlink="http://www.w3.org/1999/xlink" width="16px" height="16px" viewBox="0 0 16 16" version="1.1">
<defs>
<filter id="alpha" filterUnits="objectBoundingBox" x="0%" y="0%" width="100%" height="100%">
  <feColorMatrix type="matrix" in="SourceGraphic" values="0 0 0 0 1 0 0 0 0 1 0 0 0 0 1 0 0 0 1 0"/>
</filter>
<mask id="mask0">
  <g filter="url(#alpha)">
<rect x="0" y="0" width="16" height="16" style="fill:rgb(0%,0%,0%);fill-opacity:0.15;stroke:none;"/>
  </g>
</mask>
<clipPath id="clip1">
  <rect x="0" y="0" width="192" height="152"/>
</clipPath>
<g id="surface48641" clip-path="url(#clip1)">
<path style=" stroke:none;fill-rule:evenodd;fill:rgb(100%,100%,100%);fill-opacity:1;" d="M 30 26 L 30 126 L 32.0625 126 L 32.0625 26 Z M 30 26 "/>
</g>
</defs>
<g id="surface48617">
<use xlink:href="#surface48641" transform="matrix(1,0,0,1,-168,-16)" mask="url(#mask0)"/>
<path style=" stroke:none;fill-rule:nonzero;fill:rgb(23.921569%,21.960784%,27.450982%);fill-opacity:1;" d="M 3 2 C 3.550781 2 4 2.449219 4 3 L 4 5 C 4 5.550781 3.550781 6 3 6 C 2.449219 6 2 5.550781 2 5 L 2 3 C 2 2.449219 2.449219 2 3 2 Z M 3 2 "/>
<path style=" stroke:none;fill-rule:nonzero;fill:rgb(23.921569%,21.960784%,27.450982%);fill-opacity:1;" d="M 8 0 C 8.550781 0 9 0.449219 9 1 L 9 3 C 9 3.550781 8.550781 4 8 4 C 7.449219 4 7 3.550781 7 3 L 7 1 C 7 0.449219 7.449219 0 8 0 Z M 8 0 "/>
<path style=" stroke:none;fill-rule:nonzero;fill:rgb(23.921569%,21.960784%,27.450982%);fill-opacity:1;" d="M 13 2 C 13.550781 2 14 2.449219 14 3 L 14 5 C 14 5.550781 13.550781 6 13 6 C 12.449219 6 12 5.550781 12 5 L 12 3 C 12 2.449219 12.449219 2 13 2 Z M 13 2 "/>
<path style=" stroke:none;fill-rule:nonzero;fill:rgb(23.921569%,21.960784%,27.450982%);fill-opacity:1;" d="M 8 6 C 5.238281 6 3 8.238281 3 11 C 3 13.761719 5.238281 16 8 16 C 10.761719 16 13 13.761719 13 11 C 13 8.238281 10.761719 6 8 6 Z M 5.320312 9.320312 C 5.589844 9.316406 5.847656 9.421875 6.039062 9.613281 C 6.230469 9.804688 6.335938 10.0625 6.332031 10.332031 C 6.332031 10.929688 6.648438 11.480469 7.167969 11.777344 C 7.683594 12.074219 8.316406 12.074219 8.832031 11.777344 C 9.351562 11.480469 9.667969 10.929688 9.667969 10.332031 C 9.660156 9.972656 9.851562 9.636719 10.160156 9.457031 C 10.472656 9.273438 10.859375 9.273438 11.171875 9.457031 C 11.480469 9.636719 11.671875 9.972656 11.667969 10.332031 C 11.667969 11.640625 10.96875 12.855469 9.832031 13.511719 C 8.699219 14.164062 7.300781 14.164062 6.167969 13.511719 C 5.03125 12.855469 4.332031 11.640625 4.332031 10.332031 C 4.328125 9.78125 4.765625 9.328125 5.320312 9.320312 Z M 5.320312 9.320312 "/>
</g>
</svg>
