<?xml version="1.0" encoding="UTF-8"?>
<svg xmlns="http://www.w3.org/2000/svg" xmlns:xlink="http://www.w3.org/1999/xlink" width="128px" height="128px" viewBox="0 0 128 128" version="1.1">
<defs>
<linearGradient id="linear0" gradientUnits="userSpaceOnUse" x1="26" y1="282" x2="104" y2="282" gradientTransform="matrix(1,0,0,1,0,-172)">
<stop offset="0" style="stop-color:rgb(75.294119%,74.901962%,73.725492%);stop-opacity:1;"/>
<stop offset="0.923077" style="stop-color:rgb(75.294119%,74.901962%,73.725492%);stop-opacity:1;"/>
<stop offset="0.961538" style="stop-color:rgb(60.392159%,60.000002%,58.823532%);stop-opacity:0.247059;"/>
<stop offset="1" style="stop-color:rgb(75.294119%,74.901962%,73.725492%);stop-opacity:1;"/>
</linearGradient>
</defs>
<g id="surface114830">
<path style=" stroke:none;fill-rule:nonzero;fill:rgb(96.470588%,96.078432%,95.686275%);fill-opacity:1;" d="M 24 16 L 24 116 L 98.460938 116 C 101.527344 116 104 112.433594 104 108 L 104 24 C 104 19.566406 101.527344 16 98.460938 16 Z M 24 16 "/>
<path style=" stroke:none;fill-rule:nonzero;fill:url(#linear0);" d="M 24 14 L 24 114 L 98.460938 114 C 101.527344 114 104 110.433594 104 106 L 104 22 C 104 17.566406 101.527344 14 98.460938 14 Z M 24 14 "/>
<path style=" stroke:none;fill-rule:nonzero;fill:rgb(96.470588%,96.078432%,95.686275%);fill-opacity:1;" d="M 24 12 L 24 112 L 98.460938 112 C 101.527344 112 104 108.433594 104 104 L 104 20 C 104 15.566406 101.527344 12 98.460938 12 Z M 24 12 "/>
<path style=" stroke:none;fill-rule:nonzero;fill:rgb(96.470588%,96.078432%,95.686275%);fill-opacity:1;" d="M 24 110 L 26 110 L 26 114 L 24 114 Z M 24 110 "/>
<path style="fill-rule:nonzero;fill:rgb(100%,100%,38.82353%);fill-opacity:1;stroke-width:5;stroke-linecap:round;stroke-linejoin:round;stroke:rgb(0%,0%,60.000002%);stroke-opacity:1;stroke-miterlimit:4;" d="M 64 268 C 19.210938 267.585938 45.808594 186.144531 82.125 215.457031 C 102.203125 230.582031 87.585938 266.75 64 268 Z M 64 268 " transform="matrix(1,0,0,1,0,-172)"/>
<path style="fill:none;stroke-width:4.558698;stroke-linecap:round;stroke-linejoin:round;stroke:rgb(0%,0%,60.000002%);stroke-opacity:1;stroke-miterlimit:4;" d="M 50.546875 236.789062 C 46.996094 245.835938 54.964844 257.875 65.101562 256.070312 C 75.023438 255.160156 82.691406 244.410156 79.855469 234.746094 " transform="matrix(1,0,0,1,0,-172)"/>
<path style="fill:none;stroke-width:5;stroke-linecap:round;stroke-linejoin:round;stroke:rgb(0%,0%,60.000002%);stroke-opacity:1;stroke-miterlimit:4;" d="M 41 195 C 41.25 199.890625 44.929688 203.570312 48 207 " transform="matrix(1,0,0,1,0,-172)"/>
<path style="fill:none;stroke-width:5;stroke-linecap:round;stroke-linejoin:round;stroke:rgb(0%,0%,60.000002%);stroke-opacity:1;stroke-miterlimit:4;" d="M 67 191 C 65 194 64 198 64 202 " transform="matrix(1,0,0,1,0,-172)"/>
<path style="fill:none;stroke-width:5;stroke-linecap:round;stroke-linejoin:round;stroke:rgb(0%,0%,60.000002%);stroke-opacity:1;stroke-miterlimit:4;" d="M 90 196 C 86.75 197.832031 84 204 83 206 " transform="matrix(1,0,0,1,0,-172)"/>
<path style=" stroke:none;fill-rule:nonzero;fill:rgb(0%,0%,60.000002%);fill-opacity:1;" d="M 41.082031 20.46875 C 40.375 20.441406 39.695312 20.71875 39.203125 21.226562 C 38.710938 21.734375 38.457031 22.425781 38.503906 23.128906 C 38.816406 29.203125 43.136719 33.316406 46.136719 36.667969 C 47.058594 37.695312 48.640625 37.785156 49.667969 36.863281 C 50.699219 35.941406 50.785156 34.359375 49.863281 33.332031 C 46.726562 29.824219 43.6875 26.578125 43.496094 22.871094 C 43.445312 21.5625 42.394531 20.511719 41.082031 20.46875 Z M 41.082031 20.46875 "/>
<path style=" stroke:none;fill-rule:nonzero;fill:rgb(0%,0%,0%);fill-opacity:0.334842;" d="M 69.46875 19.472656 C 69.402344 19.800781 69.269531 20.109375 69.078125 20.386719 C 67.4375 22.851562 66.5 26.417969 66.5 30 C 66.5 31.316406 65.480469 32.40625 64.164062 32.492188 C 62.851562 32.582031 61.695312 31.636719 61.519531 30.332031 C 61.515625 30.554688 61.5 30.777344 61.5 31 C 61.488281 31.902344 61.960938 32.738281 62.738281 33.195312 C 63.519531 33.648438 64.480469 33.648438 65.261719 33.195312 C 66.039062 32.738281 66.511719 31.902344 66.5 31 C 66.5 27.417969 67.4375 23.851562 69.078125 21.386719 C 69.464844 20.828125 69.605469 20.136719 69.46875 19.472656 Z M 38.539062 23.523438 C 38.503906 23.722656 38.492188 23.925781 38.503906 24.128906 C 38.816406 30.203125 43.136719 34.316406 46.136719 37.667969 C 46.890625 38.507812 48.113281 38.742188 49.121094 38.234375 C 50.132812 37.730469 50.675781 36.609375 50.453125 35.503906 C 50.261719 36.429688 49.566406 37.167969 48.652344 37.414062 C 47.742188 37.660156 46.765625 37.371094 46.136719 36.667969 C 43.203125 33.390625 39.015625 29.378906 38.542969 23.523438 Z M 92.480469 24.480469 C 92.332031 25.203125 91.875 25.824219 91.226562 26.179688 C 90.386719 26.652344 88.925781 28.359375 87.796875 30.230469 C 86.667969 32.097656 85.785156 34.019531 85.234375 35.117188 C 84.757812 36.066406 83.730469 36.609375 82.675781 36.46875 C 81.621094 36.332031 80.769531 35.539062 80.554688 34.496094 C 80.308594 35.722656 81.007812 36.941406 82.1875 37.347656 C 83.371094 37.757812 84.671875 37.230469 85.234375 36.117188 C 85.785156 35.019531 86.667969 33.097656 87.796875 31.230469 C 88.925781 29.359375 90.386719 27.652344 91.226562 27.179688 C 92.191406 26.652344 92.703125 25.558594 92.480469 24.480469 Z M 94.066406 64.34375 C 93.945312 68.210938 93.15625 72.101562 91.804688 75.765625 C 87.433594 87.609375 77.191406 97.773438 64.152344 98.464844 C 64.101562 98.46875 64.050781 98.46875 64 98.46875 C 52.042969 98.355469 44.15625 92.492188 40.570312 84.484375 C 38.851562 80.636719 38.046875 76.367188 37.992188 71.988281 C 37.929688 76.714844 38.71875 81.347656 40.570312 85.484375 C 44.15625 93.492188 52.042969 99.355469 64 99.46875 C 64.050781 99.46875 64.101562 99.46875 64.152344 99.464844 C 77.191406 98.773438 87.433594 88.609375 91.804688 76.765625 C 93.273438 72.785156 94.0625 68.539062 94.066406 64.34375 Z M 94.066406 64.34375 "/>
<path style=" stroke:none;fill-rule:nonzero;fill:rgb(0%,0%,0%);fill-opacity:0.411765;" d="M 77.632812 63.253906 C 77.554688 63.625 77.574219 64.011719 77.683594 64.378906 C 77.929688 65.214844 78.074219 66.066406 78.136719 66.921875 C 78.144531 65.734375 78.007812 64.546875 77.667969 63.386719 C 77.65625 63.34375 77.644531 63.296875 77.632812 63.253906 Z M 52.777344 65.242188 C 52.75 65.371094 52.714844 65.5 52.667969 65.621094 C 52.097656 67.074219 51.910156 68.664062 52.023438 70.261719 C 52.039062 69 52.234375 67.761719 52.683594 66.613281 C 52.855469 66.175781 52.886719 65.695312 52.777344 65.242188 Z M 82.742188 67.179688 C 82.660156 76.605469 75.082031 85.367188 65.421875 86.320312 C 59.421875 87.351562 54.042969 84.28125 50.839844 79.828125 C 48.847656 77.058594 47.589844 73.699219 47.421875 70.265625 C 47.375 74.039062 48.675781 77.785156 50.859375 80.820312 C 54.058594 85.273438 59.441406 88.339844 65.441406 87.308594 C 75.4375 86.320312 83.207031 76.976562 82.742188 67.179688 Z M 82.742188 67.179688 "/>
<path style=" stroke:none;fill-rule:nonzero;fill:rgb(0%,0%,60.000002%);fill-opacity:1;" d="M 79.847656 60.4375 C 79.125 60.4375 78.441406 60.78125 78.011719 61.363281 C 77.582031 61.945312 77.457031 62.695312 77.671875 63.386719 C 80.0625 71.546875 73.296875 81.03125 64.890625 81.800781 C 64.828125 81.808594 64.765625 81.816406 64.703125 81.828125 C 60.597656 82.558594 56.957031 80.527344 54.542969 77.167969 C 52.128906 73.808594 51.230469 69.285156 52.671875 65.621094 C 52.980469 64.859375 52.859375 63.992188 52.347656 63.347656 C 51.839844 62.699219 51.019531 62.378906 50.207031 62.507812 C 49.394531 62.632812 48.714844 63.1875 48.425781 63.957031 C 46.3125 69.339844 47.625 75.355469 50.84375 79.832031 C 54.042969 84.285156 59.425781 87.347656 65.421875 86.320312 C 76.804688 85.195312 85.308594 73.234375 82.046875 62.105469 C 81.769531 61.117188 80.871094 60.433594 79.847656 60.4375 Z M 79.847656 60.4375 "/>
</g>
</svg>
