<?xml version="1.0" encoding="UTF-8" standalone="no"?>
<!-- Created with Inkscape (http://www.inkscape.org/) -->

<svg
   xmlns:dc="http://purl.org/dc/elements/1.1/"
   xmlns:cc="http://creativecommons.org/ns#"
   xmlns:rdf="http://www.w3.org/1999/02/22-rdf-syntax-ns#"
   xmlns:svg="http://www.w3.org/2000/svg"
   xmlns="http://www.w3.org/2000/svg"
   xmlns:sodipodi="http://sodipodi.sourceforge.net/DTD/sodipodi-0.dtd"
   xmlns:inkscape="http://www.inkscape.org/namespaces/inkscape"
   width="223.91203"
   height="892.48193"
   viewBox="0 0 59.243389 236.13585"
   version="1.1"
   id="svg8"
   sodipodi:docname="ilo pona.svg"
   inkscape:version="0.92.4 (5da689c313, 2019-01-14)">
  <defs
     id="defs2" />
  <sodipodi:namedview
     id="base"
     pagecolor="#ffffff"
     bordercolor="#666666"
     borderopacity="1.0"
     inkscape:pageopacity="0.0"
     inkscape:pageshadow="2"
     inkscape:zoom="0.49497475"
     inkscape:cx="889.46806"
     inkscape:cy="145.52401"
     inkscape:document-units="mm"
     inkscape:current-layer="layer1"
     showgrid="false"
     units="px"
     inkscape:window-width="1920"
     inkscape:window-height="985"
     inkscape:window-x="1280"
     inkscape:window-y="36"
     inkscape:window-maximized="1"
     fit-margin-top="5"
     fit-margin-right="5"
     fit-margin-bottom="5"
     fit-margin-left="5"
     inkscape:pagecheckerboard="true" />
  <metadata
     id="metadata5">
    <rdf:RDF>
      <cc:Work
         rdf:about="">
        <dc:format>image/svg+xml</dc:format>
        <dc:type
           rdf:resource="http://purl.org/dc/dcmitype/StillImage" />
        <dc:title></dc:title>
      </cc:Work>
    </rdf:RDF>
  </metadata>
  <g
     inkscape:label="Layer 1"
     inkscape:groupmode="layer"
     id="layer1"
     transform="translate(-4.3109503,-62.959921)">
    <path
       style="opacity:0.3;fill:none;stroke:#ffffff;stroke-width:1.50699997;stroke-linecap:butt;stroke-linejoin:miter;stroke-miterlimit:4;stroke-dasharray:none;stroke-opacity:1"
       d="M 26.71352,65.504131 C -0.51334823,73.074968 9.6765828,123.42919 38.461401,115.13031 68.824658,107.04752 57.67474,59.840884 26.71352,65.504131 Z"
       id="path856"
       inkscape:connector-curvature="0" />
    <path
       style="opacity:0.3;fill:none;stroke:#ffffff;stroke-width:1.32291663;stroke-linecap:round;stroke-linejoin:round;stroke-miterlimit:4;stroke-dasharray:none;stroke-opacity:1"
       d="m 32.978423,74.182975 c 2.634435,9.205647 4.858152,23.438828 1.41741,33.072895"
       id="path876"
       inkscape:connector-curvature="0" />
    <path
       style="opacity:0.3;fill:none;stroke:#ffffff;stroke-width:1.84614873;stroke-linecap:round;stroke-linejoin:round;stroke-miterlimit:4;stroke-dasharray:none;stroke-opacity:1"
       d="m 30.430563,88.168089 c -3.49602,-1.65112 -2.330846,5.697707 0.566152,2.764447 0.801489,-0.7763 0.675023,-2.507197 -0.566152,-2.764447 z"
       id="path878"
       inkscape:connector-curvature="0" />
    <path
       style="opacity:0.3;fill:none;stroke:#ffffff;stroke-width:1.84614873;stroke-linecap:round;stroke-linejoin:round;stroke-miterlimit:4;stroke-dasharray:none;stroke-opacity:1"
       d="m 42.513281,87.715939 c -1.94111,-1.2451 -3.884728,2.384257 -1.503799,3.021467 2.122785,0.98991 3.836168,-2.017247 1.503799,-3.021467 z"
       id="path878-3"
       inkscape:connector-curvature="0" />
    <path
       style="opacity:0.3;fill:none;stroke:#ffffff;stroke-width:1.32291663;stroke-linecap:round;stroke-linejoin:round;stroke-miterlimit:4;stroke-dasharray:none;stroke-opacity:1"
       d="m 51.449385,189.05196 c -4.018379,-6.77504 -12.44971,-10.37313 -20.145616,-8.86104 -11.191133,1.74235 -21.3695105,10.16021 -24.4164384,21.17773 -2.1507482,8.5812 1.7497269,18.0855 9.0352474,23.00536 9.690887,6.65888 23.144542,6.54976 33.282092,0.92623 6.215711,-3.51642 11.593417,-9.64314 12.307532,-16.9707 0.564293,-6.62136 -3.074262,-13.43009 -9.100447,-16.35778 -8.971035,-4.79119 -20.479466,-3.61115 -28.750176,2.11311 -0.438097,0.25612 -0.884495,0.49884 -1.344573,0.71338"
       id="path953"
       inkscape:connector-curvature="0" />
    <path
       style="opacity:0.3;fill:none;stroke:#ffffff;stroke-width:1.84614873;stroke-linecap:round;stroke-linejoin:round;stroke-miterlimit:4;stroke-dasharray:none;stroke-opacity:1"
       d="m 38.629464,183.43035 c -1.790036,-1.1942 -3.706529,2.17107 -1.746582,3.09896 1.711652,1.07777 4.017317,-1.80005 2.103026,-2.95298 l -0.172992,-0.0856 z"
       id="path878-3-6"
       inkscape:connector-curvature="0" />
    <path
       style="opacity:0.3;fill:none;stroke:#ffffff;stroke-width:1.84614873;stroke-linecap:round;stroke-linejoin:round;stroke-miterlimit:4;stroke-dasharray:none;stroke-opacity:1"
       d="m 29.679078,185.16888 c -3.223124,-1.62763 -2.82584,5.46153 0.217176,2.95721 0.905559,-0.71956 1.262041,-2.66149 -0.217176,-2.95721 z"
       id="path878-3-6-7"
       inkscape:connector-curvature="0" />
    <path
       style="color:#000000;font-style:normal;font-variant:normal;font-weight:normal;font-stretch:normal;font-size:medium;line-height:normal;font-family:sans-serif;font-variant-ligatures:normal;font-variant-position:normal;font-variant-caps:normal;font-variant-numeric:normal;font-variant-alternates:normal;font-feature-settings:normal;text-indent:0;text-align:start;text-decoration:none;text-decoration-line:none;text-decoration-style:solid;text-decoration-color:#000000;letter-spacing:normal;word-spacing:normal;text-transform:none;writing-mode:lr-tb;direction:ltr;text-orientation:mixed;dominant-baseline:auto;baseline-shift:baseline;text-anchor:start;white-space:normal;shape-padding:0;clip-rule:nonzero;display:inline;overflow:visible;visibility:visible;opacity:0.3;isolation:auto;mix-blend-mode:normal;color-interpolation:sRGB;color-interpolation-filters:linearRGB;solid-color:#000000;solid-opacity:1;vector-effect:none;fill:#ffffff;fill-opacity:1;fill-rule:nonzero;stroke:none;stroke-width:5;stroke-linecap:butt;stroke-linejoin:round;stroke-miterlimit:4;stroke-dasharray:none;stroke-dashoffset:0;stroke-opacity:1;color-rendering:auto;image-rendering:auto;shape-rendering:auto;text-rendering:auto;enable-background:accumulate"
       d="m 108.65234,426.0918 c -2.17244,-0.0416 -4.28071,0.002 -6.32617,0.1289 -12.328311,0.76324 -22.417221,4.48321 -30.775389,10.49024 -11.037638,7.93281 -19.004427,19.68407 -25.75,33.46484 a 2.5002499,2.5002499 0 0 0 -0.419922,0.94336 c -18.569443,45.09827 -23.362356,98.32647 -2.876953,143.95313 5.10045,11.95302 12.558123,23.15666 23.578125,30.87109 27.682515,21.15587 66.425129,27.74609 99.189449,15.19141 a 2.5002499,2.5002499 0 0 0 0.14844,-0.0586 c 25.34679,-11.58659 35.76751,-41.51131 32.53125,-67.375 -1.70481,-13.78802 -5.97914,-28.24598 -15.50195,-39.18359 a 2.5002499,2.5002499 0 0 0 -0.33984,-0.32422 c -4.9724,-3.89125 -10.88679,-4.81519 -16.34376,-5.50586 -3.68117,-0.46594 -6.59945,-1.4038 -9.65429,-2.26758 2.81718,-1.83303 5.62184,-3.52231 8.42969,-5.88281 4.26156,-3.58265 7.86584,-8.51886 7.84765,-15.36914 a 2.5002499,2.5002499 0 0 0 -0.0156,-0.22852 c -0.74759,-7.84887 -5.5257,-13.57632 -11.28711,-17.6875 -5.76142,-4.11118 -12.60706,-6.84129 -18.26953,-9.13086 a 2.5002499,2.5002499 0 0 0 -0.082,-0.0312 c -2.90346,-1.05456 -6.21829,-1.7458 -7.375,-2.35351 0.0848,-0.0968 0.21974,-0.54632 1.54296,-1.66797 a 2.5002499,2.5002499 0 0 0 0.39258,-0.42188 c 3.87936,-5.23506 8.93685,-10.97231 12.59375,-17.44336 3.65691,-6.471 5.91078,-13.90613 3.6836,-21.98242 a 2.5002499,2.5002499 0 0 0 -0.0664,-0.21484 c -5.90099,-15.75099 -21.35091,-26.79906 -38.14258,-27.53516 -2.30119,-0.21125 -4.53849,-0.33731 -6.71094,-0.3789 z m -3.08789,4.98437 c 2.97096,-0.0546 6.09589,0.0661 9.39258,0.3711 a 2.5002499,2.5002499 0 0 0 0.125,0.008 c 14.69637,0.61942 28.46771,10.47546 33.66797,24.19726 1.7484,6.47222 0.0704,12.2873 -3.21094,18.09375 -3.2563,5.76218 -8.06198,11.29368 -12.09375,16.70899 -1.84189,1.58711 -3.07553,2.96875 -3.34179,4.94922 -0.1389,1.03313 0.16958,2.17389 0.71679,2.96093 0.5472,0.78709 1.2223,1.27499 1.89649,1.66016 2.67517,1.52837 6.00765,1.93804 8.24609,2.73828 5.65999,2.28862 12.14262,4.94507 17.21484,8.56445 5.03888,3.59562 8.55429,7.92547 9.17579,13.96485 -0.0272,5.10221 -2.39192,8.3545 -6.03125,11.41406 -3.67049,3.08572 -8.55097,5.64086 -12.64454,8.82031 a 2.5002499,2.5002499 0 0 0 0.30274,4.14063 c 5.08439,2.89262 10.83618,3.30688 16.1582,3.98047 5.25107,0.66459 9.9966,1.56439 13.71485,4.39844 8.43491,9.81981 12.50995,23.17397 14.1289,36.26757 a 2.5002499,2.5002499 0 0 0 0,0.008 c 3.00802,24.03961 -6.79497,51.68707 -29.55664,62.15625 -30.98576,11.84798 -68.084395,5.57287 -94.355468,-14.5293 a 2.5002499,2.5002499 0 0 0 -0.08789,-0.0664 c -10.04236,-7.01556 -17.02143,-17.38526 -21.88086,-28.77343 a 2.5002499,2.5002499 0 0 0 -0.02148,-0.0449 c -19.443141,-43.26766 -15.38024,-94.11136 1.99023,-137.70939 20.299765,12.69941 36.429983,30.48992 50.066407,50.24023 -16.540112,5.41588 -32.553016,18.33831 -36.44336,36.28321 a 2.5002499,2.5002499 0 0 0 -0.05273,0.29492 c -1.049529,11.31201 4.293715,21.37381 12.328125,28.36133 8.013381,6.96922 18.740788,11.05679 29.187496,10.71875 16.73489,0.28875 29.74417,-17.3869 25.15039,-33.23438 a 2.5002499,2.5002499 0 0 0 -0.14062,-0.36914 c -17.61763,-37.50961 -41.716612,-74.50816 -78.050782,-96.91797 6.364667,-12.64051 13.709064,-23.03081 23.351563,-29.96094 7.617101,-5.47441 16.695436,-8.89876 28.175779,-9.58203 h 0.002 c 0.9567,-0.057 1.92961,-0.0951 2.91992,-0.11328 z m -3.60742,98.72656 v 0.002 c 8.41622,12.74169 16.09972,26.01029 22.54492,39.70703 3.50973,12.37043 -7.24474,27.01433 -20.30078,26.75781 a 2.5002499,2.5002499 0 0 0 -0.13281,0 c -9.024303,0.31219 -18.737852,-3.35236 -25.822266,-9.51367 -7.049103,-6.13058 -11.423747,-14.5455 -10.59961,-23.98438 3.551883,-15.96793 18.752185,-28.28207 34.281246,-32.96093 a 2.5002499,2.5002499 0 0 0 0.0293,-0.008 z"
       transform="matrix(0.26458333,0,0,0.26458333,4.3109503,121.16843)"
       id="path1094"
       inkscape:connector-curvature="0" />
    <path
       style="opacity:0.3;fill:none;stroke:#ffffff;stroke-width:1.32291663;stroke-linecap:round;stroke-linejoin:round;stroke-miterlimit:4;stroke-dasharray:none;stroke-opacity:1"
       d="m 32.543422,202.50515 c -7.039383,2.50261 -2.749412,16.39741 4.412715,11.15593 4.297819,-3.70155 1.783569,-11.94019 -4.412715,-11.15593 z"
       id="path1110"
       inkscape:connector-curvature="0" />
    <path
       style="opacity:0.3;fill:#ffffff;fill-opacity:1;stroke:#ffffff;stroke-width:1.32291663;stroke-linecap:round;stroke-linejoin:round;stroke-miterlimit:4;stroke-dasharray:none;stroke-opacity:1"
       d="m 34.017858,208.0811 c -0.81977,-0.0117 -0.184119,1.50598 0.303144,0.77193 0.12504,-0.28105 -0.03289,-0.64136 -0.303144,-0.77193 z"
       id="path1128"
       inkscape:connector-curvature="0" />
    <path
       style="opacity:0.3;fill:#ffffff;fill-opacity:1;stroke:#ffffff;stroke-width:1.32291663;stroke-linecap:round;stroke-linejoin:round;stroke-miterlimit:4;stroke-dasharray:none;stroke-opacity:1"
       d="m 28.850869,271.24109 c -1.033921,0.0667 0.323774,1.5936 0.348839,0.46417 -0.01943,-0.20182 -0.151541,-0.39877 -0.348839,-0.46417 z"
       id="path1128-5"
       inkscape:connector-curvature="0" />
    <path
       style="color:#000000;font-style:normal;font-variant:normal;font-weight:normal;font-stretch:normal;font-size:medium;line-height:normal;font-family:sans-serif;font-variant-ligatures:normal;font-variant-position:normal;font-variant-caps:normal;font-variant-numeric:normal;font-variant-alternates:normal;font-feature-settings:normal;text-indent:0;text-align:start;text-decoration:none;text-decoration-line:none;text-decoration-style:solid;text-decoration-color:#000000;letter-spacing:normal;word-spacing:normal;text-transform:none;writing-mode:lr-tb;direction:ltr;text-orientation:mixed;dominant-baseline:auto;baseline-shift:baseline;text-anchor:start;white-space:normal;shape-padding:0;clip-rule:nonzero;display:inline;overflow:visible;visibility:visible;opacity:0.3;isolation:auto;mix-blend-mode:normal;color-interpolation:sRGB;color-interpolation-filters:linearRGB;solid-color:#000000;solid-opacity:1;vector-effect:none;fill:#ffffff;fill-opacity:1;fill-rule:nonzero;stroke:none;stroke-width:5;stroke-linecap:butt;stroke-linejoin:miter;stroke-miterlimit:4;stroke-dasharray:none;stroke-dashoffset:0;stroke-opacity:1;color-rendering:auto;image-rendering:auto;shape-rendering:auto;text-rendering:auto;enable-background:accumulate"
       d="m 109.48047,8.6992188 c -0.5348,0.00486 -1.06909,0.03491 -1.60352,0.091797 -4.26629,0.4541103 -8.359682,2.8227172 -11.359372,7.2773432 -0.0064,0.01134 -0.01701,0.0121 -0.02344,0.02344 -39.467347,43.861946 -39.738252,110.214221 -20.875,162.666011 l 0.0293,0.10352 0.04297,0.0957 c 10.061681,21.94209 34.035642,30.92699 55.498042,28.0293 10.7312,-1.44885 20.93863,-5.86309 28.58203,-13.22852 7.6403,-7.3624 12.64253,-17.71837 12.9043,-30.58203 6.94604,-47.16363 -9.80067,-94.788177 -32.04492,-134.986325 L 140.51172,27.96875 140.3418,27.777344 C 136.04275,22.742635 128.65328,15.638718 120.52148,11.617188 116.96382,9.8577513 113.22404,8.6652224 109.48047,8.6992188 Z m 0.0449,5.0058592 c 2.65981,-0.01279 5.68759,0.861662 8.7832,2.392578 7.00144,3.462539 14.09041,10.14611 18.0625,14.763672 21.92763,39.695698 38.13432,86.345762 31.33008,131.878902 l -0.0234,0.1543 v 0.16211 c -0.23349,11.64828 -4.619,20.59715 -11.375,27.10742 -6.75599,6.51028 -15.96498,10.53657 -25.77734,11.86133 -19.60262,2.64661 -41.209968,-5.46782 -50.248046,-25.08984 -0.0028,-0.008 -0.005,-0.0157 -0.0078,-0.0234 2.219653,0.82581 4.817179,1.34703 7.707031,1.71289 4.922869,0.62321 10.642318,0.65621 16.328125,0.0586 5.68581,-0.5975 11.32719,-1.81708 16.07812,-3.80273 4.75093,-1.98561 8.75433,-4.74745 10.63672,-8.85742 a 2.5002499,2.5002499 0 0 0 -2.22265,-3.57227 2.5002499,2.5002499 0 0 0 -2.31641,1.49219 c -1.07417,2.34531 -3.92009,4.60792 -8.03125,6.32617 -4.11116,1.71825 -9.34475,2.88065 -14.66211,3.43945 -5.317354,0.55877 -10.726678,0.52801 -15.183591,-0.0371 -4.45691,-0.56425 -7.983116,-1.83238 -9.212891,-2.85743 a 2.5002499,2.5002499 0 0 0 -1.375,-0.59375 c -3.404526,-10.65425 -5.996823,-21.78983 -7.609375,-33.11523 15.96199,2.57865 38.378877,6.83291 53.689447,-1.91602 a 2.5002499,2.5002499 0 0 0 -1.11523,-4.6875 2.5002499,2.5002499 0 0 0 -1.36524,0.34766 c -13.05166,7.4581 -35.443228,3.69762 -51.578118,1.12891 a 2.5006244,2.5006244 0 0 0 -0.294921,-0.0274 C 65.07829,91.583309 72.973401,49.475716 100.42188,19.162109 l 0.125,-0.132812 0.10351,-0.15625 c 2.33411,-3.478677 4.84494,-4.797387 7.75781,-5.107422 0.36411,-0.03874 0.73722,-0.05872 1.11719,-0.06055 z"
       transform="matrix(0.26458333,0,0,0.26458333,4.3109503,121.16843)"
       id="path832"
       inkscape:connector-curvature="0" />
    <path
       style="opacity:0.3;fill:none;stroke:#ffffff;stroke-width:1.32291663;stroke-linecap:round;stroke-linejoin:round;stroke-miterlimit:4;stroke-dasharray:none;stroke-opacity:1"
       d="m 32.10698,135.59433 c -13.125789,4.57625 8.533771,22.0796 7.975474,6.67437 -0.423113,-3.83441 -4.205937,-7.81518 -8.309561,-6.4071"
       id="path859"
       inkscape:connector-curvature="0" />
    <path
       style="opacity:0.3;fill:#ffffff;fill-opacity:1;stroke:#ffffff;stroke-width:1.32291663;stroke-linecap:butt;stroke-linejoin:miter;stroke-miterlimit:4;stroke-dasharray:none;stroke-opacity:1"
       d="m 33.610371,140.75597 c -0.235217,0.0529 -0.499329,0.21356 -0.618061,0.45102 -0.351698,0.70339 0.142793,2.18277 1.135896,1.58691 0.870098,-0.52206 0.518922,-2.16753 -0.517835,-2.03793 z"
       id="path888"
       inkscape:connector-curvature="0" />
  </g>
</svg>
