<?xml version="1.0" encoding="UTF-8" standalone="no"?>
<!-- Created with Inkscape (http://www.inkscape.org/) -->

<svg
   xmlns:dc="http://purl.org/dc/elements/1.1/"
   xmlns:cc="http://creativecommons.org/ns#"
   xmlns:rdf="http://www.w3.org/1999/02/22-rdf-syntax-ns#"
   xmlns:svg="http://www.w3.org/2000/svg"
   xmlns="http://www.w3.org/2000/svg"
   xmlns:sodipodi="http://sodipodi.sourceforge.net/DTD/sodipodi-0.dtd"
   xmlns:inkscape="http://www.inkscape.org/namespaces/inkscape"
   width="139.39441mm"
   height="206.38756mm"
   viewBox="0 0 493.9172 731.29449"
   id="svg7415"
   version="1.1"
   inkscape:version="0.91 r13725"
   sodipodi:docname="akesi.svg">
  <defs
     id="defs7417" />
  <sodipodi:namedview
     id="base"
     pagecolor="#ffffff"
     bordercolor="#666666"
     borderopacity="1.0"
     inkscape:pageopacity="0.0"
     inkscape:pageshadow="2"
     inkscape:zoom="0.35"
     inkscape:cx="249.10145"
     inkscape:cy="366.5044"
     inkscape:document-units="px"
     inkscape:current-layer="layer1"
     showgrid="false"
     inkscape:window-width="1600"
     inkscape:window-height="871"
     inkscape:window-x="0"
     inkscape:window-y="0"
     inkscape:window-maximized="1"
     fit-margin-top="0"
     fit-margin-left="0"
     fit-margin-right="0"
     fit-margin-bottom="0" />
  <metadata
     id="metadata7420">
    <rdf:RDF>
      <cc:Work
         rdf:about="">
        <dc:format>image/svg+xml</dc:format>
        <dc:type
           rdf:resource="http://purl.org/dc/dcmitype/StillImage" />
        <dc:title></dc:title>
      </cc:Work>
    </rdf:RDF>
  </metadata>
  <g
     inkscape:label="Layer 1"
     inkscape:groupmode="layer"
     id="layer1"
     transform="translate(-125.89855,-167.5721)">
    <path
       inkscape:connector-curvature="0"
       id="path3493"
       style="fill:#FFFFFF;fill-opacity: 0.3;"
       d="m 410.58669,213.96463 c -6.33937,-16.52026 6.39182,-44.00447 21.38382,-46.16377 27.07908,-3.9002 48.77553,43.2353 24.23584,52.65217 -18.81189,7.2188 -41.60363,3.97728 -45.61966,-6.4884 z m -183.85658,3.6186 c -3.98564,-15.24124 3.75415,-41.00833 14.27037,-47.50744 3.67813,-2.27343 12.692,-0.92077 20.03093,3.00791 10.48367,5.61067 12.92135,12.21406 11.37467,30.81096 -1.77086,21.29753 -3.97706,23.86496 -22.00737,25.61999 -16.00762,1.55887 -20.76862,-0.84154 -23.6686,-11.93142 z m 151.8469,163.18711 c 15.99949,-3.07686 17.68963,-5.56421 13.95303,-20.53801 -7.48625,-30.00111 -29.00048,-58.79346 -43.92331,-58.78211 -29.93945,0.0214 -75.37303,68.09598 -57.42645,86.04256 4.39634,4.39634 46.36291,1.16916 87.39673,-6.72244 z m 43.97128,141.58572 c 11.04341,-6.82523 0.37473,-86.86654 -12.62798,-94.75001 -8.86355,-5.37342 -133.11682,10.50487 -137.77868,17.60654 -2.5957,3.95437 -4.76378,25.68144 -4.81796,48.28217 l -0.10707,41.09249 75.02378,-4.48541 c 41.26294,-2.4668 77.39765,-5.95243 80.29934,-7.74578 z m -55.75172,153.44069 c 31.79853,-8.99674 59.93928,-19.57934 62.53498,-23.51679 2.59592,-3.93745 4.764,-24.18038 4.81796,-44.9839 l 0.10707,-37.82485 -40.14967,3.83253 c -22.08232,2.10706 -61.1078,5.77127 -86.72329,8.14107 l -46.57362,4.30854 0,52.70292 c 0,28.98656 1.78586,54.48942 3.97043,56.67313 5.3929,5.39312 33.37241,0.0856 102.0247,-19.33265 z M 335.53871,841.5742 c 11.07338,-6.75243 27.90819,-22.47011 37.4105,-34.92829 20.91337,-27.41869 44.99268,-87.64962 35.04113,-87.64962 -3.81347,0 -29.09598,5.47235 -56.18341,12.16096 -27.08743,6.68862 -57.19947,13.97059 -66.91569,16.18235 -19.98854,4.54987 -22.14206,16.25323 -10.2781,55.85194 7.04835,23.52535 26.49514,50.73462 36.22399,50.68345 2.51241,-0.0129 13.62798,-5.54858 24.70158,-12.30079 z m -68.50647,32.91523 c -17.47592,-17.47592 -27.34225,-35.20772 -34.85077,-62.63348 -14.84382,-54.21876 -17.16736,-56.92217 -54.01448,-62.84227 -36.6529,-5.88904 -49.7115,-20.15984 -42.98199,-46.97233 3.80919,-15.177 5.36957,-15.59841 42.30191,-11.41985 l 38.3469,4.33831 0,-51.7571 0,-51.7571 -36.29423,3.7458 c -39.85931,4.1139 -53.64103,-4.79826 -53.64103,-34.68738 0,-15.69349 3.71133,-17.2922 60.98895,-26.27031 35.18353,-5.51496 39.33597,-12.42584 41.03403,-68.29255 l 0.76017,-25.005 -37.42227,3.91154 c -43.26058,4.5216 -65.36088,-5.95157 -65.36088,-30.97413 0,-21.06477 10.25604,-25.75254 51.39157,-23.48938 54.69392,3.00919 65.85274,-3.91411 79.44496,-49.29052 23.53713,-78.57515 80.0381,-112.77646 124.50102,-75.36339 11.1297,9.36504 27.88999,32.67198 37.24519,51.79307 23.14398,47.30445 26.56195,49.43078 67.1007,41.74281 18.66199,-3.53916 46.11751,-6.43486 61.01208,-6.43486 35.6801,0 69.94051,22.42578 72.85698,47.68988 2.74688,23.79344 -10.28303,31.84029 -30.30968,18.71831 -11.9297,-7.81666 -27.05339,-9.46269 -66.14396,-7.19996 -27.87286,1.61455 -53.84167,6.09761 -57.70846,9.9644 -5.09162,5.09162 -4.58349,17.34016 1.84153,44.41046 l 8.87276,37.37966 50.60614,-2.25223 c 69.59447,-3.09742 91.26223,10.01086 77.18544,46.69438 -2.92161,7.61345 -13.79371,10.35198 -43.36164,10.92136 -21.70438,0.41755 -48.13464,2.61454 -58.73415,4.88113 -18.56393,3.96957 -19.27184,5.4126 -19.27184,39.28051 l 0,35.15976 24.50585,3.98327 c 27.90585,4.53595 57.97998,24.49901 61.14185,40.58564 3.37878,17.19092 -10.94684,30.41825 -24.87245,22.9654 -16.67293,-8.92308 -61.17739,-7.79996 -68.98741,1.74089 -3.61519,4.41646 -15.94831,32.41288 -27.40713,62.21464 -16.63032,43.25223 -28.16344,61.72172 -57.162,91.54125 -34.35891,35.3315 -38.006,37.35654 -67.28249,37.35654 -27.26902,0 -33.85656,-2.90234 -55.3316,-24.37738 z" />
  </g>
</svg>
