<?xml version="1.0" encoding="UTF-8" standalone="no"?>
<!-- Created with Inkscape (http://www.inkscape.org/) -->

<svg
   xmlns:dc="http://purl.org/dc/elements/1.1/"
   xmlns:cc="http://creativecommons.org/ns#"
   xmlns:rdf="http://www.w3.org/1999/02/22-rdf-syntax-ns#"
   xmlns:svg="http://www.w3.org/2000/svg"
   xmlns="http://www.w3.org/2000/svg"
   xmlns:sodipodi="http://sodipodi.sourceforge.net/DTD/sodipodi-0.dtd"
   xmlns:inkscape="http://www.inkscape.org/namespaces/inkscape"
   width="169.05917mm"
   height="187.76221mm"
   viewBox="0 0 599.02857 665.29916"
   id="svg5013"
   version="1.1"
   inkscape:version="0.91 r13725"
   sodipodi:docname="alasa.svg">
  <defs
     id="defs5015" />
  <sodipodi:namedview
     id="base"
     pagecolor="#ffffff"
     bordercolor="#666666"
     borderopacity="1.0"
     inkscape:pageopacity="0.0"
     inkscape:pageshadow="2"
     inkscape:zoom="0.35"
     inkscape:cx="323.08572"
     inkscape:cy="352.64959"
     inkscape:document-units="px"
     inkscape:current-layer="layer1"
     showgrid="false"
     inkscape:window-width="1600"
     inkscape:window-height="871"
     inkscape:window-x="0"
     inkscape:window-y="0"
     inkscape:window-maximized="1"
     fit-margin-top="0"
     fit-margin-left="0"
     fit-margin-right="0"
     fit-margin-bottom="0" />
  <metadata
     id="metadata5018">
    <rdf:RDF>
      <cc:Work
         rdf:about="">
        <dc:format>image/svg+xml</dc:format>
        <dc:type
           rdf:resource="http://purl.org/dc/dcmitype/StillImage" />
        <dc:title></dc:title>
      </cc:Work>
    </rdf:RDF>
  </metadata>
  <g
     inkscape:label="Layer 1"
     inkscape:groupmode="layer"
     id="layer1"
     transform="translate(-51.914284,-219.71262)">
    <path
       inkscape:connector-curvature="0"
       id="path3523"
       style="fill:#FFFFFF;fill-opacity: 0.3;"
       d="M 334.83786,471.03027 385.32448,466.76263 381.42557,442.38 C 369.27983,366.42557 324.76702,301.03269 275.12818,286.22085 c -44.43252,-13.25829 -47.41269,-7.32594 -47.41269,94.37716 0,47.31024 1.95336,87.97192 4.34079,90.35912 5.48871,5.48894 38.43789,5.51237 102.78158,0.0651 z m -31.71487,256.47192 c 42.37411,-45.73018 80.53115,-122.69342 85.7108,-172.87899 l 3.6966,-35.81583 -80.4962,4.54914 c -44.27298,2.50225 -81.71639,5.76955 -83.20789,7.26083 -1.49105,1.49106 -5.01686,35.80282 -7.83425,76.24723 -2.81739,40.44463 -7.29013,102.59992 -9.93954,138.12296 l -4.81675,64.58744 31.04965,-22.26477 c 17.07731,-12.24557 46.70426,-39.1591 65.83758,-59.80801 z M 159.81322,875.27062 c -12.76582,-12.76583 -12.90211,-39.68674 -0.80955,-159.84494 5.18246,-51.49432 10.31002,-112.67119 11.39456,-135.94866 l 1.97289,-42.32266 -52.08944,-1.82096 c -55.629353,-1.94468 -68.367396,-8.98717 -68.367396,-37.79329 0,-17.36749 11.087021,-22.21874 50.994046,-22.31294 16.71767,-0.0434 41.7855,-1.95336 55.70662,-4.25246 l 25.3109,-4.18104 -4.55869,-93.76967 c -4.30323,-88.51537 -3.75109,-95.43806 9.85293,-123.54054 l 14.41186,-29.77084 39.354,4.11333 c 95.65835,9.99835 131.54451,49.23428 189.05342,206.70132 l 10.99543,30.10704 52.45124,4.5754 c 28.84801,2.51636 54.28392,2.74229 56.52443,0.50137 2.24049,-2.2405 -11.428,-18.32464 -30.37401,-35.7429 -28.3959,-26.10572 -34.07604,-34.91447 -32.33257,-50.14239 3.49998,-30.56977 23.33455,-26.51743 80.64053,16.47546 71.40161,53.56792 80.99844,63.19795 80.99844,81.27863 0,16.19677 -98.12327,156.46083 -118.40278,169.2527 -14.78146,9.32401 -31.42165,-5.35589 -31.1243,-27.45787 0.13022,-9.40952 10.24491,-31.71878 22.48483,-49.57569 25.62627,-37.38611 24.5847,-38.79166 -33.40192,-45.07559 l -39.9871,-4.33341 -11.03776,49.61302 c -6.19995,27.86698 -25.01096,77.52471 -42.91757,113.29367 -25.62475,51.18612 -40.57442,71.88299 -76.19361,105.48436 -24.37265,22.99186 -60.40596,49.42268 -80.07406,58.73498 -19.6681,9.31249 -39.69172,21.66904 -44.49719,27.45918 -11.02408,13.28342 -22.89223,13.3809 -35.97753,0.29515 z" />
  </g>
</svg>
