<?xml version="1.0" encoding="UTF-8" standalone="no"?>
<!-- Created with Inkscape (http://www.inkscape.org/) -->

<svg
   xmlns:dc="http://purl.org/dc/elements/1.1/"
   xmlns:cc="http://creativecommons.org/ns#"
   xmlns:rdf="http://www.w3.org/1999/02/22-rdf-syntax-ns#"
   xmlns:svg="http://www.w3.org/2000/svg"
   xmlns="http://www.w3.org/2000/svg"
   xmlns:sodipodi="http://sodipodi.sourceforge.net/DTD/sodipodi-0.dtd"
   xmlns:inkscape="http://www.inkscape.org/namespaces/inkscape"
   width="159.06805mm"
   height="167.10483mm"
   viewBox="0 0 563.62696 592.10372"
   id="svg5322"
   version="1.1"
   inkscape:version="0.91 r13725"
   sodipodi:docname="en.svg">
  <defs
     id="defs5324" />
  <sodipodi:namedview
     id="base"
     pagecolor="#ffffff"
     bordercolor="#666666"
     borderopacity="1.0"
     inkscape:pageopacity="0.0"
     inkscape:pageshadow="2"
     inkscape:zoom="0.35"
     inkscape:cx="291.09919"
     inkscape:cy="156.05186"
     inkscape:document-units="px"
     inkscape:current-layer="layer1"
     showgrid="false"
     fit-margin-top="0"
     fit-margin-left="0"
     fit-margin-right="0"
     fit-margin-bottom="0"
     inkscape:window-width="1600"
     inkscape:window-height="871"
     inkscape:window-x="0"
     inkscape:window-y="0"
     inkscape:window-maximized="1" />
  <metadata
     id="metadata5327">
    <rdf:RDF>
      <cc:Work
         rdf:about="">
        <dc:format>image/svg+xml</dc:format>
        <dc:type
           rdf:resource="http://purl.org/dc/dcmitype/StillImage" />
        <dc:title></dc:title>
      </cc:Work>
    </rdf:RDF>
  </metadata>
  <g
     inkscape:label="Layer 1"
     inkscape:groupmode="layer"
     id="layer1"
     transform="translate(-83.900806,-96.310348)">
    <path
       inkscape:connector-curvature="0"
       style="fill:#FFFFFF;fill-opacity: 0.3;"
       d="m 353.5643,682.22108 c -5.88774,-3.73736 -10.50867,-42.25387 -15.05219,-125.45216 -3.60655,-66.03254 -8.02689,-121.52881 -9.82276,-123.32535 -1.79722,-1.79722 -53.70444,-5.29495 -115.35029,-7.7747 -100.20184,-4.03038 -113.09737,-5.89401 -121.649286,-17.58085 -5.26106,-7.18999 -8.6751,-22.15961 -7.58667,-33.26599 l 1.97895,-20.19344 126.060886,2.47818 126.06088,2.47819 1.83088,-130.36994 1.83087,-130.369942 17.40405,-2.02383 C 391.53065,93.071102 395.4199,107.0113 399.0803,239.52466 l 3.36557,121.8344 37.0213,2.10685 c 20.36171,1.15776 67.26097,-1.17795 104.21967,-5.19039 61.78181,-6.70848 68.56479,-6.28195 84.13931,5.29046 18.36526,13.64583 25.95529,45.30801 13.78606,57.51113 -4.77575,4.78943 -51.56596,8.83687 -126.69227,10.95965 l -119.11905,3.36557 2.26637,97.92089 c 3.08287,133.20868 -8.44758,171.78645 -44.50364,148.89786 z"
       id="path3515" />
  </g>
</svg>
