<?xml version="1.0" encoding="UTF-8" standalone="no"?>
<!-- Created with Inkscape (http://www.inkscape.org/) -->

<svg
   xmlns:dc="http://purl.org/dc/elements/1.1/"
   xmlns:cc="http://creativecommons.org/ns#"
   xmlns:rdf="http://www.w3.org/1999/02/22-rdf-syntax-ns#"
   xmlns:svg="http://www.w3.org/2000/svg"
   xmlns="http://www.w3.org/2000/svg"
   xmlns:sodipodi="http://sodipodi.sourceforge.net/DTD/sodipodi-0.dtd"
   xmlns:inkscape="http://www.inkscape.org/namespaces/inkscape"
   width="181.44612mm"
   height="180.11755mm"
   viewBox="0 0 642.91933 638.2118"
   id="svg5373"
   version="1.1"
   inkscape:version="0.91 r13725"
   sodipodi:docname="esun.svg">
  <defs
     id="defs5375" />
  <sodipodi:namedview
     id="base"
     pagecolor="#ffffff"
     bordercolor="#666666"
     borderopacity="1.0"
     inkscape:pageopacity="0.0"
     inkscape:pageshadow="2"
     inkscape:zoom="0.35"
     inkscape:cx="730.74539"
     inkscape:cy="370.5345"
     inkscape:document-units="px"
     inkscape:current-layer="layer1"
     showgrid="false"
     fit-margin-top="0"
     fit-margin-left="0"
     fit-margin-right="0"
     fit-margin-bottom="0"
     inkscape:window-width="1600"
     inkscape:window-height="871"
     inkscape:window-x="0"
     inkscape:window-y="0"
     inkscape:window-maximized="1" />
  <metadata
     id="metadata5378">
    <rdf:RDF>
      <cc:Work
         rdf:about="">
        <dc:format>image/svg+xml</dc:format>
        <dc:type
           rdf:resource="http://purl.org/dc/dcmitype/StillImage" />
        <dc:title></dc:title>
      </cc:Work>
    </rdf:RDF>
  </metadata>
  <g
     inkscape:label="Layer 1"
     inkscape:groupmode="layer"
     id="layer1"
     transform="translate(355.74539,235.31509)">
    <path
       inkscape:connector-curvature="0"
       id="path3509"
       style="fill:#FFFFFF;fill-opacity: 0.3;"
       d="m 78.829804,-43.72267 c 47.876076,-10.996965 74.856926,-38.977493 74.711766,-77.47909 -0.0748,-16.72067 -3.08958,-35.09925 -6.72538,-40.84141 -9.85836,-15.5686 -45.02445,-5.83296 -97.572685,27.01302 -45.6687045,28.54572 -67.478311,62.179616 -57.380509,88.492516 4.9332946,12.856397 38.519057,13.943373 86.966808,2.814964 z M -125.54912,264.05515 c 13.11256,-7.99543 27.558511,-21.48336 32.101961,-29.9734 7.163117,-13.38442 5.48626,-16.6436 -12.617201,-24.51981 -11.48284,-4.99565 -50.63867,-9.17295 -87.01245,-9.28245 -60.99761,-0.17459 -67.2688,1.20221 -80.75249,17.8538 -8.04008,9.92919 -13.59369,23.39791 -12.34184,29.9305 5.71597,29.82848 119.37106,41.14371 160.62202,15.99136 z M 182.94005,398.97287 C 155.84173,390.38032 129.69893,373.08548 55.342593,314.56088 19.7889,286.57785 -11.196649,263.68277 -13.515515,263.68277 c -2.319614,0 -20.708913,16.49245 -40.866356,36.65014 -30.074914,30.07517 -44.048716,38.18633 -77.888889,45.21127 -70.06281,14.54523 -194.48764,-20.32106 -216.00617,-60.5292 -23.54558,-43.99559 11.65643,-128.11201 62.6146,-149.61833 32.2374,-13.6054 126.69357,-11.91782 175.55585,3.13672 l 39.283786,12.1034 0,-58.92343 c 0,-69.568209 -4.490324,-76.039931 -61.634386,-88.8282361 -22.48304,-5.031317 -69.1619,-23.3298269 -103.73163,-40.6635769 -57.61172,-28.887173 -63.76244,-34.143717 -73.7465,-63.024657 -5.99134,-17.33001 -8.45911,-33.94218 -5.48551,-36.91627 2.97434,-2.97385 31.44573,8.37629 63.27083,25.22243 58.51338,30.973326 125.52552,54.426865 155.510643,54.426865 13.400633,0 17.082084,-5.355564 20.33104,-29.580313 5.898553,-43.976382 27.340763,-67.497272 98.135375,-107.647282 95.027842,-53.89286 137.348072,-53.43617 174.629502,1.88562 13.72014,20.35922 17.06038,35.56416 17.06038,77.65692 l 0,52.340715 -35.55593,35.555688 C 139.37771,10.72465 102.42252,25.593623 37.675367,28.585177 -4.7181927,30.54313 -0.44860692,17.982297 2.5489326,131.93245 l 1.4541235,55.3148 75.2370459,56.94503 c 105.349368,79.73584 113.852628,83.58017 159.169648,71.96564 42.16759,-10.80741 51.48944,-4.44942 48.14097,32.8355 -3.38215,37.66903 -58.53508,64.27351 -103.61116,49.97995 z" />
  </g>
</svg>
