<?xml version="1.0" encoding="UTF-8" standalone="no"?>
<!-- Created with Inkscape (http://www.inkscape.org/) -->

<svg
   xmlns:dc="http://purl.org/dc/elements/1.1/"
   xmlns:cc="http://creativecommons.org/ns#"
   xmlns:rdf="http://www.w3.org/1999/02/22-rdf-syntax-ns#"
   xmlns:svg="http://www.w3.org/2000/svg"
   xmlns="http://www.w3.org/2000/svg"
   xmlns:sodipodi="http://sodipodi.sourceforge.net/DTD/sodipodi-0.dtd"
   xmlns:inkscape="http://www.inkscape.org/namespaces/inkscape"
   width="121.43187mm"
   height="131.16142mm"
   viewBox="0 0 430.2704 464.7452"
   id="svg5148"
   version="1.1"
   inkscape:version="0.91 r13725"
   sodipodi:docname="jaki.svg">
  <defs
     id="defs5150" />
  <sodipodi:namedview
     id="base"
     pagecolor="#ffffff"
     bordercolor="#666666"
     borderopacity="1.0"
     inkscape:pageopacity="0.0"
     inkscape:pageshadow="2"
     inkscape:zoom="0.35"
     inkscape:cx="-635.5791"
     inkscape:cy="189.51545"
     inkscape:document-units="px"
     inkscape:current-layer="layer1"
     showgrid="false"
     fit-margin-top="0"
     fit-margin-left="0"
     fit-margin-right="0"
     fit-margin-bottom="0"
     inkscape:window-width="1600"
     inkscape:window-height="871"
     inkscape:window-x="0"
     inkscape:window-y="0"
     inkscape:window-maximized="1" />
  <metadata
     id="metadata5153">
    <rdf:RDF>
      <cc:Work
         rdf:about="">
        <dc:format>image/svg+xml</dc:format>
        <dc:type
           rdf:resource="http://purl.org/dc/dcmitype/StillImage" />
        <dc:title></dc:title>
      </cc:Work>
    </rdf:RDF>
  </metadata>
  <g
     inkscape:label="Layer 1"
     inkscape:groupmode="layer"
     id="layer1"
     transform="translate(-1010.5791,-257.13246)">
    <path
       inkscape:connector-curvature="0"
       id="path3883"
       style="fill:#FFFFFF;fill-opacity: 0.3;"
       d="m 1271.0361,458.61287 c 92.4517,-21.64489 137.772,-39.27102 137.772,-53.58285 0,-11.20518 -30.7522,-42.21959 -54.8885,-55.35611 -46.8628,-25.50572 -94.0247,-31.5855 -144.4091,-18.61605 -28.4238,7.31673 -64.3986,26.78112 -71.9864,38.94892 -4.9801,7.98716 13.3262,58.56772 31.9102,88.16407 10.7263,17.08219 11.3442,17.35805 32.4626,14.50102 11.8415,-1.60192 42.9537,-7.92842 69.1392,-14.059 z m -110.0882,89.26446 c 15.5157,-5.40844 17.0369,-8.9864 9.6765,-22.73994 -5.6484,-10.55536 -17.3481,-11.2235 -38.8936,-2.22124 -16.4251,6.86327 -19.8733,14.99981 -10.3799,24.49352 6.84,6.83978 20.8437,7.00517 39.597,0.46689 z m 37.3023,53.46154 c 0,-19.49308 -4.7436,-25.55378 -19.9434,-25.47963 -26.8126,0.13732 -29.0143,6.7203 -7.4642,22.33164 23.6313,17.11865 27.4076,17.55228 27.4076,3.14799 z m 89.1423,-3.33185 c 32.7921,-35.41979 50.9641,-62.50821 45.4759,-67.7929 -2.4062,-2.31705 -25.4165,3.30835 -54.5146,13.32739 l -50.3508,17.33654 0.5035,25.37618 c 0.6866,34.14439 3.4803,39.88576 19.4552,39.88576 10.5157,0 18.964,-6.02806 39.4293,-28.13297 z m -150.9364,88.24554 c 22.2779,-10.15544 48.0621,-31.29575 48.0621,-39.40589 0,-3.26899 -13.9807,-17.23889 -31.0664,-31.04416 l -31.0665,-25.10047 -27.7081,8.50562 c -30.7949,9.45343 -52.0567,26.06629 -52.0567,40.67306 0,18.05243 13.8725,37.11768 33.4894,46.02381 23.9319,10.8657 37.107,10.94169 60.3462,0.34788 z m -69.3285,31.46772 c -14.3576,-5.79309 -39.9373,-32.78263 -48.828,-51.51816 -4.2463,-8.94871 -7.7205,-24.49977 -7.7205,-34.55818 0,-21.7819 15.5386,-37.72494 54.2446,-55.65791 22.0308,-10.20656 23.996,-12.32312 21.2648,-22.88672 -1.6554,-6.40218 -4.0906,-19.37864 -5.4134,-28.83681 -2.6335,-18.8437 -7.0492,-15.28039 46.2739,-37.35066 l 15.6667,-6.48503 -18.1095,-42.00613 c -24.0875,-55.87228 -32.1787,-91.01347 -26.0909,-113.31368 5.4699,-20.03579 38.3627,-53.73267 62.1527,-63.67268 33.0698,-13.81793 53.7792,8.65454 23.0851,25.05074 -18.9716,10.13378 -52.551,40.58791 -48.8433,44.29648 1.5822,1.58239 12.5877,-3.28058 24.4552,-10.80665 70.0532,-44.42648 197.4605,-22.18471 260.7972,45.52809 18.9945,20.30708 20.7873,24.21857 20.7873,45.37292 0,21.20561 -1.2512,23.9122 -14.8764,32.22221 -21.0283,12.82404 -72.351,28.95841 -153.341,48.2066 -69.2735,16.46364 -78.3886,21.31089 -63.4252,33.72969 6.6051,5.48259 32.0307,-1.68187 127.4912,-35.92529 42.4167,-15.21555 58.3779,-14.19892 58.3779,3.71833 0,18.74789 -56.9879,103.08117 -100.3018,148.43212 -20.5538,21.52069 -21.5364,21.96439 -46.4356,20.98117 -24.736,-0.9765 -26.0375,-0.40585 -47.1055,20.66244 -29.5665,29.56689 -52.3831,39.20617 -92.2411,38.97028 -17.6227,-0.1068 -36.4616,-1.97314 -41.8644,-4.15317 z" />
  </g>
</svg>
