<?xml version="1.0" encoding="UTF-8" standalone="no"?>
<!-- Created with Inkscape (http://www.inkscape.org/) -->

<svg
   xmlns:dc="http://purl.org/dc/elements/1.1/"
   xmlns:cc="http://creativecommons.org/ns#"
   xmlns:rdf="http://www.w3.org/1999/02/22-rdf-syntax-ns#"
   xmlns:svg="http://www.w3.org/2000/svg"
   xmlns="http://www.w3.org/2000/svg"
   xmlns:sodipodi="http://sodipodi.sourceforge.net/DTD/sodipodi-0.dtd"
   xmlns:inkscape="http://www.inkscape.org/namespaces/inkscape"
   width="99.449265mm"
   height="180.47621mm"
   viewBox="0 0 352.37928 639.48264"
   id="svg5232"
   version="1.1"
   inkscape:version="0.91 r13725"
   sodipodi:docname="jelo.svg">
  <defs
     id="defs5234" />
  <sodipodi:namedview
     id="base"
     pagecolor="#ffffff"
     bordercolor="#666666"
     borderopacity="1.0"
     inkscape:pageopacity="0.0"
     inkscape:pageshadow="2"
     inkscape:zoom="0.35"
     inkscape:cx="342.61818"
     inkscape:cy="308.31275"
     inkscape:document-units="px"
     inkscape:current-layer="layer1"
     showgrid="false"
     fit-margin-top="0"
     fit-margin-left="0"
     fit-margin-right="0"
     fit-margin-bottom="0"
     inkscape:window-width="1600"
     inkscape:window-height="871"
     inkscape:window-x="0"
     inkscape:window-y="0"
     inkscape:window-maximized="1" />
  <metadata
     id="metadata5237">
    <rdf:RDF>
      <cc:Work
         rdf:about="">
        <dc:format>image/svg+xml</dc:format>
        <dc:type
           rdf:resource="http://purl.org/dc/dcmitype/StillImage" />
        <dc:title></dc:title>
      </cc:Work>
    </rdf:RDF>
  </metadata>
  <g
     inkscape:label="Layer 1"
     inkscape:groupmode="layer"
     id="layer1"
     transform="translate(-32.381815,-201.19231)">
    <path
       inkscape:connector-curvature="0"
       id="path3899"
       style="fill:#FFFFFF;fill-opacity: 0.3;"
       d="m 243.96496,459.42734 c 23.35901,-12.07922 39.20944,-34.98714 39.20944,-56.66672 0,-30.95922 -24.78608,-71.22499 -57.24688,-92.99947 -15.46706,-10.37519 -21.54321,-11.67869 -42.22296,-9.05727 -21.85807,2.77073 -25.20103,4.91078 -35.14733,22.49797 -8.14898,14.40879 -11.01285,27.33071 -11.07165,49.96038 -0.0972,38.21415 8.13683,58.27552 32.0065,77.95077 21.27256,17.53472 50.3627,20.78246 74.47288,8.31434 z m -50.68143,337.59012 c 37.41403,-5.26341 83.68062,-11.00685 102.81474,-12.76354 19.13364,-1.75668 37.05108,-4.59188 39.81583,-6.30062 8.48327,-5.24315 -2.75261,-42.04431 -23.02518,-75.41326 -33.01521,-54.34478 -93.9175,-130.02302 -99.63456,-123.80791 -1.00905,1.0965 -10.5974,19.48721 -21.30754,40.86666 -17.60695,35.14701 -66.57658,112.31079 -100.839096,158.8971 -7.835563,10.65392 -12.005043,21.1778 -10.22618,25.81277 3.313337,8.63422 -4.321553,9.1295 112.401986,-7.2912 z M 46.414957,824.21973 C 24.624439,804.25018 25.366889,801.70976 69.044614,746.74561 105.24391,701.19233 146.67729,634.09826 172.73349,578.83854 c 15.85432,-33.62356 18.75318,-44.25773 16.55693,-60.73707 -1.5322,-11.49308 -6.19031,-22.04044 -10.96959,-24.8358 -32.90103,-19.24475 -49.33211,-36.56972 -65.21025,-68.7568 -13.424355,-27.21297 -20.220102,-35.65364 -32.263052,-40.0727 -26.783097,-9.82791 -26.378341,-39.36897 0.53935,-39.36897 14.334446,0 16.632249,-2.1096 24.372082,-22.37619 13.79704,-36.12771 32.5337,-53.90909 60.91735,-57.81294 l 24.17774,-3.32531 0,-25.67333 c 0,-32.13331 8.54205,-41.653 26.70001,-29.75566 10.79079,7.0706 12.19261,11.40756 12.35731,38.23181 l 0.18465,30.25661 40.90958,42.51596 c 37.41939,38.88922 42.49214,42.51595 59.47035,42.51595 10.20868,0 23.4207,3.4037 29.3603,7.56395 14.18332,9.93432 14.10995,25.59218 -0.1295,28.48083 -37.35524,7.57577 -36.28723,6.82815 -41.96348,29.37019 -7.34481,29.16967 -29.26265,52.93211 -60.92756,66.0565 -24.19132,10.0268 -26.287,12.20751 -29.19217,30.37372 -2.73901,17.13142 -1.28601,21.74097 11.66539,36.97496 69.23785,81.44664 121.62674,161.37015 136.72695,208.58812 11.33305,35.4379 11.34617,35.7492 1.8051,42.82353 -5.58344,4.13984 -15.71972,6.19469 -24.18793,4.90318 -17.56128,-2.67826 -129.69213,8.46999 -187.0702,18.59867 -22.71567,4.00978 -54.99912,7.29363 -71.741179,7.29719 -27.826804,0.005 -31.981701,-1.40585 -48.403064,-16.45521 z" />
  </g>
</svg>
