<?xml version="1.0" encoding="UTF-8" standalone="no"?>
<!-- Created with Inkscape (http://www.inkscape.org/) -->

<svg
   xmlns:dc="http://purl.org/dc/elements/1.1/"
   xmlns:cc="http://creativecommons.org/ns#"
   xmlns:rdf="http://www.w3.org/1999/02/22-rdf-syntax-ns#"
   xmlns:svg="http://www.w3.org/2000/svg"
   xmlns="http://www.w3.org/2000/svg"
   xmlns:sodipodi="http://sodipodi.sourceforge.net/DTD/sodipodi-0.dtd"
   xmlns:inkscape="http://www.inkscape.org/namespaces/inkscape"
   width="118.32327mm"
   height="128.62444mm"
   viewBox="0 0 419.25569 455.75587"
   id="svg5358"
   version="1.1"
   inkscape:version="0.91 r13725"
   sodipodi:docname="kalama.svg">
  <defs
     id="defs5360" />
  <sodipodi:namedview
     id="base"
     pagecolor="#ffffff"
     bordercolor="#666666"
     borderopacity="1.0"
     inkscape:pageopacity="0.0"
     inkscape:pageshadow="2"
     inkscape:zoom="0.35"
     inkscape:cx="224.62803"
     inkscape:cy="250.73506"
     inkscape:document-units="px"
     inkscape:current-layer="layer1"
     showgrid="false"
     fit-margin-top="0"
     fit-margin-left="0"
     fit-margin-right="0"
     fit-margin-bottom="0"
     inkscape:window-width="1600"
     inkscape:window-height="871"
     inkscape:window-x="0"
     inkscape:window-y="0"
     inkscape:window-maximized="1" />
  <metadata
     id="metadata5363">
    <rdf:RDF>
      <cc:Work
         rdf:about="">
        <dc:format>image/svg+xml</dc:format>
        <dc:type
           rdf:resource="http://purl.org/dc/dcmitype/StillImage" />
        <dc:title></dc:title>
      </cc:Work>
    </rdf:RDF>
  </metadata>
  <g
     inkscape:label="Layer 1"
     inkscape:groupmode="layer"
     id="layer1"
     transform="translate(-150.37197,-327.3414)">
    <path
       inkscape:connector-curvature="0"
       id="path3845"
       style="fill:#FFFFFF;fill-opacity: 0.3;"
       d="m 387.33966,437.95825 c -16.776,-6.34805 -27.8631,-36.7395 -27.8631,-76.37846 0,-24.79676 2.2628,-30.73958 12.7428,-33.48025 22.4119,-5.86109 38.2029,22.74026 38.2029,69.19596 0,43.68022 -2.6725,48.38676 -23.0826,40.66275 z m -158.9082,-10.22757 c -39.1773,-39.17683 -52.7564,-85.04793 -25.1757,-85.04793 11.5817,0 22.2208,8.80194 40.4233,33.44056 13.5877,18.39246 29.4381,37.37038 35.2247,42.17308 5.7887,4.8029 10.5224,14.11302 10.5224,20.68926 0,21.64493 -34.4541,15.28754 -60.9947,-11.25497 z m 275.9262,37.92739 c -19.2086,-5.02027 -19.3466,-29.36935 -0.4458,-78.34114 21.0045,-54.41384 33.2761,-65.64886 52.6057,-48.1558 7.211,6.52509 13.1101,16.85348 13.1101,22.95232 0,13.38811 -44.2973,108.24118 -50.0606,107.19488 -2.2394,-0.40544 -9.0832,-2.04844 -15.2094,-3.65026 z m -89.1571,258.34594 c 16.0012,-7.74545 34.2567,-23.36625 42.7965,-36.61723 19.8137,-30.74489 44.0702,-99.77676 39.3662,-112.03451 -3.2266,-8.40668 -24.437,-9.78201 -150.8524,-9.78201 -137.1076,0 -146.8722,0.75782 -143.7858,11.14438 1.8256,6.12941 5.292,19.74146 7.7119,30.24902 6.6442,28.82487 37.5661,87.34919 54.4737,103.10075 21.601,20.12399 41.818,26.58688 84.5954,27.0439 26.1564,0.2802 46.3818,-3.75491 65.6945,-13.1043 z m -136.1355,45.06618 c -59.9185,-29.65977 -103.3348,-97.48614 -121.5352,-189.86494 -9.546,-48.45617 -9.5417,-53.23637 0,-62.83411 9.183,-9.18339 16.1413,-9.51284 59.9695,-2.84129 27.2708,4.1508 113.4051,7.52808 191.4115,7.50494 l 141.8308,-0.0425 7.0687,15.51488 c 5.8948,12.93957 3.0801,26.71062 -16.9649,82.97019 -34.1613,95.88472 -51.4701,120.70569 -100.2739,143.79365 -50.8184,24.04133 -119.7119,26.51403 -161.5616,5.79873 z" />
  </g>
</svg>
