<?xml version="1.0" encoding="UTF-8" standalone="no"?>
<!-- Created with Inkscape (http://www.inkscape.org/) -->

<svg
   xmlns:dc="http://purl.org/dc/elements/1.1/"
   xmlns:cc="http://creativecommons.org/ns#"
   xmlns:rdf="http://www.w3.org/1999/02/22-rdf-syntax-ns#"
   xmlns:svg="http://www.w3.org/2000/svg"
   xmlns="http://www.w3.org/2000/svg"
   xmlns:sodipodi="http://sodipodi.sourceforge.net/DTD/sodipodi-0.dtd"
   xmlns:inkscape="http://www.inkscape.org/namespaces/inkscape"
   width="80.204918mm"
   height="84.666664mm"
   viewBox="0 0 284.19065 299.99999"
   id="svg5628"
   version="1.1"
   inkscape:version="0.91 r13725"
   sodipodi:docname="ko.svg">
  <defs
     id="defs5630" />
  <sodipodi:namedview
     id="base"
     pagecolor="#ffffff"
     bordercolor="#666666"
     borderopacity="1.0"
     inkscape:pageopacity="0.0"
     inkscape:pageshadow="2"
     inkscape:zoom="0.35"
     inkscape:cx="236.91429"
     inkscape:cy="-337.18453"
     inkscape:document-units="px"
     inkscape:current-layer="layer1"
     showgrid="false"
     fit-margin-top="0"
     fit-margin-left="0"
     fit-margin-right="0"
     fit-margin-bottom="0"
     inkscape:window-width="1600"
     inkscape:window-height="871"
     inkscape:window-x="0"
     inkscape:window-y="0"
     inkscape:window-maximized="1" />
  <metadata
     id="metadata5633">
    <rdf:RDF>
      <cc:Work
         rdf:about="">
        <dc:format>image/svg+xml</dc:format>
        <dc:type
           rdf:resource="http://purl.org/dc/dcmitype/StillImage" />
        <dc:title></dc:title>
      </cc:Work>
    </rdf:RDF>
  </metadata>
  <g
     inkscape:label="Layer 1"
     inkscape:groupmode="layer"
     id="layer1"
     transform="translate(-138.08571,104.82232)">
    <path
       inkscape:connector-curvature="0"
       id="path4263"
       style="fill:#FFFFFF;fill-opacity: 0.3;"
       d="m 282.46193,162.47039 c 8.53721,-4.17155 21.7647,-14.28163 31.19238,-23.84096 18.38055,-18.63738 24.32145,-20.16202 49.17603,-12.62228 7.1045,2.15538 17.42396,3.91867 22.93208,3.91867 11.53779,0 14.66433,-3.96577 17.09231,-21.6798 1.47095,-10.732139 0.58593,-12.79068 -15.86722,-36.887678 -9.58389,-14.03665 -18.67694,-28.803512 -20.20692,-32.815599 -4.53003,-11.878906 -3.27214,-37.4773789 2.67385,-54.413563 3.00128,-8.548349 5.45681,-20.580402 5.45681,-26.737866 0,-9.397238 -1.37359,-12.35361 -8.55203,-18.406344 -14.65994,-12.361504 -24.19393,-14.985268 -47.08943,-12.958304 -13.58879,1.20281 -24.85089,0.696442 -33.43494,-1.503842 -11.04335,-2.830329 -16.36605,-2.637711 -36.24834,1.31096 -12.81726,2.545349 -26.5535,6.308243 -30.52489,8.362047 -9.23724,4.776771 -11.6562,14.66029 -7.29256,29.796863 7.24704,25.137979 6.72839,29.3211071 -5.33453,43.0254116 -6.06537,6.8905704 -16.52437,16.2236024 -23.24215,20.7403914 -20.8988,14.050859 -26.68691,20.650134 -26.68691,30.427082 0,12.055736 5.66373,22.060299 17.60676,31.101246 17.25344,13.060665 35.31095,30.937575 39.6367,39.240415 2.28571,4.38732 6.10124,14.48977 8.4787,22.44974 2.9862,9.99772 6.30851,15.52892 10.74478,17.88875 9.43153,5.01702 32.13924,2.08275 49.48952,-6.39534 z m -51.45404,30.48997 C 219.69491,189.48403 212.78233,179.9618 206.47461,159.16615 198.6863,133.48847 196.49513,130.43631 175.8471,116.50308 148.00616,97.716235 138.08571,80.570329 138.08571,51.238697 c 0,-18.920782 2.64841,-22.582631 31.819,-43.9932389 12.92848,-9.4890731 24.64793,-19.3860121 26.04318,-21.9931981 1.75461,-3.278455 1.23527,-8.559402 -1.68462,-17.128802 -4.50161,-13.211444 -3.66597,-33.395559 1.80602,-43.620107 1.64453,-3.072943 9.69721,-8.514404 17.8948,-12.092575 8.19758,-3.577908 17.9619,-8.151798 21.69839,-10.163763 14.98308,-8.068383 28.82377,-9.171203 45.32788,-3.611323 12.77779,4.304696 19.28944,4.914916 37.05443,3.473438 20.45313,-1.659357 22.35282,-1.344643 37.24564,6.173253 18.74421,9.461969 29.19787,19.263389 35.72803,33.498709 6.45297,14.066911 6.16571,22.62026 -1.63454,48.6808053 -10.11289,33.7868467 -9.29233,38.0268137 13.62352,70.3942867 14.99474,21.179308 19.26892,31.707782 19.26892,47.465098 0,15.15526 -6.30018,35.13465 -12.98734,41.1866 -8.03233,7.26896 -21.83479,7.85734 -41.83383,1.78277 -10.09754,-3.06716 -19.58003,-5.57646 -21.07221,-5.57646 -1.49209,0 -10.18929,6.56375 -19.32689,14.58583 -30.76013,27.00547 -70.48884,40.51479 -96.0482,32.66034 z" />
  </g>
</svg>
