<?xml version="1.0" encoding="UTF-8" standalone="no"?>
<!-- Created with Inkscape (http://www.inkscape.org/) -->

<svg
   xmlns:dc="http://purl.org/dc/elements/1.1/"
   xmlns:cc="http://creativecommons.org/ns#"
   xmlns:rdf="http://www.w3.org/1999/02/22-rdf-syntax-ns#"
   xmlns:svg="http://www.w3.org/2000/svg"
   xmlns="http://www.w3.org/2000/svg"
   xmlns:sodipodi="http://sodipodi.sourceforge.net/DTD/sodipodi-0.dtd"
   xmlns:inkscape="http://www.inkscape.org/namespaces/inkscape"
   width="77.187103mm"
   height="84.666664mm"
   viewBox="0 0 273.49761 299.99999"
   id="svg5763"
   version="1.1"
   inkscape:version="0.91 r13725"
   sodipodi:docname="kulupu.svg">
  <defs
     id="defs5765" />
  <sodipodi:namedview
     id="base"
     pagecolor="#ffffff"
     bordercolor="#666666"
     borderopacity="1.0"
     inkscape:pageopacity="0.0"
     inkscape:pageshadow="2"
     inkscape:zoom="0.35"
     inkscape:cx="418.82471"
     inkscape:cy="-143.54552"
     inkscape:document-units="px"
     inkscape:current-layer="layer1"
     showgrid="false"
     fit-margin-top="0"
     fit-margin-left="0"
     fit-margin-right="0"
     fit-margin-bottom="0"
     inkscape:window-width="1600"
     inkscape:window-height="871"
     inkscape:window-x="0"
     inkscape:window-y="0"
     inkscape:window-maximized="1" />
  <metadata
     id="metadata5768">
    <rdf:RDF>
      <cc:Work
         rdf:about="">
        <dc:format>image/svg+xml</dc:format>
        <dc:type
           rdf:resource="http://purl.org/dc/dcmitype/StillImage" />
        <dc:title></dc:title>
      </cc:Work>
    </rdf:RDF>
  </metadata>
  <g
     inkscape:label="Layer 1"
     inkscape:groupmode="layer"
     id="layer1"
     transform="translate(43.824706,-88.816692)">
    <path
       inkscape:connector-curvature="0"
       id="path4215"
       style="fill:#FFFFFF;fill-opacity: 0.3;"
       d="m 97.456937,190.4949 c 20.794723,-12.67923 29.698183,-39.43232 19.613573,-58.93435 -4.67297,-9.03618 -7.4751,-10.49698 -24.124713,-12.57731 -18.60186,-2.32424 -18.97583,-2.20311 -29.82626,9.63651 -9.5402,10.41059 -10.98644,14.28598 -10.97585,29.41357 0.0331,24.06017 9.16623,38.93954 23.93275,38.92266 5.94249,0 15.56344,-2.91432 21.3805,-6.46108 z m -27.12342,33.8241 c -22.56727,-5.61849 -44.71953,-36.37404 -44.59873,-61.92083 0.12576,-26.78849 4.96983,-41.31573 18.34107,-55.00899 17.93931,-18.371527 27.63076,-21.551927 49.60762,-16.279943 9.898623,2.374544 22.409743,7.000851 27.802853,10.280533 23.49922,14.29095 31.43234,57.47389 16.19489,88.15664 -11.6126,23.38338 -44.626873,40.42913 -67.347703,34.77259 z M 193.70225,353.97969 c 9.73017,-6.81519 9.99361,-29.65416 0.55489,-48.15476 -6.30752,-12.36351 -7.56611,-13.17532 -17.37471,-11.20487 -15.6988,3.1536 -25.46736,15.66703 -25.46736,32.62343 0,25.7341 22.97665,40.26134 42.28674,26.7362 z m -37.46352,25.4624 c -25.52527,-15.56576 -38.30412,-43.85874 -31.59484,-69.95258 6.70532,-26.07762 23.01802,-42.26159 45.65942,-45.29836 11.95017,-1.6031 14.78042,-0.49862 26.98442,10.52676 19.25515,17.39589 34.90133,50.10304 32.04791,66.99325 -4.48996,26.57504 -23.44395,43.84616 -48.13491,43.86205 -8.69662,0 -19.08206,-2.54531 -24.962,-6.13112 z M 39.483977,350.29228 c 11.68838,-11.19825 18.16236,-30.49808 13.28619,-39.60905 -3.0189,-5.64099 -6.69539,-6.31446 -30.94916,-5.66945 -24.2196899,0.64425 -28.2608799,1.64249 -33.66723,8.31868 -8.80782,10.87757 -5.33023,28.30358 8.0562401,40.36692 8.70324,7.84311 12.48795,9.13711 22.1429999,7.57041 6.40481,-1.03917 15.91391,-5.97922 21.13096,-10.97751 z M -5.7842629,382.83727 C -27.854453,369.37799 -43.769693,343.05381 -43.824623,319.91798 c -0.0331,-12.54421 9.81125,-29.68495 21.0181,-36.60736 8.66287,-5.35142 16.1058601,-6.36643 44.48688,-6.06626 l 34.08323,0.36073 10.9593,12.13053 c 6.02754,6.67156 11.97532,17.5468 13.21736,24.16707 8.57053,45.68523 -48.54098,91.61106 -85.7245099,68.93491 z" />
  </g>
</svg>
