<?xml version="1.0" encoding="UTF-8" standalone="no"?>
<!-- Created with Inkscape (http://www.inkscape.org/) -->

<svg
   xmlns:dc="http://purl.org/dc/elements/1.1/"
   xmlns:cc="http://creativecommons.org/ns#"
   xmlns:rdf="http://www.w3.org/1999/02/22-rdf-syntax-ns#"
   xmlns:svg="http://www.w3.org/2000/svg"
   xmlns="http://www.w3.org/2000/svg"
   xmlns:sodipodi="http://sodipodi.sourceforge.net/DTD/sodipodi-0.dtd"
   xmlns:inkscape="http://www.inkscape.org/namespaces/inkscape"
   width="60.514538mm"
   height="84.666664mm"
   viewBox="0 0 214.42159 299.99999"
   id="svg5940"
   version="1.1"
   inkscape:version="0.91 r13725"
   sodipodi:docname="laso.svg">
  <defs
     id="defs5942" />
  <sodipodi:namedview
     id="base"
     pagecolor="#ffffff"
     bordercolor="#666666"
     borderopacity="1.0"
     inkscape:pageopacity="0.0"
     inkscape:pageshadow="2"
     inkscape:zoom="0.35"
     inkscape:cx="297.25171"
     inkscape:cy="-190.5715"
     inkscape:document-units="px"
     inkscape:current-layer="layer1"
     showgrid="false"
     fit-margin-top="0"
     fit-margin-left="0"
     fit-margin-right="0"
     fit-margin-bottom="0"
     inkscape:window-width="1600"
     inkscape:window-height="871"
     inkscape:window-x="0"
     inkscape:window-y="0"
     inkscape:window-maximized="1" />
  <metadata
     id="metadata5945">
    <rdf:RDF>
      <cc:Work
         rdf:about="">
        <dc:format>image/svg+xml</dc:format>
        <dc:type
           rdf:resource="http://purl.org/dc/dcmitype/StillImage" />
        <dc:title></dc:title>
      </cc:Work>
    </rdf:RDF>
  </metadata>
  <g
     inkscape:label="Layer 1"
     inkscape:groupmode="layer"
     id="layer1"
     transform="translate(-77.748293,-41.790709)">
    <path
       inkscape:connector-curvature="0"
       id="path4239"
       style="fill:#FFFFFF;fill-opacity: 0.3;"
       d="m 249.51389,106.56498 c 12.8299,-6.578469 22.9188,-39.919281 13.7877,-45.562856 -9.8987,-6.117563 -32.2648,10.278849 -43.0482,31.557487 -6.6814,13.184589 -6.8587,14.561079 -2.2188,17.157759 5.4382,3.04363 22.7821,1.30666 31.4793,-3.15239 z m -88.7838,0.84199 c 4.9112,-5.42664 4.8716,-6.36333 -0.8123,-19.205275 -4.1653,-9.417053 -8.2366,-14.068969 -13.4599,-15.379791 -7.5481,-1.894465 -26.9276,2.893852 -33.8052,8.35229 -6.0157,4.77435 -4.2693,16.794027 3.58,24.643506 9.6045,9.60516 36.3747,10.56146 44.4944,1.58927 z m 104.6141,205.76807 c -2.628,-19.17437 -15.4816,-41.16948 -35.5347,-60.80655 -25.4022,-24.8747 -44.645,-32.4276 -53.8375,-21.13124 -2.3269,2.86028 -14.1137,18.5732 -26.1917,34.9176 -12.079,16.34441 -24.265,31.60414 -27.0812,33.91079 -2.8162,2.30634 -7.8285,7.99717 -11.139,12.64641 l -6.0187,8.45243 6.9004,2.64096 c 3.7948,1.45228 40.1666,2.68702 80.8255,2.74378 l 73.9243,0.10401 -1.8474,-13.4773 z m -176.326504,23.6358 c -5.2371,-2.60827 -10.2712,-6.69319 -11.1855,-9.07769 -1.0391,-2.70604 7.6274,-14.53523 23.055504,-31.47101 30.1887,-33.13873 47.1868,-55.52938 65.4431,-86.20308 13.1884,-22.15826 13.9313,-24.56624 13.9313,-45.12513 0,-11.94508 -1.361,-25.29965 -3.0252,-29.67698 -2.5715,-6.76243 -4.2465,-7.67088 -11.1439,-6.04327 -24.6771,5.82247 -31.6804,5.33541 -48.216,-3.35447 C 98.630186,115.7441 88.139086,101.83947 88.139086,86.44482 c 0,-13.471953 7.7988,-21.38859 27.592304,-28.010452 30.6889,-10.266666 42.9621,-5.46349 59.982,23.474433 6.73,11.44109 13.5144,20.801969 15.0785,20.801969 1.5641,0 6.9122,-7.661069 11.8849,-17.024331 15.2339,-28.683544 33.2286,-43.89573 51.9256,-43.89573 12.4505,0 19.2686,4.072729 27.7737,16.587791 6.2336,9.17367 6.7814,12.054149 4.3515,22.867609 -3.2847,14.622302 -10.6635,27.258901 -22.5622,38.641741 -7.1925,6.87981 -12.5049,8.69582 -31.7597,10.85507 -31.6784,3.55238 -32.8641,5.08133 -31.8874,41.08895 0.4359,15.92005 1.5096,31.34649 2.3952,34.28106 0.8816,2.93456 10.2326,12.44938 20.7732,21.14372 22.0828,18.2145 43.8249,44.8648 52.3428,64.15774 3.2471,7.35499 8.5615,18.94317 11.8105,25.75166 3.5512,7.44265 5.1233,14.84904 3.9415,18.57319 -1.9405,6.114 -3.2035,6.19185 -97.6038,6.00404 -81.3407,-0.16047 -97.061104,-0.89844 -105.160004,-4.93244 z" />
  </g>
</svg>
