<?xml version="1.0" encoding="UTF-8" standalone="no"?>
<!-- Created with Inkscape (http://www.inkscape.org/) -->

<svg
   xmlns:dc="http://purl.org/dc/elements/1.1/"
   xmlns:cc="http://creativecommons.org/ns#"
   xmlns:rdf="http://www.w3.org/1999/02/22-rdf-syntax-ns#"
   xmlns:svg="http://www.w3.org/2000/svg"
   xmlns="http://www.w3.org/2000/svg"
   xmlns:sodipodi="http://sodipodi.sourceforge.net/DTD/sodipodi-0.dtd"
   xmlns:inkscape="http://www.inkscape.org/namespaces/inkscape"
   width="56.506462mm"
   height="84.666656mm"
   viewBox="0 0 200.21975 299.99996"
   id="svg4988"
   version="1.1"
   inkscape:version="0.91 r13725"
   sodipodi:docname="lupa.svg">
  <defs
     id="defs4990" />
  <sodipodi:namedview
     id="base"
     pagecolor="#ffffff"
     bordercolor="#666666"
     borderopacity="1.0"
     inkscape:pageopacity="0.0"
     inkscape:pageshadow="2"
     inkscape:zoom="0.35"
     inkscape:cx="356.21815"
     inkscape:cy="-173.90322"
     inkscape:document-units="px"
     inkscape:current-layer="layer1"
     showgrid="false"
     fit-margin-top="0"
     fit-margin-left="0"
     fit-margin-right="0"
     fit-margin-bottom="0"
     inkscape:window-width="1600"
     inkscape:window-height="871"
     inkscape:window-x="0"
     inkscape:window-y="0"
     inkscape:window-maximized="1" />
  <metadata
     id="metadata4993">
    <rdf:RDF>
      <cc:Work
         rdf:about="">
        <dc:format>image/svg+xml</dc:format>
        <dc:type
           rdf:resource="http://purl.org/dc/dcmitype/StillImage" />
        <dc:title></dc:title>
      </cc:Work>
    </rdf:RDF>
  </metadata>
  <g
     inkscape:label="Layer 1"
     inkscape:groupmode="layer"
     id="layer1"
     transform="translate(-18.781855,-58.45902)">
    <path
       inkscape:connector-curvature="0"
       style="fill:#FFFFFF;fill-opacity: 0.3;"
       d="m 95.698657,351.84849 c -17.22293,-8.5256 -39.47008,-33.5429 -50.31586,-56.5825 -17.55978,-37.301 -29.11515,-115.9157 -26.13228,-177.78203 1.95791,-40.608154 3.89342,-50.619574 9.78707,-50.619574 7.35517,0 10.67981,19.19453 10.67981,61.657714 0,124.18059 29.5698,199.10979 78.575383,199.10979 23.51202,0 46.00828,-20.4974 58.92057,-53.6874 11.7057,-30.0875 13.84215,-49.7013 14.1066,-129.5074 0.22395,-67.994874 0.87638,-77.974594 5.38715,-82.484334 6.1084,-6.1081 12.78098,-4.16819 18.97006,5.51395 3.86488,6.04674 4.1459,19.47984 1.9441,92.967194 -2.3736,79.22419 -3.19302,88.00849 -10.54452,113.03099 -10.31565,35.1126 -14.53241,42.8814 -33.51813,61.7517 -23.5697,23.4251 -51.90653,29.479 -77.859953,16.6319 z"
       id="path4595" />
  </g>
</svg>
