<?xml version="1.0" encoding="UTF-8" standalone="no"?>
<!-- Created with Inkscape (http://www.inkscape.org/) -->

<svg
   xmlns:dc="http://purl.org/dc/elements/1.1/"
   xmlns:cc="http://creativecommons.org/ns#"
   xmlns:rdf="http://www.w3.org/1999/02/22-rdf-syntax-ns#"
   xmlns:svg="http://www.w3.org/2000/svg"
   xmlns="http://www.w3.org/2000/svg"
   xmlns:sodipodi="http://sodipodi.sourceforge.net/DTD/sodipodi-0.dtd"
   xmlns:inkscape="http://www.inkscape.org/namespaces/inkscape"
   width="71.034981mm"
   height="84.666664mm"
   viewBox="0 0 251.69875 299.99999"
   id="svg5072"
   version="1.1"
   inkscape:version="0.91 r13725"
   sodipodi:docname="mama.svg">
  <defs
     id="defs5074" />
  <sodipodi:namedview
     id="base"
     pagecolor="#ffffff"
     bordercolor="#666666"
     borderopacity="1.0"
     inkscape:pageopacity="0.0"
     inkscape:pageshadow="2"
     inkscape:zoom="0.35"
     inkscape:cx="323.76578"
     inkscape:cy="-99.884047"
     inkscape:document-units="px"
     inkscape:current-layer="layer1"
     showgrid="false"
     fit-margin-top="0"
     fit-margin-left="0"
     fit-margin-right="0"
     fit-margin-bottom="0"
     inkscape:window-width="1600"
     inkscape:window-height="871"
     inkscape:window-x="0"
     inkscape:window-y="0"
     inkscape:window-maximized="1" />
  <metadata
     id="metadata5077">
    <rdf:RDF>
      <cc:Work
         rdf:about="">
        <dc:format>image/svg+xml</dc:format>
        <dc:type
           rdf:resource="http://purl.org/dc/dcmitype/StillImage" />
        <dc:title></dc:title>
      </cc:Work>
    </rdf:RDF>
  </metadata>
  <g
     inkscape:label="Layer 1"
     inkscape:groupmode="layer"
     id="layer1"
     transform="translate(-51.234216,-132.47816)">
    <path
       inkscape:connector-curvature="0"
       id="path4977"
       style="fill:#FFFFFF;fill-opacity: 0.3;"
       d="m 210.08944,348.79111 c 27.51801,-8.2213 50.82016,-28.2341 64.49623,-55.3908 8.89453,-17.6628 9.13458,-18.9102 7.56511,-39.3291 -3.54922,-46.1741 -26.37224,-89.10046 -52.7233,-99.16351 -12.66697,-4.83758 -42.88321,-4.01475 -53.08668,1.44605 -2.93323,1.57069 -15.60613,3.80818 -28.16197,4.97443 -26.66188,2.47632 -38.89042,7.91185 -54.496287,24.22191 -17.78173,18.58412 -23.03335,31.31792 -23.02489,55.82662 0.005,19.0138 0.94067,22.9484 9.59611,40.4143 17.46001,35.2341 41.721847,56.4646 77.545067,67.8569 15.15035,4.8175 34.34928,4.5037 52.29061,-0.8629 z m -20.85896,55.5136 c 10.63893,-5.3126 13.22351,-15.0749 6.6478,-25.111 -4.83872,-7.3853 -13.68208,-8.2395 -24.95156,-2.4118 -13.51481,6.9888 -17.0011,20.7258 -7.6365,30.0907 5.79682,5.7972 10.02295,5.3788 25.94026,-2.5679 z m -27.5065,24.8408 c -20.74478,-9.0354 -30.54903,-37.8011 -20.96696,-61.5166 1.11674,-2.764 -2.44067,-6.1529 -12.12812,-11.5536 -29.454257,-16.4233 -61.340557,-54.3988 -72.492537,-86.3356 -7.46052,-21.3647 -6.26602,-54.2968 2.63234,-72.5698 9.08455,-18.6548 31.44481,-41.60848 47.088247,-48.33751 17.71436,-7.62072 90.70321,-18.42553 108.14352,-16.00935 16.92579,2.34557 37.43471,13.00917 47.86445,24.88784 10.96501,12.48881 30.33496,51.40392 35.17821,70.67492 7.26448,28.9052 7.72976,45.0453 1.83436,63.6295 -2.95712,9.3212 -9.47513,22.5021 -14.48477,29.2904 -11.5009,15.5849 -34.81448,33.9869 -52.81212,41.6878 -12.57702,5.3798 -13.72784,6.553 -12.22392,12.4574 0.91322,3.5851 2.2293,11.8133 2.92487,18.2852 1.59474,14.8379 -4.15205,22.8665 -23.143,32.3299 -14.95581,7.4534 -25.40045,8.3128 -37.41457,3.0795 z" />
  </g>
</svg>
