<?xml version="1.0" encoding="UTF-8" standalone="no"?>
<!-- Created with Inkscape (http://www.inkscape.org/) -->

<svg
   xmlns:dc="http://purl.org/dc/elements/1.1/"
   xmlns:cc="http://creativecommons.org/ns#"
   xmlns:rdf="http://www.w3.org/1999/02/22-rdf-syntax-ns#"
   xmlns:svg="http://www.w3.org/2000/svg"
   xmlns="http://www.w3.org/2000/svg"
   xmlns:sodipodi="http://sodipodi.sourceforge.net/DTD/sodipodi-0.dtd"
   xmlns:inkscape="http://www.inkscape.org/namespaces/inkscape"
   width="100.78526mm"
   height="84.666664mm"
   viewBox="0 0 357.11311 299.99999"
   id="svg5114"
   version="1.1"
   inkscape:version="0.91 r13725"
   sodipodi:docname="mani.svg">
  <defs
     id="defs5116" />
  <sodipodi:namedview
     id="base"
     pagecolor="#ffffff"
     bordercolor="#666666"
     borderopacity="1.0"
     inkscape:pageopacity="0.0"
     inkscape:pageshadow="2"
     inkscape:zoom="0.35"
     inkscape:cx="373.85843"
     inkscape:cy="-177.98637"
     inkscape:document-units="px"
     inkscape:current-layer="layer1"
     showgrid="false"
     fit-margin-top="0"
     fit-margin-left="0"
     fit-margin-right="0"
     fit-margin-bottom="0"
     inkscape:window-width="1600"
     inkscape:window-height="871"
     inkscape:window-x="0"
     inkscape:window-y="0"
     inkscape:window-maximized="1" />
  <metadata
     id="metadata5119">
    <rdf:RDF>
      <cc:Work
         rdf:about="">
        <dc:format>image/svg+xml</dc:format>
        <dc:type
           rdf:resource="http://purl.org/dc/dcmitype/StillImage" />
        <dc:title></dc:title>
      </cc:Work>
    </rdf:RDF>
  </metadata>
  <g
     inkscape:label="Layer 1"
     inkscape:groupmode="layer"
     id="layer1"
     transform="translate(-1.1415686,-54.375831)">
    <path
       inkscape:connector-curvature="0"
       id="path4931"
       style="fill:#FFFFFF;fill-opacity: 0.3;"
       d="m 230.56661,323.08454 c 41.02965,-20.79135 66.66254,-85.55331 52.77298,-133.3315 -6.94405,-23.88656 -17.79921,-36.70784 -40.46909,-47.79932 -15.97463,-7.81581 -21.74449,-8.77324 -50.89814,-8.44585 -18.08466,0.20349 -38.28778,-0.56326 -44.89579,-1.70226 -9.64589,-1.66313 -13.79985,-0.52616 -21.07117,5.76402 -18.91572,16.36509 -23.38863,91.30821 -7.93633,132.97397 18.21856,49.12541 70.78737,73.6772 112.49754,52.54094 z m -72.88233,27.2126 c -18.16572,-5.79662 -51.4568,-39.24307 -61.417271,-61.70351 -10.9795,-24.75944 -17.32999,-65.09575 -14.86922,-94.44683 1.84244,-21.97733 1.58099,-23.10655 -5.7783,-24.9535 -4.23938,-1.06468 -21.40487,-16.26188 -38.14542,-33.77282 C 3.7487716,100.14338 -4.0256304,84.386966 4.1132146,67.808936 c 9.3398944,-19.02376 26.0928444,-17.49385 26.0928444,2.38289 0,14.80506 45.76851,66.844224 58.78929,66.844224 2.212,0 8.05382,-5.28665 12.982051,-11.74771 12.38821,-16.24187 31.07616,-25.07672 53.04314,-25.07672 30.27118,0 86.67566,9.88772 105.58003,18.50795 l 17.81753,8.1252 19.20713,-9.69592 c 20.63383,-10.41591 25.07233,-14.51982 33.4767,-30.953834 6.43678,-12.58664 14.17546,-17.96335 21.69885,-15.07623 6.92021,2.65541 7.34631,22.49866 0.75438,35.117684 -8.85227,16.9442 -36.64353,37.49494 -50.70578,37.49494 -4.01893,0 -4.84572,1.61322 -3.00293,5.85835 10.39196,23.93906 14.70623,42.09253 14.80225,62.28564 0.29343,61.6121 -32.66441,119.03563 -77.84959,135.63951 -21.43554,7.87663 -59.00818,9.19832 -79.11438,2.78223 z" />
  </g>
</svg>
