<?xml version="1.0" encoding="UTF-8" standalone="no"?>
<!-- Created with Inkscape (http://www.inkscape.org/) -->

<svg
   xmlns:dc="http://purl.org/dc/elements/1.1/"
   xmlns:cc="http://creativecommons.org/ns#"
   xmlns:rdf="http://www.w3.org/1999/02/22-rdf-syntax-ns#"
   xmlns:svg="http://www.w3.org/2000/svg"
   xmlns="http://www.w3.org/2000/svg"
   xmlns:sodipodi="http://sodipodi.sourceforge.net/DTD/sodipodi-0.dtd"
   xmlns:inkscape="http://www.inkscape.org/namespaces/inkscape"
   width="98.581917mm"
   height="84.666664mm"
   viewBox="0 0 349.306 299.99999"
   id="svg5156"
   version="1.1"
   inkscape:version="0.91 r13725"
   sodipodi:docname="meli.svg">
  <defs
     id="defs5158" />
  <sodipodi:namedview
     id="base"
     pagecolor="#ffffff"
     bordercolor="#666666"
     borderopacity="1.0"
     inkscape:pageopacity="0.0"
     inkscape:pageshadow="2"
     inkscape:zoom="0.35"
     inkscape:cx="229.34227"
     inkscape:cy="-97.060224"
     inkscape:document-units="px"
     inkscape:current-layer="layer1"
     showgrid="false"
     fit-margin-top="0"
     fit-margin-left="0"
     fit-margin-right="0"
     fit-margin-bottom="0"
     inkscape:window-width="1600"
     inkscape:window-height="871"
     inkscape:window-x="0"
     inkscape:window-y="0"
     inkscape:window-maximized="1" />
  <metadata
     id="metadata5161">
    <rdf:RDF>
      <cc:Work
         rdf:about="">
        <dc:format>image/svg+xml</dc:format>
        <dc:type
           rdf:resource="http://purl.org/dc/dcmitype/StillImage" />
        <dc:title></dc:title>
      </cc:Work>
    </rdf:RDF>
  </metadata>
  <g
     inkscape:label="Layer 1"
     inkscape:groupmode="layer"
     id="layer1"
     transform="translate(-145.65773,-135.30198)">
    <path
       inkscape:connector-curvature="0"
       id="path4935"
       style="fill:#FFFFFF;fill-opacity: 0.3;"
       d="m 151.72,397.70708 c -6.69456,-6.69456 -6.74698,-7.06239 -5.30598,-37.22681 3.25445,-68.12532 34.97666,-136.42489 82.14428,-176.8613 53.10485,-45.52642 111.33977,-60.03443 154.88433,-38.5863 34.43885,16.96315 73.8256,65.43924 92.412,113.73821 15.6687,40.71673 20.6948,66.90037 18.69047,97.36809 -2.02679,30.80838 -5.09646,42.08249 -12.54321,46.06798 -10.06587,5.38704 -12.4065,-2.62599 -12.4065,-42.472 0,-31.17752 -1.00377,-39.79115 -7.63354,-65.50377 -12.7489,-49.4453 -22.82652,-69.34453 -50.95004,-100.60616 -16.58148,-18.43184 -43.64027,-32.11041 -63.52043,-32.11041 -16.74684,0 -41.68584,5.99913 -56.68924,13.63677 -17.59318,8.95611 -46.46968,29.43634 -58.6024,41.56288 -36.41896,36.40076 -68.0803,119.05133 -63.76739,166.46208 1.14876,12.62786 0.63743,17.13949 -2.14296,18.89999 -5.51557,3.49226 -7.21869,2.98154 -14.56939,-4.36925 z m 182.03604,6.78468 c 38.03752,-14.61407 65.30435,-50.30374 65.30435,-85.47693 0,-13.04218 -9.63508,-40.23813 -19.33521,-54.57528 -10.28218,-15.19742 -21.24549,-21.47425 -41.40475,-23.70603 -7.54254,-0.8351 -17.64559,-3.88309 -22.45129,-6.77371 -8.3685,-5.03333 -9.12949,-5.0686 -18.01202,-0.83249 -17.03003,8.12093 -48.35149,33.72252 -55.98712,45.76259 -12.86689,20.289 -16.61482,36.40729 -13.35802,57.44814 3.23172,20.87889 13.56057,45.21503 23.74817,55.95411 7.20772,7.59793 17.62174,13.91734 29.22501,17.73407 10.15669,3.34127 36.40285,0.56254 52.27088,-5.53412 z m -54.01954,27.56403 c -25.23394,-7.89025 -46.29961,-28.12309 -59.58614,-57.23053 -11.62086,-25.45843 -15.31629,-43.01825 -13.74884,-65.33056 2.39401,-34.07729 16.90201,-55.61921 53.62193,-79.61939 18.55166,-12.12523 28.47115,-15.88083 52.47786,-19.86841 7.5712,-1.25761 8.62104,-0.80027 7.55099,3.2919 -1.10417,4.22217 0.53816,4.73734 14.71787,4.61638 12.80629,-0.10972 18.6337,1.33547 29.48564,7.3103 7.43883,4.09547 16.47062,10.53898 20.07078,14.31887 10.33572,10.85142 24.46136,36.02536 30.65033,54.62335 11.88088,35.70195 1.20911,75.00692 -28.23212,103.98166 -18.12279,17.83543 -40.2295,28.48804 -69.8327,33.65042 -26.59457,4.63781 -23.23614,4.61455 -37.1756,0.25601 z" />
  </g>
</svg>
