<?xml version="1.0" encoding="UTF-8" standalone="no"?>
<!-- Created with Inkscape (http://www.inkscape.org/) -->

<svg
   xmlns:dc="http://purl.org/dc/elements/1.1/"
   xmlns:cc="http://creativecommons.org/ns#"
   xmlns:rdf="http://www.w3.org/1999/02/22-rdf-syntax-ns#"
   xmlns:svg="http://www.w3.org/2000/svg"
   xmlns="http://www.w3.org/2000/svg"
   xmlns:sodipodi="http://sodipodi.sourceforge.net/DTD/sodipodi-0.dtd"
   xmlns:inkscape="http://www.inkscape.org/namespaces/inkscape"
   width="41.741783mm"
   height="84.666664mm"
   viewBox="0 0 147.90396 299.99999"
   id="svg5198"
   version="1.1"
   inkscape:version="0.91 r13725"
   sodipodi:docname="mi.svg">
  <defs
     id="defs5200" />
  <sodipodi:namedview
     id="base"
     pagecolor="#ffffff"
     bordercolor="#666666"
     borderopacity="1.0"
     inkscape:pageopacity="0.0"
     inkscape:pageshadow="2"
     inkscape:zoom="0.35"
     inkscape:cx="319.39024"
     inkscape:cy="-208.15694"
     inkscape:document-units="px"
     inkscape:current-layer="layer1"
     showgrid="false"
     fit-margin-top="0"
     fit-margin-left="0"
     fit-margin-right="0"
     fit-margin-bottom="0"
     inkscape:window-width="1600"
     inkscape:window-height="871"
     inkscape:window-x="0"
     inkscape:window-y="0"
     inkscape:window-maximized="1" />
  <metadata
     id="metadata5203">
    <rdf:RDF>
      <cc:Work
         rdf:about="">
        <dc:format>image/svg+xml</dc:format>
        <dc:type
           rdf:resource="http://purl.org/dc/dcmitype/StillImage" />
        <dc:title></dc:title>
      </cc:Work>
    </rdf:RDF>
  </metadata>
  <g
     inkscape:label="Layer 1"
     inkscape:groupmode="layer"
     id="layer1"
     transform="translate(-55.609755,-24.205256)">
    <path
       inkscape:connector-curvature="0"
       style="fill:#FFFFFF;fill-opacity: 0.3;"
       d="m 134.46267,24.205256 c -13.71074,0 -29.51339,15.43653 -41.294047,40.317526 -29.9297,63.212838 -48.11916,207.622458 -30.87091,245.133898 4.62718,10.06333 8.51917,14.54858 12.63534,14.54858 5.65115,0 6.02441,-3.18088 7.41378,-63.53548 1.13539,-49.32057 2.92639,-70.35856 8.05163,-94.12743 9.761187,-45.26879 8.23172,-42.6376 19.869727,-33.76078 12.528,9.55549 30.02011,16.92029 40.17804,16.92029 10.21221,0 34.73117,-12.53402 44.06431,-22.54041 4.98769,-5.34759 7.80123,-12.68341 8.78897,-22.95889 C 205.07826,85.690053 195.81655,66.712957 174.10265,44.373968 158.21307,28.026634 150.68347,24.205256 134.46267,24.205256 Z m 8.09142,24.672836 c 5.55891,-0.04082 11.47373,3.22812 17.67752,9.765483 25.74721,27.130966 25.36824,54.394995 -0.89693,65.369035 -13.29013,5.55299 -16.18315,5.39676 -27.58249,-1.55457 -11.32913,-6.90818 -22.62011,-21.88982 -22.62011,-30.013893 0,-6.634504 16.41091,-34.168833 23.79591,-39.918961 3.07833,-2.396804 6.29074,-3.623523 9.626,-3.647094 z"
       id="path4953" />
  </g>
</svg>
