<?xml version="1.0" encoding="UTF-8" standalone="no"?>
<!-- Created with Inkscape (http://www.inkscape.org/) -->

<svg
   xmlns:dc="http://purl.org/dc/elements/1.1/"
   xmlns:cc="http://creativecommons.org/ns#"
   xmlns:rdf="http://www.w3.org/1999/02/22-rdf-syntax-ns#"
   xmlns:svg="http://www.w3.org/2000/svg"
   xmlns="http://www.w3.org/2000/svg"
   xmlns:sodipodi="http://sodipodi.sourceforge.net/DTD/sodipodi-0.dtd"
   xmlns:inkscape="http://www.inkscape.org/namespaces/inkscape"
   width="72.103813mm"
   height="84.666672mm"
   viewBox="0 0 255.48595 300.00002"
   id="svg5240"
   version="1.1"
   inkscape:version="0.91 r13725"
   sodipodi:docname="mije.svg">
  <defs
     id="defs5242" />
  <sodipodi:namedview
     id="base"
     pagecolor="#ffffff"
     bordercolor="#666666"
     borderopacity="1.0"
     inkscape:pageopacity="0.0"
     inkscape:pageshadow="2"
     inkscape:zoom="0.35"
     inkscape:cx="316.97986"
     inkscape:cy="-172.32896"
     inkscape:document-units="px"
     inkscape:current-layer="layer1"
     showgrid="false"
     fit-margin-top="0"
     fit-margin-left="0"
     fit-margin-right="0"
     fit-margin-bottom="0"
     inkscape:window-width="1600"
     inkscape:window-height="871"
     inkscape:window-x="0"
     inkscape:window-y="0"
     inkscape:window-maximized="1" />
  <metadata
     id="metadata5245">
    <rdf:RDF>
      <cc:Work
         rdf:about="">
        <dc:format>image/svg+xml</dc:format>
        <dc:type
           rdf:resource="http://purl.org/dc/dcmitype/StillImage" />
        <dc:title></dc:title>
      </cc:Work>
    </rdf:RDF>
  </metadata>
  <g
     inkscape:label="Layer 1"
     inkscape:groupmode="layer"
     id="layer1"
     transform="translate(-58.020136,-60.033227)">
    <path
       inkscape:connector-curvature="0"
       id="path4983"
       style="fill:#FFFFFF;fill-opacity: 0.3;"
       d="m 195.48894,272.87216 c 23.04713,-3.73978 50.29578,-18.58866 68.99382,-37.59702 19.13041,-19.44838 21.97962,-26.93132 21.97584,-57.7181 -0.002,-19.7057 -0.8475,-25.156 -5.16549,-33.31014 -8.23139,-15.54442 -42.79377,-55.183003 -51.16659,-58.681273 -4.12238,-1.72233 -16.61286,-4.40728 -27.75661,-5.96606 -19.69515,-2.75519 -20.69762,-2.65999 -35.85825,3.40922 -30.79716,12.3289 -44.28735,24.961903 -58.33567,54.628643 -7.29916,15.4141 -7.74657,17.85779 -7.74657,42.3129 0,24.54063 0.41891,26.80526 7.69051,41.58776 13.47153,27.38629 35.94305,46.52986 60.26737,51.34234 5.38597,1.06546 10.32263,2.04557 10.9706,2.1777 0.64805,0.13228 7.90697,-0.85144 16.13104,-2.18597 z M 59.713176,356.02957 c -0.93105,-2.26777 -1.69304,-20.07539 -1.69304,-39.57235 0,-50.37665 4.13184,-55.48599 41.06538,-50.78185 10.923284,1.39145 20.252104,2.13808 20.730854,1.65933 0.47875,-0.47875 -4.23853,-7.62161 -10.4831,-15.87309 C 82.829596,216.43953 77.167476,179.66009 91.849116,137.88854 105.79633,98.205947 129.26874,75.971437 169.93356,63.922237 c 11.24084,-3.3308 20.51344,-4.32177 34.85956,-3.72585 24.26283,1.0079 37.38639,6.70324 49.96309,21.68339 39.94859,47.583193 40.3334,48.182813 44.78186,69.760453 6.87695,33.35803 2.53629,68.16026 -10.7465,86.16418 l -5.87794,7.96729 11.66849,5.14943 c 17.61494,7.77413 19.8157,13.70885 18.67394,50.3568 -0.96058,30.8278 -4.37688,42.38227 -12.5319,42.38227 -7.10569,0 -8.76841,-9.09354 -7.06451,-38.63587 1.43744,-24.92064 1.15216,-29.10807 -2.17155,-31.86657 -5.59259,-4.64122 -22.96768,-1.93343 -60.29659,9.39764 -35.93415,10.90769 -57.95755,12.6823 -74.03229,5.96583 -8.48423,-3.54498 -9.48324,-3.54025 -13.46617,0.063 -3.57482,3.23536 -6.99727,3.58852 -20.24879,2.08935 -8.77046,-0.99216 -22.78555,-1.93407 -31.144194,-2.09313 -14.30942,-0.27166 -15.29425,0.0551 -16.84688,5.60109 -0.90688,3.23961 -1.75454,18.76473 -1.88367,34.50002 -0.19529,23.77061 -0.86514,28.85168 -3.96176,30.0399 -5.95519,2.28542 -8.08863,1.70461 -9.89458,-2.69298 z" />
  </g>
</svg>
