<?xml version="1.0" encoding="UTF-8" standalone="no"?>
<!-- Created with Inkscape (http://www.inkscape.org/) -->

<svg
   xmlns:dc="http://purl.org/dc/elements/1.1/"
   xmlns:cc="http://creativecommons.org/ns#"
   xmlns:rdf="http://www.w3.org/1999/02/22-rdf-syntax-ns#"
   xmlns:svg="http://www.w3.org/2000/svg"
   xmlns="http://www.w3.org/2000/svg"
   xmlns:sodipodi="http://sodipodi.sourceforge.net/DTD/sodipodi-0.dtd"
   xmlns:inkscape="http://www.inkscape.org/namespaces/inkscape"
   width="80.412216mm"
   height="84.666664mm"
   viewBox="0 0 284.92518 299.99999"
   id="svg5324"
   version="1.1"
   inkscape:version="0.91 r13725"
   sodipodi:docname="moli.svg">
  <defs
     id="defs5326" />
  <sodipodi:namedview
     id="base"
     pagecolor="#ffffff"
     bordercolor="#666666"
     borderopacity="1.0"
     inkscape:pageopacity="0.0"
     inkscape:pageshadow="2"
     inkscape:zoom="0.35"
     inkscape:cx="370.77815"
     inkscape:cy="-220.52992"
     inkscape:document-units="px"
     inkscape:current-layer="layer1"
     showgrid="false"
     fit-margin-top="0"
     fit-margin-left="0"
     fit-margin-right="0"
     fit-margin-bottom="0"
     inkscape:window-width="1600"
     inkscape:window-height="871"
     inkscape:window-x="0"
     inkscape:window-y="0"
     inkscape:window-maximized="1" />
  <metadata
     id="metadata5329">
    <rdf:RDF>
      <cc:Work
         rdf:about="">
        <dc:format>image/svg+xml</dc:format>
        <dc:type
           rdf:resource="http://purl.org/dc/dcmitype/StillImage" />
        <dc:title></dc:title>
      </cc:Work>
    </rdf:RDF>
  </metadata>
  <g
     inkscape:label="Layer 1"
     inkscape:groupmode="layer"
     id="layer1"
     transform="translate(-4.2218492,-11.832286)">
    <path
       inkscape:connector-curvature="0"
       id="path4957"
       style="fill:#FFFFFF;fill-opacity: 0.3;"
       d="m 78.339584,217.61973 c -2.66865,-4.98651 -1.65937,-8.90767 6.58899,-25.59699 5.35733,-10.83981 9.7406,-21.71212 9.7406,-24.16108 0,-2.44897 -3.04732,-10.46628 -6.77183,-17.81615 -7.26374,-14.33435 -8.69151,-26.79289 -3.64812,-31.83628 4.69965,-4.69965 12.23697,0.50834 18.498476,12.78197 2.96335,5.80833 6.54836,11.27781 7.96665,12.15435 1.41857,0.87673 6.37013,-3.91628 11.00369,-10.65101 8.43662,-12.26216 15.07708,-15.08412 21.16658,-8.99461 5.6989,5.6989 3.52406,16.03705 -6.23009,29.6143 -5.21431,7.25778 -9.48056,14.78995 -9.48056,16.7378 0,1.94785 5.48518,9.9676 12.1893,17.82157 11.77594,13.79585 15.25287,21.96403 9.34973,21.96403 -3.53679,0 -20.50971,-8.17712 -30.05691,-14.48061 l -7.16352,-4.72945 -10.44325,15.67977 c -11.485566,17.24461 -17.901196,20.49698 -22.709736,11.51239 z m 144.994406,5.04582 c -2.97961,-1.68293 -9.00681,-6.03316 -13.39387,-9.66719 l -7.97641,-6.60742 -7.09336,8.69124 c -7.5254,9.22053 -14.89559,10.09356 -19.77592,2.34279 -2.04969,-3.25509 -1.24303,-7.33444 3.09554,-15.65865 7.47773,-14.34626 7.37182,-17.98381 -1.05911,-36.39968 -8.95534,-19.56084 -11.04648,-32.19112 -6.02043,-36.3623 5.29232,-4.39194 14.40342,2.26532 20.47206,14.9579 2.56517,5.36545 5.88879,10.15016 7.38536,10.63231 1.49685,0.48216 7.62183,-7.96232 13.61111,-18.76583 12.03707,-21.7113 18.46679,-24.83691 25.46074,-12.37593 4.555,8.1151 4.3207,8.77711 -14.68133,41.49075 -5.1921,8.93882 -9.45484,17.53281 -9.47271,19.09765 -0.0271,1.56483 6.06241,9.68318 13.51143,18.0407 7.44901,8.3578 13.54366,17.13355 13.54366,19.50207 0,5.06397 -9.52011,5.64879 -17.60676,1.08159 z m -63.34779,70.96772 c 8.0249,-1.47626 23.63316,-5.94106 34.68533,-9.92182 16.59424,-5.97709 23.54349,-10.51394 39.89232,-26.04392 26.66775,-25.3318 34.05907,-40.77645 35.64313,-74.47932 2.97988,-63.40331 -28.75753,-134.146477 -66.76186,-148.812637 -16.49998,-6.36769 -57.2163,-6.22385 -81.68862,0.28893 -21.836446,5.81078 -33.731026,13.46809 -56.614406,36.44736 -37.00806,37.163267 -48.82979,65.662387 -43.81782,105.633807 4.52223,36.06515 17.13382,63.50326 39.44213,85.81157 14.49091,14.49091 29.63706,22.4879 54.218266,28.62643 22.83895,5.70351 26.29232,5.8915 45.00153,2.45005 z m -51.14466,16.22558 C 95.032424,306.94317 69.617464,293.79282 55.834074,282.43131 42.634694,271.55141 23.305174,244.12928 16.289824,226.33128 6.7063243,202.0177 2.0218443,167.60731 5.2230243,145.03733 9.9741443,111.53708 33.656054,73.517573 67.105114,45.690763 93.189664,23.990833 108.62267,17.235254 140.99284,13.347951 c 61.02802,-7.3290181 99.10441,11.727732 122.67445,61.397222 29.34316,61.834687 33.74377,127.704297 11.11176,166.322967 -15.03671,25.6582 -48.84305,52.25444 -80.63762,63.44015 -18.94461,6.66484 -65.30294,9.57266 -85.29989,5.35056 z" />
  </g>
</svg>
