<?xml version="1.0" encoding="UTF-8" standalone="no"?>
<!-- Created with Inkscape (http://www.inkscape.org/) -->

<svg
   xmlns:dc="http://purl.org/dc/elements/1.1/"
   xmlns:cc="http://creativecommons.org/ns#"
   xmlns:rdf="http://www.w3.org/1999/02/22-rdf-syntax-ns#"
   xmlns:svg="http://www.w3.org/2000/svg"
   xmlns="http://www.w3.org/2000/svg"
   xmlns:sodipodi="http://sodipodi.sourceforge.net/DTD/sodipodi-0.dtd"
   xmlns:inkscape="http://www.inkscape.org/namespaces/inkscape"
   width="70.392548mm"
   height="84.666664mm"
   viewBox="0 0 249.42241 299.99999"
   id="svg5039"
   version="1.1"
   inkscape:version="0.91 r13725"
   sodipodi:docname="mu.svg">
  <defs
     id="defs5041" />
  <sodipodi:namedview
     id="base"
     pagecolor="#ffffff"
     bordercolor="#666666"
     borderopacity="1.0"
     inkscape:pageopacity="0.0"
     inkscape:pageshadow="2"
     inkscape:zoom="0.35"
     inkscape:cx="337.54505"
     inkscape:cy="-211.48449"
     inkscape:document-units="px"
     inkscape:current-layer="layer1"
     showgrid="false"
     fit-margin-top="0"
     fit-margin-left="0"
     fit-margin-right="0"
     fit-margin-bottom="0"
     inkscape:window-width="1600"
     inkscape:window-height="871"
     inkscape:window-x="0"
     inkscape:window-y="0"
     inkscape:window-maximized="1" />
  <metadata
     id="metadata5044">
    <rdf:RDF>
      <cc:Work
         rdf:about="">
        <dc:format>image/svg+xml</dc:format>
        <dc:type
           rdf:resource="http://purl.org/dc/dcmitype/StillImage" />
        <dc:title></dc:title>
      </cc:Work>
    </rdf:RDF>
  </metadata>
  <g
     inkscape:label="Layer 1"
     inkscape:groupmode="layer"
     id="layer1"
     transform="translate(-37.454949,-20.877715)">
    <path
       inkscape:connector-curvature="0"
       id="path4937"
       style="fill:#FFFFFF;fill-opacity: 0.3;"
       d="m 233.44973,90.701144 c 11.45909,-5.60426 29.16777,-19.27269 23.28828,-33.77809 -5.30109,-13.75814 -23.49952,-18.24123 -32.48553,-5.26884 -9.44771,9.36917 -16.54956,25.51259 -6.66228,37.10397 4.02749,6.94616 10.08988,2.48784 15.85953,1.94296 z m -132.75694,-0.22769 c 8.82651,-9.35041 19.56004,-31.56412 4.0159,-39.39553 -12.521216,0.57871 -29.692406,2.60316 -35.638306,15.41596 -3.33462,11.95821 -1.82817,33.11874 14.28572,33.881286 6.93805,-0.462756 12.74112,-5.057266 17.336686,-9.901716 z m 40.81586,172.356556 c -5.47935,-12.0203 1.00142,-37.60436 17.94576,-31.79318 10.26255,4.33162 22.20242,16.83039 14.21837,28.21885 -6.10476,10.26065 -25.95828,17.50945 -32.16413,3.57433 z m 46.75734,25.30598 c 36.51461,-17.51325 55.77592,-59.62253 52.9069,-98.94016 -1.81931,-25.30092 -7.55207,-54.80538 -31.51731,-68.44967 -29.5286,-18.11621 -70.0277,-21.932666 -99.24839,-1.09946 -26.132726,18.2367 -43.603386,49.98761 -40.408966,82.2894 2.60843,37.52077 22.84481,76.7682 58.752336,91.97555 15.77321,3.73878 32.93058,3.35139 48.54008,-1.1082 3.77388,-1.26579 7.41557,-2.894 10.97535,-4.66746 z m -56.18154,30.46287 C 91.637004,306.42898 64.914494,268.27921 52.782554,229.53881 c -9.55407,-30.69752 -7.8447,-65.36804 8.25665,-93.5931 0.90444,-4.26795 7.43349,-9.25017 3.10029,-12.85286 -13.57946,-15.23886 -28.01835,-33.107246 -26.586,-54.658216 4.92392,-18.81415 19.7734,-34.94154 37.38573,-42.82914 17.3038,-4.20301 35.346316,4.58471 48.854106,14.94023 13.27598,6.96893 12.44806,23.36882 18.54197,33.34886 12.84537,1.94739 26.71598,6.33667 39.20305,5.8679 1.3283,-12.61209 2.46939,-26.12778 10.95553,-36.54255 9.13485,-13.94134 25.07681,-25.48476 42.54885,-21.56963 22.49652,4.07504 43.76046,20.24249 51.44662,42.06279 3.02302,16.32947 -12.29174,27.48465 -22.55176,37.526886 -6.28049,8.88502 -30.66748,14.93233 -14.56349,26.65674 15.09171,24.47438 18.46533,54.54807 16.56717,82.77008 -3.38849,40.97935 -26.9462,81.64258 -65.54809,98.48224 -18.23174,7.8972 -38.39011,12.35668 -58.27725,11.65695 -3.40925,-0.39003 -6.75494,-1.20613 -10.03148,-2.20713 z" />
  </g>
</svg>
