<?xml version="1.0" encoding="UTF-8" standalone="no"?>
<!-- Created with Inkscape (http://www.inkscape.org/) -->

<svg
   xmlns:dc="http://purl.org/dc/elements/1.1/"
   xmlns:cc="http://creativecommons.org/ns#"
   xmlns:rdf="http://www.w3.org/1999/02/22-rdf-syntax-ns#"
   xmlns:svg="http://www.w3.org/2000/svg"
   xmlns="http://www.w3.org/2000/svg"
   xmlns:sodipodi="http://sodipodi.sourceforge.net/DTD/sodipodi-0.dtd"
   xmlns:inkscape="http://www.inkscape.org/namespaces/inkscape"
   width="98.989082mm"
   height="84.666664mm"
   viewBox="0 0 350.74872 299.99999"
   id="svg5213"
   version="1.1"
   inkscape:version="0.91 r13725"
   sodipodi:docname="nanpa.svg">
  <defs
     id="defs5215" />
  <sodipodi:namedview
     id="base"
     pagecolor="#ffffff"
     bordercolor="#666666"
     borderopacity="1.0"
     inkscape:pageopacity="0.0"
     inkscape:pageshadow="2"
     inkscape:zoom="0.35"
     inkscape:cx="363.81141"
     inkscape:cy="-176.14743"
     inkscape:document-units="px"
     inkscape:current-layer="layer1"
     showgrid="false"
     fit-margin-top="0"
     fit-margin-left="0"
     fit-margin-right="0"
     fit-margin-bottom="0"
     inkscape:window-width="1600"
     inkscape:window-height="871"
     inkscape:window-x="0"
     inkscape:window-y="0"
     inkscape:window-maximized="1" />
  <metadata
     id="metadata5218">
    <rdf:RDF>
      <cc:Work
         rdf:about="">
        <dc:format>image/svg+xml</dc:format>
        <dc:type
           rdf:resource="http://purl.org/dc/dcmitype/StillImage" />
        <dc:title></dc:title>
      </cc:Work>
    </rdf:RDF>
  </metadata>
  <g
     inkscape:label="Layer 1"
     inkscape:groupmode="layer"
     id="layer1"
     transform="translate(-11.18859,-56.214795)">
    <path
       inkscape:connector-curvature="0"
       id="path5277"
       style="fill:#FFFFFF;fill-opacity: 0.3;"
       d="m 214.42566,241.52826 c 1.49408,-0.85842 2.71651,-18.5795 2.71651,-39.37893 l 0,-37.81747 -29.88164,0.0362 c -16.4349,0 -38.66701,1.0866 -49.40466,2.37568 l -19.52308,2.34417 2.36416,36.07528 c 1.3003,19.84141 3.32132,37.62406 4.49119,39.51693 2.01794,3.26524 83.05517,0.40687 89.23752,-3.14717 z M 97.743036,349.29266 c -2.0622,-3.8531 -3.74944,-22.02693 -3.74944,-40.38657 l 0,-33.3805 -35.67469,2.33765 c -32.254853,2.11381 -36.275726,1.67373 -41.944254,-4.58982 -3.448232,-3.81036 -5.731081,-10.7295 -5.072997,-15.37582 1.015131,-7.16688 3.943326,-8.81237 19.306652,-10.84758 9.960545,-1.3195 28.358179,-2.54193 40.883619,-2.71651 l 22.7735,-0.31874 -1.04145,-33.50365 -1.04145,-33.50365 -33.80736,-1.81101 c -28.329527,-1.51763 -34.660631,-2.98056 -39.07337,-9.0286 -2.896309,-3.97009 -4.797035,-10.48972 -4.223814,-14.48807 0.943535,-6.58193 4.471995,-7.44179 37.262364,-9.08148 33.11599,-1.65562 36.16703,-2.41444 35.6,-8.85221 -5.89487,-66.928705 -5.784,-74.455979 1.09494,-74.338988 14.610094,0.249919 19.541544,8.81309 23.150914,40.206918 1.91645,16.66888 3.49684,32.34461 3.51195,34.83474 0.029,4.98933 48.44093,5.87636 81.52287,1.49372 l 18.11008,-2.39922 0,-37.939175 c 0,-33.826736 0.71631,-38.081518 6.60801,-39.253965 3.63444,-0.723196 9.74659,1.525231 13.58256,4.996572 5.77994,5.230916 6.98404,11.334014 7.03001,35.632311 0.029,16.125937 1.26071,31.214537 2.73382,33.529727 1.47308,2.31556 23.04439,7.79422 47.93627,12.17505 24.89187,4.38083 50.55518,10.14527 57.02954,12.80999 14.19661,5.84303 15.65761,16.98943 3.28915,25.09369 -7.3603,4.82235 -10.3551,4.90385 -22.6376,0.61574 -12.20559,-4.2613 -35.02137,-8.87394 -74.82407,-15.12735 l -9.96055,-1.56471 0,35.61347 0,35.61384 22.26341,2.32679 c 12.24488,1.28002 30.66283,2.32714 40.9288,2.32714 20.99707,0 27.3583,4.27616 27.3583,18.39115 0,16.00388 -7.35258,19.18438 -33.72904,14.5913 -12.65315,-2.20364 -30.5625,-4.00631 -39.79864,-4.00631 l -16.79294,0 -1.02044,42.55869 -1.02045,42.55869 -8.94808,0 c -13.29649,0 -18.10193,-13.17617 -18.16365,-49.80272 l -0.0531,-31.6912 -28.07063,0.0362 c -15.43885,0 -36.53738,1.04918 -46.88566,2.29165 l -18.81505,2.2605 -2.38307,19.07354 c -1.3107,10.49045 -0.80614,26.46752 1.12113,35.50409 2.40097,11.25759 2.28988,17.64502 -0.35278,20.288 -6.2303,6.23023 -19.95677,4.43045 -24.013034,-3.14898 z" />
  </g>
</svg>
