<?xml version="1.0" encoding="UTF-8" standalone="no"?>
<!-- Created with Inkscape (http://www.inkscape.org/) -->

<svg
   xmlns:dc="http://purl.org/dc/elements/1.1/"
   xmlns:cc="http://creativecommons.org/ns#"
   xmlns:rdf="http://www.w3.org/1999/02/22-rdf-syntax-ns#"
   xmlns:svg="http://www.w3.org/2000/svg"
   xmlns="http://www.w3.org/2000/svg"
   xmlns:sodipodi="http://sodipodi.sourceforge.net/DTD/sodipodi-0.dtd"
   xmlns:inkscape="http://www.inkscape.org/namespaces/inkscape"
   width="40.44677mm"
   height="84.666664mm"
   viewBox="0 0 143.31533 299.99999"
   id="svg5558"
   version="1.1"
   inkscape:version="0.91 r13725"
   sodipodi:docname="olin.svg">
  <defs
     id="defs5560" />
  <sodipodi:namedview
     id="base"
     pagecolor="#ffffff"
     bordercolor="#666666"
     borderopacity="1.0"
     inkscape:pageopacity="0.0"
     inkscape:pageshadow="2"
     inkscape:zoom="0.35"
     inkscape:cx="331.91784"
     inkscape:cy="-205.1192"
     inkscape:document-units="px"
     inkscape:current-layer="layer1"
     showgrid="false"
     fit-margin-top="0"
     fit-margin-left="0"
     fit-margin-right="0"
     fit-margin-bottom="0"
     inkscape:window-width="1600"
     inkscape:window-height="871"
     inkscape:window-x="0"
     inkscape:window-y="0"
     inkscape:window-maximized="1" />
  <metadata
     id="metadata5563">
    <rdf:RDF>
      <cc:Work
         rdf:about="">
        <dc:format>image/svg+xml</dc:format>
        <dc:type
           rdf:resource="http://purl.org/dc/dcmitype/StillImage" />
        <dc:title></dc:title>
      </cc:Work>
    </rdf:RDF>
  </metadata>
  <g
     inkscape:label="Layer 1"
     inkscape:groupmode="layer"
     id="layer1"
     transform="translate(-43.082164,-27.242996)">
    <path
       inkscape:connector-curvature="0"
       id="path5257"
       style="fill:#FFFFFF;fill-opacity: 0.3;"
       d="m 148.05439,106.87301 c 10.5297,-14.149974 18.3507,-30.431524 22.7998,-47.462754 3.1167,-11.93203 3.1366,-13.1639 0.2558,-16.043431 -5.0663,-5.066004 -18.8803,-5.660254 -27.6409,-1.189078 -9.4226,4.808889 -12.7197,8.487979 -18.4044,20.540129 -6.6589,14.11543 -9.7277,13.50179 -17.5909,-3.51734 -3.8696,-8.3742 -8.443304,-15.306426 -11.003704,-16.67683 -7.764,-4.154959 -26.8439,-4.449302 -34.4084,-0.530867 -6.2169,3.220315 -6.7088,4.129627 -6.6173,12.238657 0.07,5.97877 2.3563,13.51407 7.2095,23.73396 7.0817,14.91249 32.0311,52.982164 41.223404,62.901564 l 4.8296,5.21222 15.3901,-13.8468 c 8.4638,-7.6155 19.2448,-19.02735 23.9561,-25.35937 z m -49.892504,47.49018 c -21.3984,-30.12413 -39.3993,-58.541104 -45.9878,-72.600884 -17.5557,-37.463522 -9.8831,-54.372138 24.7205,-54.477097 17.0344,-0.05117 27.374804,3.786359 34.157104,12.678632 l 5.0548,6.626945 7.7282,-6.982114 c 10.1338,-9.154956 18.258,-12.365676 31.2898,-12.365676 12.9935,0 21.9146,3.480887 27.6799,10.800515 3.6713,4.660754 4.151,6.936061 3.1149,14.772995 -3.0253,22.87377 -20.1141,56.168704 -38.4687,74.948344 -14.4082,14.74153 -38.4482,35.71262 -40.9394,35.71262 -1.031,0 -4.788,-4.10143 -8.349304,-9.11428 z m 21.358704,137.24529 c 16.4038,-20.27361 38.4821,-68.98108 38.4821,-84.89768 0,-8.70193 -3.8056,-8.9034 -15.9714,-0.84523 -11.3535,7.52015 -23.4969,21.24932 -26.2952,29.72847 -1.6405,4.96968 -3.2459,6.55403 -6.6422,6.55403 -3.7736,0 -5.3272,-2.16382 -9.872204,-13.74797 -9.7769,-24.91901 -21.9018,-32.50478 -33.4689,-20.9379 -4.3416,4.34128 -5.6087,7.35417 -5.6087,13.33256 0,11.72384 8.7408,36.91321 17.1688,49.47786 9.8338,14.66037 26.565704,33.2769 29.908304,33.2769 1.4506,0 6.985,-5.37339 12.2994,-11.94104 z m -19.581304,27.14558 c -3.8529,-4.66882 -12.5854,-15.24905 -19.4048,-23.51138 -22.8068,-27.63162 -33.5904,-55.26476 -32.182,-82.46791 0.1791,-3.46726 3.214,-8.49508 8.5111,-14.10161 6.8533,-7.25324 9.6669,-8.85984 16.7895,-9.58745 10.8764,-1.11118 18.416,3.36441 27.894804,16.55863 3.8095,5.3024 7.3771,9.6406 7.9285,9.6406 0.55,0 6.0122,-4.63754 12.1344,-10.30566 11.6881,-10.82104 25.0691,-18.47627 32.2959,-18.47627 5.7372,0 14.8573,4.86894 16.3354,8.72054 4.4311,11.54674 -0.8059,31.64842 -17.1605,65.86898 -11.0183,23.05414 -21.2864,38.63437 -36.7379,55.74273 l -9.3995,10.40774 -7.004904,-8.48894 z" />
  </g>
</svg>
