<?xml version="1.0" encoding="UTF-8" standalone="no"?>
<!-- Created with Inkscape (http://www.inkscape.org/) -->

<svg
   xmlns:dc="http://purl.org/dc/elements/1.1/"
   xmlns:cc="http://creativecommons.org/ns#"
   xmlns:rdf="http://www.w3.org/1999/02/22-rdf-syntax-ns#"
   xmlns:svg="http://www.w3.org/2000/svg"
   xmlns="http://www.w3.org/2000/svg"
   xmlns:sodipodi="http://sodipodi.sourceforge.net/DTD/sodipodi-0.dtd"
   xmlns:inkscape="http://www.inkscape.org/namespaces/inkscape"
   width="26.831709mm"
   height="84.666664mm"
   viewBox="0 0 95.072984 299.99999"
   id="svg5156"
   version="1.1"
   inkscape:version="0.91 r13725"
   sodipodi:docname="palisa.svg">
  <defs
     id="defs5158" />
  <sodipodi:namedview
     id="base"
     pagecolor="#ffffff"
     bordercolor="#666666"
     borderopacity="1.0"
     inkscape:pageopacity="0.0"
     inkscape:pageshadow="2"
     inkscape:zoom="0.35"
     inkscape:cx="332.70511"
     inkscape:cy="-194.48029"
     inkscape:document-units="px"
     inkscape:current-layer="layer1"
     showgrid="false"
     fit-margin-top="0"
     fit-margin-left="0"
     fit-margin-right="0"
     fit-margin-bottom="0"
     inkscape:window-width="1600"
     inkscape:window-height="871"
     inkscape:window-x="0"
     inkscape:window-y="0"
     inkscape:window-maximized="1" />
  <metadata
     id="metadata5161">
    <rdf:RDF>
      <cc:Work
         rdf:about="">
        <dc:format>image/svg+xml</dc:format>
        <dc:type
           rdf:resource="http://purl.org/dc/dcmitype/StillImage" />
        <dc:title></dc:title>
      </cc:Work>
    </rdf:RDF>
  </metadata>
  <g
     inkscape:label="Layer 1"
     inkscape:groupmode="layer"
     id="layer1"
     transform="translate(-42.294894,-37.881917)">
    <path
       inkscape:connector-curvature="0"
       id="path5659"
       style="fill:#FFFFFF;fill-opacity: 0.3;"
       d="m 100.05354,311.10253 c 13.72624,-20.79476 19.29782,-48.72234 20.96433,-105.08485 1.87214,-63.31425 -4.3666,-110.460427 -18.34035,-138.5984 C 96.181946,54.339681 90.129816,53.093432 81.102895,62.976633 72.701105,72.175477 68.181358,88.418527 63.94767,124.62974 53.399574,214.84935 58.91988,278.688 80.027735,310.58403 c 7.508471,11.34599 12.788541,11.48277 20.025805,0.5188 z M 76.838078,333.25191 C 60.914334,323.54321 48.748121,294.86493 44.548969,257.14004 38.414588,202.02945 45.282858,112.97612 59.31144,65.737695 64.223806,49.195863 77.192678,37.881917 91.241636,37.881917 c 14.309184,0 18.149494,2.677903 25.922904,18.077093 16.02129,31.737897 21.58795,73.19313 19.91954,148.34141 -1.58964,71.59902 -9.08645,103.46757 -29.40043,124.97895 -9.443104,9.99976 -18.951484,11.22442 -30.845572,3.97254 z" />
  </g>
</svg>
