<?xml version="1.0" encoding="UTF-8" standalone="no"?>
<!-- Created with Inkscape (http://www.inkscape.org/) -->

<svg
   xmlns:dc="http://purl.org/dc/elements/1.1/"
   xmlns:cc="http://creativecommons.org/ns#"
   xmlns:rdf="http://www.w3.org/1999/02/22-rdf-syntax-ns#"
   xmlns:svg="http://www.w3.org/2000/svg"
   xmlns="http://www.w3.org/2000/svg"
   xmlns:sodipodi="http://sodipodi.sourceforge.net/DTD/sodipodi-0.dtd"
   xmlns:inkscape="http://www.inkscape.org/namespaces/inkscape"
   width="71.235626mm"
   height="84.666664mm"
   viewBox="0 0 252.4097 299.99999"
   id="svg5301"
   version="1.1"
   inkscape:version="0.91 r13725"
   sodipodi:docname="pi.svg">
  <defs
     id="defs5303" />
  <sodipodi:namedview
     id="base"
     pagecolor="#ffffff"
     bordercolor="#666666"
     borderopacity="1.0"
     inkscape:pageopacity="0.0"
     inkscape:pageshadow="2"
     inkscape:zoom="0.35"
     inkscape:cx="350.18322"
     inkscape:cy="-231.0642"
     inkscape:document-units="px"
     inkscape:current-layer="layer1"
     showgrid="false"
     fit-margin-top="0"
     fit-margin-left="0"
     fit-margin-right="0"
     fit-margin-bottom="0"
     inkscape:window-width="1600"
     inkscape:window-height="871"
     inkscape:window-x="0"
     inkscape:window-y="0"
     inkscape:window-maximized="1" />
  <metadata
     id="metadata5306">
    <rdf:RDF>
      <cc:Work
         rdf:about="">
        <dc:format>image/svg+xml</dc:format>
        <dc:type
           rdf:resource="http://purl.org/dc/dcmitype/StillImage" />
        <dc:title></dc:title>
      </cc:Work>
    </rdf:RDF>
  </metadata>
  <g
     inkscape:label="Layer 1"
     inkscape:groupmode="layer"
     id="layer1"
     transform="translate(-24.816785,-1.298)">
    <path
       inkscape:connector-curvature="0"
       style="fill:#FFFFFF;fill-opacity: 0.3;"
       d="m 253.62498,298.58652 c -3.8021,-1.52815 -55.30486,-3.73483 -114.45021,-4.90328 C 52.42936,291.96956 30.944355,290.72308 28.051162,287.23706 23.342313,281.56309 23.582517,272.76311 30.044974,214.21243 34.938122,169.88167 37.262751,56.678246 34.14502,14.554783 33.380178,4.2284901 34.21669,2.1271701 39.401238,1.3844441 c 3.390801,-0.48634596 8.919782,1.129448 12.286624,3.590459 5.84014,4.26868 6.120889,8.1150079 6.120889,83.8184279 0,43.639329 -0.492489,100.077929 -1.093817,125.419099 l -1.093816,46.07484 27.202895,1.97845 c 14.96173,1.08829 62.581607,2.12497 105.821927,2.30375 72.02265,0.29795 79.04569,0.79658 83.70262,5.94242 6.71372,7.41866 6.46062,19.82938 -0.53344,26.15915 -6.28277,5.68594 -8.28518,5.89665 -18.19004,1.91548 z"
       id="path5645" />
  </g>
</svg>
