<?xml version="1.0" encoding="UTF-8" standalone="no"?>
<!-- Created with Inkscape (http://www.inkscape.org/) -->

<svg
   xmlns:dc="http://purl.org/dc/elements/1.1/"
   xmlns:cc="http://creativecommons.org/ns#"
   xmlns:rdf="http://www.w3.org/1999/02/22-rdf-syntax-ns#"
   xmlns:svg="http://www.w3.org/2000/svg"
   xmlns="http://www.w3.org/2000/svg"
   xmlns:sodipodi="http://sodipodi.sourceforge.net/DTD/sodipodi-0.dtd"
   xmlns:inkscape="http://www.inkscape.org/namespaces/inkscape"
   width="87.626442mm"
   height="84.666664mm"
   viewBox="0 0 310.48739 299.99999"
   id="svg5385"
   version="1.1"
   inkscape:version="0.91 r13725"
   sodipodi:docname="pimeja.svg">
  <defs
     id="defs5387" />
  <sodipodi:namedview
     id="base"
     pagecolor="#ffffff"
     bordercolor="#666666"
     borderopacity="1.0"
     inkscape:pageopacity="0.0"
     inkscape:pageshadow="2"
     inkscape:zoom="0.35"
     inkscape:cx="366.98053"
     inkscape:cy="-208.52065"
     inkscape:document-units="px"
     inkscape:current-layer="layer1"
     showgrid="false"
     fit-margin-top="0"
     fit-margin-left="0"
     fit-margin-right="0"
     fit-margin-bottom="0"
     inkscape:window-width="1600"
     inkscape:window-height="871"
     inkscape:window-x="0"
     inkscape:window-y="0"
     inkscape:window-maximized="1" />
  <metadata
     id="metadata5390">
    <rdf:RDF>
      <cc:Work
         rdf:about="">
        <dc:format>image/svg+xml</dc:format>
        <dc:type
           rdf:resource="http://purl.org/dc/dcmitype/StillImage" />
        <dc:title></dc:title>
      </cc:Work>
    </rdf:RDF>
  </metadata>
  <g
     inkscape:label="Layer 1"
     inkscape:groupmode="layer"
     id="layer1"
     transform="translate(-8.0194744,-23.841563)">
    <path
       inkscape:connector-curvature="0"
       id="path5627"
       style="fill:#FFFFFF;fill-opacity: 0.3;"
       d="m 182.34012,152.77855 c 9.43191,-14.46975 17.14876,-27.15758 17.14876,-28.19497 0,-1.03791 -10.88677,-14.05417 -24.19295,-28.926319 -13.30618,-14.871837 -24.5718,-27.594194 -25.03478,-28.27187 -2.37799,-3.479407 -10.57288,8.711544 -26.12835,38.867659 l -17.23978,33.42209 25.02756,23.12636 c 19.22855,17.76805 25.98271,22.33412 29.14918,19.70597 2.26687,-1.88142 11.83846,-15.25949 21.27036,-29.72892 z m -59.72307,89.59324 c 18.95767,-31.95059 23.76951,-42.39352 21.33314,-46.29793 -1.73044,-2.77285 -12.10526,-12.67308 -23.05511,-22.00015 -18.92534,-16.12141 -20.12343,-16.6638 -24.261059,-10.98595 -9.05744,12.42888 -60.208648,109.69376 -59.265112,112.69324 1.375441,4.37209 15.657492,7.03917 40.035622,7.47578 l 20.733,0.37143 24.479519,-41.25632 z m 158.48174,40.7428 c 0,-11.35915 -61.09632,-137.67058 -67.52185,-139.59594 -1.70627,-0.51059 -11.3196,11.98598 -21.36296,27.77122 l -18.26084,28.70095 9.12493,12.78419 c 40.91198,57.31966 49.78895,68.68039 55.45895,70.97645 10.15384,4.11126 42.56177,3.62631 42.56177,-0.63718 z m -79.25578,1.67395 c 3.88432,-1.04105 7.06239,-3.23897 7.06239,-4.88467 0,-3.95871 -16.82451,-28.63315 -32.32568,-47.40813 -11.9819,-14.51213 -12.62537,-14.84485 -18.47774,-9.54836 -8.4077,7.60886 -33.94533,49.12884 -33.94533,55.18964 0,2.73236 1.7656,5.68036 3.92356,6.55107 5.62857,2.27127 65.35949,2.35257 73.7628,0.10463 z m 83.96404,32.42707 c -14.61759,-6.1242 -23.66154,-6.7165 -131.83139,-8.63496 C 81.104291,307.28808 34.669504,305.22648 29.331902,303.04687 16.913385,297.97544 8.0194744,287.89285 8.0194744,278.88563 c 0,-4.33443 13.1693276,-30.81841 29.2653136,-58.8533 16.095983,-28.03457 45.817063,-83.0588 66.046582,-122.276439 20.22984,-39.217328 38.19658,-72.178938 39.92671,-73.248028 4.6662,-2.88397 10.88613,3.46277 21.17557,21.608102 5.05982,8.923102 19.15385,28.534905 31.31969,43.581575 33.97954,42.02628 39.04877,50.45941 76.41701,127.12815 19.16954,39.33095 37.49567,75.26003 40.72429,79.84243 7.5555,10.72354 7.47609,20.40687 -0.20089,24.51561 -7.57466,4.05413 -7.82796,4.01678 -26.88639,-3.96812 z" />
  </g>
</svg>
