<?xml version="1.0" encoding="UTF-8" standalone="no"?>
<!-- Created with Inkscape (http://www.inkscape.org/) -->

<svg
   xmlns:dc="http://purl.org/dc/elements/1.1/"
   xmlns:cc="http://creativecommons.org/ns#"
   xmlns:rdf="http://www.w3.org/1999/02/22-rdf-syntax-ns#"
   xmlns:svg="http://www.w3.org/2000/svg"
   xmlns="http://www.w3.org/2000/svg"
   xmlns:sodipodi="http://sodipodi.sourceforge.net/DTD/sodipodi-0.dtd"
   xmlns:inkscape="http://www.inkscape.org/namespaces/inkscape"
   width="34.730568mm"
   height="84.666664mm"
   viewBox="0 0 123.06107 299.99999"
   id="svg5488"
   version="1.1"
   inkscape:version="0.91 r13725"
   sodipodi:docname="pipi.svg">
  <defs
     id="defs5490" />
  <sodipodi:namedview
     id="base"
     pagecolor="#ffffff"
     bordercolor="#666666"
     borderopacity="1.0"
     inkscape:pageopacity="0.0"
     inkscape:pageshadow="2"
     inkscape:zoom="0.35"
     inkscape:cx="338.66165"
     inkscape:cy="-195.53697"
     inkscape:document-units="px"
     inkscape:current-layer="layer1"
     showgrid="false"
     fit-margin-top="0"
     fit-margin-left="0"
     fit-margin-right="0"
     fit-margin-bottom="0"
     inkscape:window-width="1600"
     inkscape:window-height="871"
     inkscape:window-x="0"
     inkscape:window-y="0"
     inkscape:window-maximized="1" />
  <metadata
     id="metadata5493">
    <rdf:RDF>
      <cc:Work
         rdf:about="">
        <dc:format>image/svg+xml</dc:format>
        <dc:type
           rdf:resource="http://purl.org/dc/dcmitype/StillImage" />
        <dc:title></dc:title>
      </cc:Work>
    </rdf:RDF>
  </metadata>
  <g
     inkscape:label="Layer 1"
     inkscape:groupmode="layer"
     id="layer1"
     transform="translate(-36.338349,-36.825239)">
    <path
       inkscape:connector-curvature="0"
       id="path5605"
       style="fill:#FFFFFF;fill-opacity: 0.3;"
       d="m 69.29731,60.852497 c -7.414763,-5.193591 -7.524349,-17.219468 -0.198217,-21.803114 14.096118,-8.819842 29.673778,10.741708 16.833788,21.138801 -7.79817,6.314372 -8.52676,6.343538 -16.635004,0.664502 z m 59.9946,4.540322 c -8.20141,-3.309106 -10.00802,-6.890619 -7.83782,-15.537732 2.65697,-10.586249 11.16731,-14.324921 19.7728,-8.686472 8.6842,5.690268 9.50907,19.772231 1.41188,24.105556 -6.2518,3.345918 -5.36746,3.337989 -13.34686,0.118931 z M 96.298831,333.13219 c -2.38485,-2.38485 -6.45794,-10.72444 -9.05148,-18.53224 -2.59325,-7.80809 -5.69593,-14.19636 -6.8943,-14.19636 -1.19865,0 -7.56173,3.89894 -14.140293,8.66467 -13.266721,9.61016 -21.654452,9.90947 -27.549734,0.98344 -3.437664,-5.2052 -3.226703,-6.79972 1.735822,-13.10871 3.10749,-3.9502 13.889692,-11.45445 23.960575,-16.67607 20.11968,-10.43164 21.3625,-12.59023 21.42084,-37.20493 l 0.0377,-16.28218 -10.88782,0 c -14.51153,0 -22.449023,-8.19291 -18.601331,-19.19966 2.005682,-5.73727 4.845294,-7.89927 11.135313,-8.47778 20.124778,-1.85079 20.657418,-2.31886 22.482718,-19.75609 0.93729,-8.95378 2.34803,-21.2464 3.13552,-27.31725 l 1.4317,-11.0379 -19.65301,1.64747 c -16.531323,1.38611 -20.370237,0.85517 -24.16979,-3.34337 -10.326867,-11.41112 -0.271841,-22.95108 19.9982,-22.95108 16.22385,0 26.45529,-4.26395 26.45529,-11.02516 0,-17.401261 9.293579,-19.143312 14.752789,-2.7657 3.78171,11.34457 4.47462,11.83955 23.15297,16.54156 18.14458,4.56751 24.24686,8.5817 24.34795,16.01657 0.10477,7.73446 -8.44691,10.28184 -28.03876,8.3512 l -19.54598,-1.92583 -1.98246,21.15749 c -1.09049,11.63652 -1.41754,22.85197 -0.7268,24.92335 0.92029,2.75947 6.22998,3.51157 19.86369,2.81413 10.28666,-0.52575 21.26085,0.46817 24.54079,2.22343 13.46352,7.20551 2.72011,18.94255 -20.85054,22.77892 -29.89097,4.86483 -30.90414,6.04536 -29.30934,34.15038 l 0.87499,15.42305 19.35427,1.91309 c 24.82198,2.45337 27.36851,3.55631 27.36851,11.85342 0,8.24247 -3.02367,9.5844 -27.16604,12.05788 l -18.59963,1.90572 0.93729,21.24896 c 0.98259,22.2777 -1.61803,27.34811 -9.820569,19.14558 z" />
  </g>
</svg>
