<?xml version="1.0" encoding="UTF-8" standalone="no"?>
<!-- Created with Inkscape (http://www.inkscape.org/) -->

<svg
   xmlns:dc="http://purl.org/dc/elements/1.1/"
   xmlns:cc="http://creativecommons.org/ns#"
   xmlns:rdf="http://www.w3.org/1999/02/22-rdf-syntax-ns#"
   xmlns:svg="http://www.w3.org/2000/svg"
   xmlns="http://www.w3.org/2000/svg"
   xmlns:sodipodi="http://sodipodi.sourceforge.net/DTD/sodipodi-0.dtd"
   xmlns:inkscape="http://www.inkscape.org/namespaces/inkscape"
   width="216.68025mm"
   height="84.666664mm"
   viewBox="0 0 767.76467 299.99999"
   id="svg5530"
   version="1.1"
   inkscape:version="0.91 r13725"
   sodipodi:docname="poka.svg">
  <defs
     id="defs5532" />
  <sodipodi:namedview
     id="base"
     pagecolor="#ffffff"
     bordercolor="#666666"
     borderopacity="1.0"
     inkscape:pageopacity="0.0"
     inkscape:pageshadow="2"
     inkscape:zoom="0.35"
     inkscape:cx="402.74498"
     inkscape:cy="-189.6509"
     inkscape:document-units="px"
     inkscape:current-layer="layer1"
     showgrid="false"
     fit-margin-top="0"
     fit-margin-left="0"
     fit-margin-right="0"
     fit-margin-bottom="0"
     inkscape:window-width="1600"
     inkscape:window-height="871"
     inkscape:window-x="0"
     inkscape:window-y="0"
     inkscape:window-maximized="1" />
  <metadata
     id="metadata5535">
    <rdf:RDF>
      <cc:Work
         rdf:about="">
        <dc:format>image/svg+xml</dc:format>
        <dc:type
           rdf:resource="http://purl.org/dc/dcmitype/StillImage" />
        <dc:title></dc:title>
      </cc:Work>
    </rdf:RDF>
  </metadata>
  <g
     inkscape:label="Layer 1"
     inkscape:groupmode="layer"
     id="layer1"
     transform="translate(27.744982,-42.711313)">
    <path
       inkscape:connector-curvature="0"
       id="path5617"
       style="fill:#FFFFFF;fill-opacity: 0.3;"
       d="m 679.95656,205.64288 c -9.36463,-5.7878 -9.2439,-48.78667 0.18019,-66.40655 14.49954,-27.09323 59.88296,-6.04428 59.88296,27.77316 0,21.90847 -42.69794,49.36929 -60.06916,38.63339 z m -664.719,133.73989 c -17.07449,-1.20529 -34.01925,-5.77338 -37.65494,-10.15388 -4.49282,-5.4136 -6.09233,-51.97428 -4.99375,-145.35934 l 1.61573,-137.394207 19.52091,-1.88202 19.52092,-1.88201 0.52856,94.981557 c 0.28831,52.24038 2.31669,108.49665 4.50483,125.01435 l 3.97866,30.03218 31.32957,5.31569 c 23.52781,3.99188 51.94726,2.17854 114.12227,-7.2822 122.80278,-18.68602 181.37333,-21.41114 269.20424,-12.52582 93.02106,9.41028 109.37839,9.41328 118.77245,0 4.62616,-4.62496 8.33934,-41.23658 10.51787,-103.70351 2.97379,-85.275767 4.68683,-97.519887 14.66231,-104.814097 25.53156,-18.66921 27.01875,-13.71089 27.01875,90.095927 0,124.85037 -1.62374,132.82511 -31.02144,152.27935 -23.17763,15.33864 -23.78128,15.40111 -96.75887,10.03676 -112.32094,-8.25645 -232.66108,-4.7613 -318.94532,9.26252 -41.85225,6.80289 -84.82108,11.86872 -95.48551,11.25726 -10.66503,-0.61065 -33.36094,-2.09624 -50.43544,-3.29993 z" />
  </g>
</svg>
