<?xml version="1.0" encoding="UTF-8" standalone="no"?>
<!-- Created with Inkscape (http://www.inkscape.org/) -->

<svg
   xmlns:dc="http://purl.org/dc/elements/1.1/"
   xmlns:cc="http://creativecommons.org/ns#"
   xmlns:rdf="http://www.w3.org/1999/02/22-rdf-syntax-ns#"
   xmlns:svg="http://www.w3.org/2000/svg"
   xmlns="http://www.w3.org/2000/svg"
   xmlns:sodipodi="http://sodipodi.sourceforge.net/DTD/sodipodi-0.dtd"
   xmlns:inkscape="http://www.inkscape.org/namespaces/inkscape"
   width="75.329056mm"
   height="84.666664mm"
   viewBox="0 0 266.91398 299.99999"
   id="svg5572"
   version="1.1"
   inkscape:version="0.91 r13725"
   sodipodi:docname="poki.svg">
  <defs
     id="defs5574" />
  <sodipodi:namedview
     id="base"
     pagecolor="#ffffff"
     bordercolor="#666666"
     borderopacity="1.0"
     inkscape:pageopacity="0.0"
     inkscape:pageshadow="2"
     inkscape:zoom="0.35"
     inkscape:cx="322.36837"
     inkscape:cy="-128.15279"
     inkscape:document-units="px"
     inkscape:current-layer="layer1"
     showgrid="false"
     fit-margin-top="0"
     fit-margin-left="0"
     fit-margin-right="0"
     fit-margin-bottom="0"
     inkscape:window-width="1600"
     inkscape:window-height="871"
     inkscape:window-x="0"
     inkscape:window-y="0"
     inkscape:window-maximized="1" />
  <metadata
     id="metadata5577">
    <rdf:RDF>
      <cc:Work
         rdf:about="">
        <dc:format>image/svg+xml</dc:format>
        <dc:type
           rdf:resource="http://purl.org/dc/dcmitype/StillImage" />
        <dc:title></dc:title>
      </cc:Work>
    </rdf:RDF>
  </metadata>
  <g
     inkscape:label="Layer 1"
     inkscape:groupmode="layer"
     id="layer1"
     transform="translate(-52.631627,-104.20941)">
    <path
       inkscape:connector-curvature="0"
       style="fill:#FFFFFF;fill-opacity: 0.3;"
       d="m 74.766597,400.72297 c -20.14241,-9.27001 -20.72234,-12.10601 -21.95136,-107.31252 -1.14395,-88.61857 3.20721,-180.2133 8.88594,-187.05556 2.59638,-3.12826 4.96751,-2.90516 11.99523,1.12803 9.9442,5.70719 12.86711,16.92081 8.87982,34.06563 -2.93454,12.61861 -2.98167,188.61051 -0.0612,215.95966 l 1.9632,18.36191 35.193663,0.99563 c 31.42274,0.88953 119.43292,-5.36199 156.07626,-11.08601 l 13.77143,-2.1514 -0.2387,-45.90478 c -0.1622,-31.31655 -2.30932,-58.54788 -6.75504,-85.68893 -9.6853,-59.12781 -14.12552,-114.18661 -9.64429,-119.58624 5.15358,-6.20969 19.34856,-5.38555 25.5656,1.48425 4.19233,4.63241 4.71381,7.95622 2.52109,16.06668 -3.45021,12.76091 -0.21729,51.68052 10.25451,123.45754 5.01862,34.39829 8.11658,69.20605 8.24879,92.68482 0.28155,49.6806 2.08346,47.95519 -50.71744,48.53084 -22.24271,0.24176 -49.39263,1.97666 -60.33327,3.85416 -10.94064,1.87751 -43.30351,4.14551 -71.91749,5.04035 -41.772133,1.30614 -53.939963,0.7457 -61.740403,-2.84457 z"
       id="path5643" />
  </g>
</svg>
