<?xml version="1.0" encoding="UTF-8" standalone="no"?>
<!-- Created with Inkscape (http://www.inkscape.org/) -->

<svg
   xmlns:dc="http://purl.org/dc/elements/1.1/"
   xmlns:cc="http://creativecommons.org/ns#"
   xmlns:rdf="http://www.w3.org/1999/02/22-rdf-syntax-ns#"
   xmlns:svg="http://www.w3.org/2000/svg"
   xmlns="http://www.w3.org/2000/svg"
   xmlns:sodipodi="http://sodipodi.sourceforge.net/DTD/sodipodi-0.dtd"
   xmlns:inkscape="http://www.inkscape.org/namespaces/inkscape"
   width="59.057335mm"
   height="84.666664mm"
   viewBox="0 0 209.25827 299.99999"
   id="svg5656"
   version="1.1"
   inkscape:version="0.91 r13725"
   sodipodi:docname="pu.svg">
  <defs
     id="defs5658" />
  <sodipodi:namedview
     id="base"
     pagecolor="#ffffff"
     bordercolor="#666666"
     borderopacity="1.0"
     inkscape:pageopacity="0.0"
     inkscape:pageshadow="2"
     inkscape:zoom="0.35"
     inkscape:cx="274.25451"
     inkscape:cy="-243.44541"
     inkscape:document-units="px"
     inkscape:current-layer="layer1"
     showgrid="false"
     fit-margin-top="0"
     fit-margin-left="0"
     fit-margin-right="0"
     fit-margin-bottom="0"
     inkscape:window-width="1600"
     inkscape:window-height="871"
     inkscape:window-x="0"
     inkscape:window-y="0"
     inkscape:window-maximized="1" />
  <metadata
     id="metadata5661">
    <rdf:RDF>
      <cc:Work
         rdf:about="">
        <dc:format>image/svg+xml</dc:format>
        <dc:type
           rdf:resource="http://purl.org/dc/dcmitype/StillImage" />
        <dc:title></dc:title>
      </cc:Work>
    </rdf:RDF>
  </metadata>
  <g
     inkscape:label="Layer 1"
     inkscape:groupmode="layer"
     id="layer1"
     transform="translate(-100.74549,11.083201)">
    <path
       inkscape:connector-curvature="0"
       id="path6047"
       style="fill:#FFFFFF;fill-opacity: 0.3;"
       d="m 233.85446,97.969337 c -3.15536,-3.155281 -1.56563,-14.761503 3.43045,-25.044738 5.50677,-11.334763 9.99717,-14.44113 14.94232,-10.337017 4.85358,4.028078 3.50362,13.698848 -3.52503,25.253607 -6.07944,9.994157 -11.37178,13.604271 -14.84774,10.128148 z m -38.30329,-4.348914 c -3.30496,-7.253367 -3.62502,-28.132792 -0.46132,-30.087949 3.65624,-2.259766 11.00365,2.877099 12.30462,8.60232 0.65913,2.902367 0.5185,9.957761 -0.31296,15.678577 -1.77302,12.197129 -7.3413,15.001439 -11.53057,5.807052 z m -42.0429,1.001688 c -5.04345,-5.196906 -9.82277,-11.506077 -10.62077,-14.02038 -1.42413,-4.486846 2.24609,-11.303468 6.08601,-11.303468 1.07239,0 7.24526,6.362953 13.71739,14.14023 9.38301,11.274722 11.22164,14.797899 9.07338,17.386387 -4.35347,5.24559 -8.51948,3.8301 -18.25601,-6.202769 z m 37.48628,92.582029 c -9.8339,-6.29688 -15.80175,-17.22156 -11.94576,-21.86766 3.91093,-4.71241 6.85286,-4.1433 14.006,2.70995 8.4902,8.13405 15.0866,5.95125 18.3217,-6.06275 3.19732,-11.87397 5.52949,-12.91854 11.60336,-5.19667 6.80781,8.65471 4.94059,20.38472 -4.6162,29.00003 -8.49916,7.66183 -16.93472,8.09857 -27.3691,1.4171 z m 23.56179,20.98235 c 4.9426,-1.37236 13.28807,-6.5076 18.54548,-11.41172 9.08751,-8.47668 9.55834,-9.58176 9.54937,-22.41221 -0.007,-10.24846 -1.5854,-16.55833 -6.55876,-26.22284 -7.83229,-15.21981 -9.11719,-16.16934 -21.94463,-16.21501 -5.48212,-0.0232 -13.10462,-1.65773 -16.9389,-3.64047 -6.40522,-3.31246 -7.64846,-3.2654 -15.30542,0.57954 -24.06469,12.08331 -31.37083,47.30209 -13.93306,67.16268 12.17951,13.87155 26.73662,17.67129 46.58592,12.16003 z m -27.86087,16.66242 c -16.65298,-4.25827 -33.17322,-20.14248 -40.44335,-38.88639 -3.92824,-10.12815 -3.06982,-33.90994 1.5463,-42.83912 6.85055,-13.25144 17.23176,-24.51411 27.72781,-30.08239 9.80669,-5.20247 10.37094,-5.24373 21.21811,-1.55156 6.12897,2.08614 15.61684,4.3058 21.08412,4.9331 5.46736,0.62668 12.50954,2.82332 15.64929,4.88047 6.59168,4.31901 22.8631,35.47078 25.18785,48.22241 3.36106,18.43537 -9.62595,40.64149 -29.34072,50.16923 -11.20464,5.41504 -31.84869,7.91103 -42.62941,5.15425 z m 66.01664,45.74937 c 37.55336,-2.65965 37.88911,-2.73221 40.19192,-8.68415 2.39174,-6.18167 0.918,-149.8296 -2.26155,-220.434081 L 289.02439,5.5481886 222.95605,3.5997545 C 156.23507,1.6320794 130.9531,3.1871176 122.51669,9.7788753 119.54161,12.103319 118.7467,29.839285 117.09546,130.73015 c -1.0642,65.02508 -1.4134,123.43637 -0.7759,129.80304 1.07008,10.6866 1.69328,11.67391 8.11365,12.85665 10.31909,1.90045 84.96556,0.27586 128.2789,-2.79156 z m -136.34487,16.53074 c -9.7363,-4.20727 -13.69135,-9.3184 -15.24925,-19.70758 -0.82311,-5.489 -0.23568,-42.66248 1.30475,-82.60827 1.54075,-39.94557 3.10181,-96.74619 3.46909,-126.223529 0.42036,-33.758562 1.62605,-55.3856006 3.25689,-58.43262237 5.01586,-9.37242003 15.43726,-10.47263063 104.96856,-11.08254463 68.27849,-0.465182 85.54982,0.02318 87.59422,2.4888028 1.56949,1.8911749 2.84604,18.9476812 3.32729,44.4583742 0.42964,22.764572 1.86769,62.253919 3.19593,87.753949 2.77533,53.2793 2.15831,153.42232 -0.96444,156.54515 -5.51999,5.52006 -179.52338,11.7256 -190.90304,6.80827 z" />
  </g>
</svg>
