<?xml version="1.0" encoding="UTF-8" standalone="no"?>
<!-- Created with Inkscape (http://www.inkscape.org/) -->

<svg
   xmlns:dc="http://purl.org/dc/elements/1.1/"
   xmlns:cc="http://creativecommons.org/ns#"
   xmlns:rdf="http://www.w3.org/1999/02/22-rdf-syntax-ns#"
   xmlns:svg="http://www.w3.org/2000/svg"
   xmlns="http://www.w3.org/2000/svg"
   xmlns:sodipodi="http://sodipodi.sourceforge.net/DTD/sodipodi-0.dtd"
   xmlns:inkscape="http://www.inkscape.org/namespaces/inkscape"
   width="210mm"
   height="297mm"
   viewBox="0 0 744.09448819 1052.3622047"
   id="svg5993"
   version="1.1"
   inkscape:version="0.91 r13725"
   sodipodi:docname="sin.svg">
  <defs
     id="defs5995" />
  <sodipodi:namedview
     id="base"
     pagecolor="#ffffff"
     bordercolor="#666666"
     borderopacity="1.0"
     inkscape:pageopacity="0.0"
     inkscape:pageshadow="2"
     inkscape:zoom="0.35"
     inkscape:cx="375"
     inkscape:cy="520"
     inkscape:document-units="px"
     inkscape:current-layer="layer1"
     showgrid="false"
     inkscape:window-width="1600"
     inkscape:window-height="871"
     inkscape:window-x="0"
     inkscape:window-y="0"
     inkscape:window-maximized="1" />
  <metadata
     id="metadata5998">
    <rdf:RDF>
      <cc:Work
         rdf:about="">
        <dc:format>image/svg+xml</dc:format>
        <dc:type
           rdf:resource="http://purl.org/dc/dcmitype/StillImage" />
        <dc:title></dc:title>
      </cc:Work>
    </rdf:RDF>
  </metadata>
  <g
     inkscape:label="Layer 1"
     inkscape:groupmode="layer"
     id="layer1">
    <path
       inkscape:connector-curvature="0"
       id="path6003"
       style="fill:#FFFFFF;fill-opacity: 0.3;"
       d="m 211.12623,191.29704 c -4.34449,-17.30957 2.26366,-159.166306 7.90559,-169.708174 5.83033,-10.89355 12.87158,-10.84006 27.24296,0.20469 l 11.29409,8.681536 -7.19849,76.449338 c -3.9593,42.04698 -9.63891,81.00829 -12.62083,86.58044 -7.68415,14.35789 -22.77938,13.10418 -26.62332,-2.21016 z m 65.9861,104.34638 c -8.05492,-11.49971 -9.2421,-25.81806 -2.96378,-35.7347 3.38525,-5.34746 17.41982,-6.04758 77.37369,-3.85929 71.34518,2.60419 73.55115,2.9903 85.34394,14.93753 l 12.10586,12.26496 -13.05254,11.36527 c -12.58548,10.95915 -15.52786,11.36527 -82.30898,11.36527 -66.29406,0 -69.56627,-0.44194 -76.49819,-10.33904 z M 45.332251,312.19751 c -20.569687,-2.50509 -32.774637,-17.4389 -30.496094,-37.31544 1.291701,-11.2592 3.456425,-13.01858 15.457154,-12.5599 24.892312,0.95211 130.019759,14.69609 138.396589,18.0939 13.13998,5.32932 9.38862,16.2159 -8.10702,23.52603 -16.93509,7.07567 -84.940149,11.94723 -115.250629,8.25541 z" />
  </g>
</svg>
