<?xml version="1.0" encoding="UTF-8" standalone="no"?>
<!-- Created with Inkscape (http://www.inkscape.org/) -->

<svg
   xmlns:dc="http://purl.org/dc/elements/1.1/"
   xmlns:cc="http://creativecommons.org/ns#"
   xmlns:rdf="http://www.w3.org/1999/02/22-rdf-syntax-ns#"
   xmlns:svg="http://www.w3.org/2000/svg"
   xmlns="http://www.w3.org/2000/svg"
   xmlns:sodipodi="http://sodipodi.sourceforge.net/DTD/sodipodi-0.dtd"
   xmlns:inkscape="http://www.inkscape.org/namespaces/inkscape"
   width="37.825775mm"
   height="84.666664mm"
   viewBox="0 0 134.02834 299.99999"
   id="svg6035"
   version="1.1"
   inkscape:version="0.91 r13725"
   sodipodi:docname="sina.svg">
  <defs
     id="defs6037" />
  <sodipodi:namedview
     id="base"
     pagecolor="#ffffff"
     bordercolor="#666666"
     borderopacity="1.0"
     inkscape:pageopacity="0.0"
     inkscape:pageshadow="2"
     inkscape:zoom="0.35"
     inkscape:cx="322.18336"
     inkscape:cy="-255.34982"
     inkscape:document-units="px"
     inkscape:current-layer="layer1"
     showgrid="false"
     fit-margin-top="0"
     fit-margin-left="0"
     fit-margin-right="0"
     fit-margin-bottom="0"
     inkscape:window-width="1600"
     inkscape:window-height="871"
     inkscape:window-x="0"
     inkscape:window-y="0"
     inkscape:window-maximized="1" />
  <metadata
     id="metadata6040">
    <rdf:RDF>
      <cc:Work
         rdf:about="">
        <dc:format>image/svg+xml</dc:format>
        <dc:type
           rdf:resource="http://purl.org/dc/dcmitype/StillImage" />
        <dc:title></dc:title>
      </cc:Work>
    </rdf:RDF>
  </metadata>
  <g
     inkscape:label="Layer 1"
     inkscape:groupmode="layer"
     id="layer1"
     transform="translate(-52.81664,22.987613)">
    <path
       inkscape:connector-curvature="0"
       id="path6031"
       style="fill:#FFFFFF;fill-opacity: 0.3;"
       d="m 152.79132,245.64412 c 9.73312,-11.97379 12.70285,-24.61451 11.27494,-47.98806 -1.57008,-25.69425 -8.88539,-43.27249 -18.58045,-44.64666 -3.62463,-0.51403 -14.58584,3.00219 -24.35815,7.81292 -13.13917,6.46841 -19.98653,12.03452 -26.283664,21.36519 -4.683946,6.94 -8.515961,14.28413 -8.515961,16.3202 0,5.12839 10.666501,28.8126 18.780565,41.70073 12.32922,19.58407 34.15872,22.07242 47.68272,5.43568 z m -37.07667,27.5221 C 91.867272,262.10902 75.272512,234.60483 62.223456,184.50877 52.727382,148.05174 49.794598,74.851083 56.329901,37.403862 60.864675,11.419939 73.12533,-19.607287 79.883131,-22.200586 91.027095,-26.477038 92.182128,-12.826536 82.3225,6.6307602 72.184678,26.636327 68.352384,67.683548 72.29047,114.07717 c 3.444111,40.57452 5.874524,48.43334 13.685486,44.25288 2.755904,-1.47492 6.499479,-4.47572 8.31949,-6.66852 5.603607,-6.75192 36.438284,-19.12145 48.864904,-19.60227 24.38613,-0.94373 41.2241,22.14044 43.38247,59.47599 1.59192,27.53749 -3.07132,47.1003 -14.8226,62.17983 -16.79963,21.55802 -36.6174,28.44065 -56.00557,19.45114 z" />
  </g>
</svg>
