<?xml version="1.0" encoding="UTF-8" standalone="no"?>
<!-- Created with Inkscape (http://www.inkscape.org/) -->

<svg
   xmlns:dc="http://purl.org/dc/elements/1.1/"
   xmlns:cc="http://creativecommons.org/ns#"
   xmlns:rdf="http://www.w3.org/1999/02/22-rdf-syntax-ns#"
   xmlns:svg="http://www.w3.org/2000/svg"
   xmlns="http://www.w3.org/2000/svg"
   xmlns:sodipodi="http://sodipodi.sourceforge.net/DTD/sodipodi-0.dtd"
   xmlns:inkscape="http://www.inkscape.org/namespaces/inkscape"
   width="49.502678mm"
   height="84.666672mm"
   viewBox="0 0 175.40319 300.00002"
   id="svg6077"
   version="1.1"
   inkscape:version="0.91 r13725"
   sodipodi:docname="sinpin.svg">
  <defs
     id="defs6079" />
  <sodipodi:namedview
     id="base"
     pagecolor="#ffffff"
     bordercolor="#666666"
     borderopacity="1.0"
     inkscape:pageopacity="0.0"
     inkscape:pageshadow="2"
     inkscape:zoom="0.35"
     inkscape:cx="355.39749"
     inkscape:cy="-253.23148"
     inkscape:document-units="px"
     inkscape:current-layer="layer1"
     showgrid="false"
     fit-margin-top="0"
     fit-margin-left="0"
     fit-margin-right="0"
     fit-margin-bottom="0"
     inkscape:window-width="1600"
     inkscape:window-height="871"
     inkscape:window-x="0"
     inkscape:window-y="0"
     inkscape:window-maximized="1" />
  <metadata
     id="metadata6082">
    <rdf:RDF>
      <cc:Work
         rdf:about="">
        <dc:format>image/svg+xml</dc:format>
        <dc:type
           rdf:resource="http://purl.org/dc/dcmitype/StillImage" />
        <dc:title></dc:title>
      </cc:Work>
    </rdf:RDF>
  </metadata>
  <g
     inkscape:label="Layer 1"
     inkscape:groupmode="layer"
     id="layer1"
     transform="translate(-19.602512,20.86928)">
    <path
       inkscape:connector-curvature="0"
       id="path6001"
       style="fill:#FFFFFF;fill-opacity: 0.3;"
       d="m 168.87336,126.98228 c -8.71314,-4.35246 -10.40812,-6.84478 -11.19783,-16.46437 -1.87598,-22.857096 20.63466,-34.054041 31.76472,-15.799638 7.43149,12.188768 7.41946,24.083598 -0.0293,31.535318 -7.13256,7.13256 -7.67672,7.15192 -20.53463,0.72849 z M 23.405183,277.50334 c -2.890396,-2.1136 -4.27267,-6.59924 -3.659564,-11.87752 0.860498,-7.41329 2.740492,-8.92669 14.9275,-12.02097 7.668511,-1.94668 25.489631,-5.15214 39.602491,-7.12287 14.11316,-1.97045 27.43133,-5.00869 29.59627,-6.7515 3.1239,-2.51431 3.51787,-11.0708 1.90942,-41.45471 -2.15026,-40.61574 0.72165,-80.85657 10.47765,-146.826694 3.1019,-20.974655 5.64849,-40.445881 5.65905,-43.2693919 0.0293,-6.774374 -8.19273,-6.650873 -48.34408,0.726534 C 44.44731,14.257542 41.07376,14.368722 34.69248,10.187579 30.13526,7.2015511 28.02254,3.3780031 28.618044,-0.80577986 29.351424,-5.9605629 31.795338,-7.4059029 41.05557,-8.1624529 c 6.33816,-0.51826 29.34809,-4.0670301 51.13299,-7.8867701 41.16136,-7.21763 48.22645,-6.67346 51.60615,3.97492 0.94655,2.9810401 -1.76891,31.033981 -6.03307,62.340193 -11.29669,82.93584 -13.41351,159.87821 -5.4144,196.80504 2.79506,12.90337 -5.89109,18.76953 -31.23316,21.09317 -11.94206,1.09479 -33.26698,4.4082 -47.38864,7.36342 -19.774553,4.13773 -26.743125,4.59213 -30.320257,1.97631 z" />
  </g>
</svg>
