<?xml version="1.0" encoding="UTF-8" standalone="no"?>
<svg
   xmlns:dc="http://purl.org/dc/elements/1.1/"
   xmlns:cc="http://creativecommons.org/ns#"
   xmlns:rdf="http://www.w3.org/1999/02/22-rdf-syntax-ns#"
   xmlns:svg="http://www.w3.org/2000/svg"
   xmlns="http://www.w3.org/2000/svg"
   id="svg3401"
   version="1.1"
   viewBox="0 0 43.397099 84.666695"
   height="84.666695mm"
   width="43.397099mm">
  <defs
     id="defs3395" />
  <metadata
     id="metadata3398">
    <rdf:RDF>
      <cc:Work
         rdf:about="">
        <dc:format>image/svg+xml</dc:format>
        <dc:type
           rdf:resource="http://purl.org/dc/dcmitype/StillImage" />
        <dc:title></dc:title>
      </cc:Work>
    </rdf:RDF>
  </metadata>
  <g
     transform="translate(-88.641737,-95.387573)"
     id="layer1">
    <path
       d="m 110.87243,110.48871 c -1.028,-1.26217 -3.52848,-10.24384 -3.13635,-11.265667 0.39654,-1.033415 2.20287,-1.184775 3.59885,-0.301488 1.28509,0.813092 2.61788,9.009135 1.77537,10.917545 -0.73193,1.65802 -1.2856,1.81873 -2.23787,0.64977 z m 10.26773,1.50406 c -1.48086,-2.767 -0.46059,-5.52471 4.70168,-12.708127 2.117,-2.945891 3.19009,-3.89707 4.39648,-3.89707 2.66888,0 2.36712,2.385881 -0.88125,6.967627 -1.58865,2.24073 -3.659,5.60855 -4.60079,7.48398 -1.8478,3.67974 -2.56938,4.10949 -3.61612,2.15359 z m -23.730021,0.0614 c -3.416907,-2.1249 -8.768402,-8.30713 -8.768402,-10.12939 0,-1.32569 0.31844,-1.66269 1.571378,-1.66269 1.136264,0 2.938365,1.48372 6.508088,5.35846 2.715182,2.9472 4.854437,5.79352 4.753897,6.3253 -0.27103,1.43348 -1.865854,1.47598 -4.064961,0.10817 z m 7.002131,61.33058 c 4.72239,-0.86411 10.33983,-1.75323 12.48321,-1.97585 2.14339,-0.22247 4.84698,-0.55157 6.00799,-0.73185 l 2.1109,-0.3268 -0.009,-19.94302 c -0.005,-10.96871 -0.19309,-20.6313 -0.41824,-21.47254 -0.37191,-1.38937 -0.65368,-1.49002 -3.07631,-1.09931 -3.27011,0.52702 -22.682825,0.49174 -24.824047,-0.046 l -1.550022,-0.38894 -0.0065,8.02689 c -0.0033,4.41481 -0.437347,14.45713 -0.964393,22.31616 -1.226789,18.29451 -1.248227,17.21208 0.340991,17.21208 0.725408,0 5.182663,-0.7073 9.905041,-1.57118 z m -14.456155,5.81154 c -0.583639,-0.70347 -0.690502,-3.32072 -0.404512,-9.90508 0.213801,-4.92212 0.565382,-17.0733 0.781416,-27.00269 0.384413,-17.67221 0.422924,-18.07312 1.82135,-18.98931 1.103499,-0.72342 1.93801,-0.78532 3.666956,-0.27311 1.231084,0.3644 6.622545,0.70961 11.981015,0.76722 7.70349,0.0829 10.39316,-0.12581 12.85055,-0.99621 3.69698,-1.30935 5.68654,-1.39021 7.11425,-0.28921 0.9325,0.71958 1.07409,3.69992 1.24189,26.14281 0.10418,13.93202 -0.0384,25.69626 -0.31721,26.14281 -0.34407,0.55157 -2.374,0.81194 -6.32783,0.81194 -4.06873,0 -9.2212,0.68429 -17.11467,2.27327 -12.659792,2.54836 -14.164182,2.67792 -15.293228,1.31756 z"
       style="fill:#FFFFFF;stroke-width:2.16503811"
       id="path6359" />
  </g>
</svg>
