<?xml version="1.0" encoding="UTF-8" standalone="no"?>
<!-- Created with Inkscape (http://www.inkscape.org/) -->

<svg
   xmlns:dc="http://purl.org/dc/elements/1.1/"
   xmlns:cc="http://creativecommons.org/ns#"
   xmlns:rdf="http://www.w3.org/1999/02/22-rdf-syntax-ns#"
   xmlns:svg="http://www.w3.org/2000/svg"
   xmlns="http://www.w3.org/2000/svg"
   xmlns:sodipodi="http://sodipodi.sourceforge.net/DTD/sodipodi-0.dtd"
   xmlns:inkscape="http://www.inkscape.org/namespaces/inkscape"
   width="85.616623mm"
   height="84.666664mm"
   viewBox="0 0 303.36599 299.99999"
   id="svg6161"
   version="1.1"
   inkscape:version="0.91 r13725"
   sodipodi:docname="soweli.svg">
  <defs
     id="defs6163" />
  <sodipodi:namedview
     id="base"
     pagecolor="#ffffff"
     bordercolor="#666666"
     borderopacity="1.0"
     inkscape:pageopacity="0.0"
     inkscape:pageshadow="2"
     inkscape:zoom="0.35"
     inkscape:cx="350.28"
     inkscape:cy="-190.60382"
     inkscape:document-units="px"
     inkscape:current-layer="layer1"
     showgrid="false"
     fit-margin-top="0"
     fit-margin-left="0"
     fit-margin-right="0"
     fit-margin-bottom="0"
     inkscape:window-width="1600"
     inkscape:window-height="871"
     inkscape:window-x="0"
     inkscape:window-y="0"
     inkscape:window-maximized="1" />
  <metadata
     id="metadata6166">
    <rdf:RDF>
      <cc:Work
         rdf:about="">
        <dc:format>image/svg+xml</dc:format>
        <dc:type
           rdf:resource="http://purl.org/dc/dcmitype/StillImage" />
        <dc:title></dc:title>
      </cc:Work>
    </rdf:RDF>
  </metadata>
  <g
     inkscape:label="Layer 1"
     inkscape:groupmode="layer"
     id="layer1"
     transform="translate(-24.719998,-41.758387)">
    <path
       inkscape:connector-curvature="0"
       id="path6365"
       style="fill:#FFFFFF;fill-opacity: 0.3;"
       d="m 217.06099,155.57009 c -4.28971,-4.28961 -1.62424,-15.18398 5.30821,-21.69672 8.47578,-7.96246 15.08938,-6.56456 20.00726,4.22916 2.84406,6.24203 2.50893,8.52859 -1.97634,13.48469 -5.18482,5.72921 -19.201,8.1212 -23.33913,3.98287 z m 35.45322,0.28292 c -2.57395,-2.57395 -4.67984,-5.7435 -4.67984,-7.04373 0,-5.04038 12.60716,-18.05722 17.48891,-18.05722 13.21696,0 16.64859,17.30675 4.95133,24.97111 -9.14872,5.99455 -11.87574,6.0145 -17.7604,0.13103 z M 27.13157,323.71781 c -2.480433,-4.63447 -3.001893,-19.18799 -1.773837,-49.49907 1.581653,-39.03444 2.344138,-43.57779 8.394779,-50.01845 7.921862,-8.43241 9.589481,-8.64236 16.193151,-2.03879 4.345201,4.3453 4.767391,8.99406 3.041799,33.50327 -2.607399,37.03497 -7.170594,65.97048 -11.162199,70.78006 -4.771859,5.74976 -10.750928,4.64013 -14.693693,-2.72702 z m 107.21346,7.30938 c -0.17769,-1.22846 -0.26108,-24.77724 -0.18663,-52.33092 0.14692,-54.04183 1.58543,-59.59503 15.02684,-58.00832 9.67257,1.14209 11.60574,8.02858 11.98812,42.707 0.29185,26.48069 -5.48779,58.01546 -12.09175,65.97256 -3.45576,4.16393 -14.20013,5.37392 -14.73668,1.65968 z m -54.313625,1.48903 c -0.922209,-3.68536 -0.517192,-25.31805 0.901362,-48.07288 2.096957,-33.65456 3.658359,-42.82076 8.370162,-49.13813 14.890541,-19.96408 23.023551,-6.30904 20.207191,33.92705 -3.5036,50.05419 -9.948241,69.98462 -22.629951,69.98462 -2.881083,0 -5.914346,-2.96795 -6.848466,-6.70066 z m 115.907735,7.05832 c -1.00649,-1.6287 -0.47352,-22.14224 1.18338,-45.58589 6.97345,-98.639 4.72054,-91.76294 30.06579,-91.76294 9.82257,0 22.17162,-1.80709 27.44231,-4.01593 25.71642,-10.77644 46.73454,-40.73104 46.78099,-66.67092 0.0298,-14.73965 -0.5827,-15.99431 -11.13976,-22.9353 -16.58596,-10.90479 -50.62608,-24.62118 -83.39337,-33.602737 -27.88366,-7.64292 -61.37473,-9.86307 -94.54624,-6.26764 -7.66843,0.83088 -9.05969,-0.10722 -9.81969,-6.63216 -1.63714,-14.05262 8.0658,-18.86131 40.70454,-20.17225 35.45977,-1.42411 75.83275,6.09223 118.43879,22.04992 33.65715,12.60616 47.40937,20.615382 58.95257,34.333559 7.43931,8.841288 8.13787,11.595108 7.09505,27.971808 -2.79006,43.81692 -41.67907,89.95346 -85.15808,101.02801 l -14.0685,3.58351 -3.27171,43.30708 c -3.59244,47.5529 -9.26288,65.74325 -21.01633,67.41811 -3.53079,0.5033 -7.24326,-0.41792 -8.24974,-2.04623 z" />
  </g>
</svg>
