<?xml version="1.0" encoding="UTF-8" standalone="no"?>
<!-- Created with Inkscape (http://www.inkscape.org/) -->

<svg
   xmlns:dc="http://purl.org/dc/elements/1.1/"
   xmlns:cc="http://creativecommons.org/ns#"
   xmlns:rdf="http://www.w3.org/1999/02/22-rdf-syntax-ns#"
   xmlns:svg="http://www.w3.org/2000/svg"
   xmlns="http://www.w3.org/2000/svg"
   xmlns:sodipodi="http://sodipodi.sourceforge.net/DTD/sodipodi-0.dtd"
   xmlns:inkscape="http://www.inkscape.org/namespaces/inkscape"
   width="212.4155mm"
   height="84.666664mm"
   viewBox="0 0 752.65334 299.99999"
   id="svg6306"
   version="1.1"
   inkscape:version="0.91 r13725"
   sodipodi:docname="supa.svg">
  <defs
     id="defs6308" />
  <sodipodi:namedview
     id="base"
     pagecolor="#ffffff"
     bordercolor="#666666"
     borderopacity="1.0"
     inkscape:pageopacity="0.0"
     inkscape:pageshadow="2"
     inkscape:zoom="0.35"
     inkscape:cx="410.36599"
     inkscape:cy="-175.59359"
     inkscape:document-units="px"
     inkscape:current-layer="layer1"
     showgrid="false"
     inkscape:window-width="1600"
     inkscape:window-height="871"
     inkscape:window-x="0"
     inkscape:window-y="0"
     inkscape:window-maximized="1"
     fit-margin-top="0"
     fit-margin-left="0"
     fit-margin-right="0"
     fit-margin-bottom="0" />
  <metadata
     id="metadata6311">
    <rdf:RDF>
      <cc:Work
         rdf:about="">
        <dc:format>image/svg+xml</dc:format>
        <dc:type
           rdf:resource="http://purl.org/dc/dcmitype/StillImage" />
        <dc:title></dc:title>
      </cc:Work>
    </rdf:RDF>
  </metadata>
  <g
     inkscape:label="Layer 1"
     inkscape:groupmode="layer"
     id="layer1"
     transform="translate(35.365987,-56.768613)">
    <path
       inkscape:connector-curvature="0"
       style="fill:#FFFFFF;fill-opacity: 0.3;"
       d="M 123.29487,349.49716 C 100.34805,332.20294 92.268749,295.50005 89.181619,194.52574 l -2.98552,-97.664777 -40.99934,4.406107 c -68.114374,7.32038 -70.837834,6.8991 -77.587627,-12.004657 -4.409205,-12.34788 -3.958805,-19.20237 1.627302,-24.78125 5.98777,-5.9791 89.985685,-7.71255 373.667836,-7.71255 l 365.94414,0 5.58693,14.69281 c 9.49742,24.97764 -2.10516,30.405967 -75.10578,35.137337 l -67.34801,4.36521 -4.37451,46.68541 c -2.40626,25.67771 -2.97313,78.44877 -1.25971,117.26922 3.00782,68.16145 2.68505,70.51877 -9.39953,68.70912 -6.88299,-1.03049 -18.37034,-9.74523 -25.52717,-19.36469 -11.87642,-15.96408 -13.04609,-25.96765 -13.39922,-114.61329 l -0.38411,-97.12331 -70.8589,-3.82808 c -38.97223,-2.10517 -123.82882,-4.89306 -188.56984,-6.19532 l -117.71095,-2.36723 -1.72436,89.27199 c -1.25352,64.92626 0.77441,97.79921 7.44057,120.53973 6.598,22.50819 7.30241,33.51169 2.51529,39.28014 -8.28747,9.98623 -12.47984,10.03083 -25.43114,0.2726 z"
       id="path6377" />
  </g>
</svg>
