<?xml version="1.0" encoding="UTF-8" standalone="no"?>
<!-- Created with Inkscape (http://www.inkscape.org/) -->

<svg
   xmlns:dc="http://purl.org/dc/elements/1.1/"
   xmlns:cc="http://creativecommons.org/ns#"
   xmlns:rdf="http://www.w3.org/1999/02/22-rdf-syntax-ns#"
   xmlns:svg="http://www.w3.org/2000/svg"
   xmlns="http://www.w3.org/2000/svg"
   xmlns:sodipodi="http://sodipodi.sourceforge.net/DTD/sodipodi-0.dtd"
   xmlns:inkscape="http://www.inkscape.org/namespaces/inkscape"
   width="60.291119mm"
   height="84.666664mm"
   viewBox="0 0 213.62995 299.99999"
   id="svg6600"
   version="1.1"
   inkscape:version="0.91 r13725"
   sodipodi:docname="toki.svg">
  <defs
     id="defs6602" />
  <sodipodi:namedview
     id="base"
     pagecolor="#ffffff"
     bordercolor="#666666"
     borderopacity="1.0"
     inkscape:pageopacity="0.0"
     inkscape:pageshadow="2"
     inkscape:zoom="0.35"
     inkscape:cx="334.03364"
     inkscape:cy="-181.29566"
     inkscape:document-units="px"
     inkscape:current-layer="layer1"
     showgrid="false"
     inkscape:window-width="1600"
     inkscape:window-height="871"
     inkscape:window-x="0"
     inkscape:window-y="0"
     inkscape:window-maximized="1"
     fit-margin-top="0"
     fit-margin-left="0"
     fit-margin-right="0"
     fit-margin-bottom="0" />
  <metadata
     id="metadata6605">
    <rdf:RDF>
      <cc:Work
         rdf:about="">
        <dc:format>image/svg+xml</dc:format>
        <dc:type
           rdf:resource="http://purl.org/dc/dcmitype/StillImage" />
        <dc:title></dc:title>
      </cc:Work>
    </rdf:RDF>
  </metadata>
  <g
     inkscape:label="Layer 1"
     inkscape:groupmode="layer"
     id="layer1"
     transform="translate(-40.966358,-51.066548)">
    <path
       inkscape:connector-curvature="0"
       id="path6719"
       style="fill:#FFFFFF;fill-opacity: 0.3;"
       d="m 151.87201,110.74769 c -6.54751,-2.51412 -9.8605,-14.14213 -10.74739,-37.720715 -0.73079,-19.429262 1.4967,-23.751582 11.00988,-21.364072 7.78247,1.95337 9.56932,8.50188 9.72,35.622172 0.12485,22.495485 -1.64828,26.663125 -9.98249,23.462615 z m -66.92818,5.30665 C 80.95249,113.62052 72.562059,105.92924 66.298433,98.962595 57.359105,89.019939 54.910013,84.508221 54.910013,77.983226 c 0,-7.894587 0.384867,-8.274655 7.647581,-7.558907 6.572928,0.647845 9.62694,3.613133 21.733196,21.100539 13.28176,19.185322 15.89777,26.327362 10.31589,28.163242 -1.32322,0.4359 -5.6715,-1.20003 -9.66285,-3.63376 z m 122.64506,1.03063 c -3.54767,-5.41438 -3.44432,-6.54371 1.4861,-16.23955 8.00747,-15.74638 23.18106,-37.328565 29.27604,-41.640327 5.11619,-3.61938 5.7213,-3.48541 10.83209,2.39958 2.97724,3.428299 5.41318,7.555069 5.41318,9.171082 0,1.615772 -4.05989,8.348877 -9.02197,14.962331 -4.96209,6.613454 -13.08006,17.681364 -18.03995,24.595304 -10.00205,13.94265 -14.28405,15.39223 -19.94549,6.75158 z m -49.22695,209.66747 c 10.08763,-3.73078 17.53958,-9.23778 31.35713,-23.17324 30.01872,-30.27482 39.39187,-54.56827 34.90617,-90.47062 -1.42711,-11.4223 -3.31753,-15.50748 -11.0652,-23.91283 -8.42621,-9.14124 -11.30068,-10.5545 -29.26373,-14.38607 -10.95585,-2.3368 -24.44983,-5.83156 -29.98666,-7.76581 -14.04217,-4.90635 -24.30102,-2.33928 -45.21527,11.31376 -29.768343,19.4331 -49.304658,49.06464 -49.349151,74.85013 -0.02879,16.73511 6.980494,40.08279 15.89566,52.94738 7.063891,10.19316 21.393541,21.17516 33.400941,25.59786 9.51715,3.50532 32.66813,1.1582 49.32011,-5.00056 z M 96.35793,345.67118 C 51.437893,324.18346 27.037185,255.59631 49.369661,213.5931 60.156098,193.30597 88.91016,166.18855 111.32401,155.16488 c 23.51871,-11.56683 36.7493,-12.02232 72.15808,-2.48453 26.55154,7.15213 35.16309,12.53068 47.94848,29.94794 10.61792,14.46445 14.50827,31.16189 12.94482,55.55867 -1.53042,23.88156 -8.58608,41.65505 -25.69734,64.73304 -22.97107,30.98121 -50.5399,45.9485 -87.98348,47.76686 -19.42635,0.94338 -22.95693,0.4271 -34.33664,-5.01568 z" />
  </g>
</svg>
