<?xml version="1.0" encoding="UTF-8" standalone="no"?>
<!-- Created with Inkscape (http://www.inkscape.org/) -->

<svg
   xmlns:dc="http://purl.org/dc/elements/1.1/"
   xmlns:cc="http://creativecommons.org/ns#"
   xmlns:rdf="http://www.w3.org/1999/02/22-rdf-syntax-ns#"
   xmlns:svg="http://www.w3.org/2000/svg"
   xmlns="http://www.w3.org/2000/svg"
   xmlns:sodipodi="http://sodipodi.sourceforge.net/DTD/sodipodi-0.dtd"
   xmlns:inkscape="http://www.inkscape.org/namespaces/inkscape"
   width="63.200157mm"
   height="84.666664mm"
   viewBox="0 0 223.93756 299.99999"
   id="svg6734"
   version="1.1"
   inkscape:version="0.91 r13725"
   sodipodi:docname="unpa.svg">
  <defs
     id="defs6736" />
  <sodipodi:namedview
     id="base"
     pagecolor="#ffffff"
     bordercolor="#666666"
     borderopacity="1.0"
     inkscape:pageopacity="0.0"
     inkscape:pageshadow="2"
     inkscape:zoom="0.35"
     inkscape:cx="366.75837"
     inkscape:cy="-197.56304"
     inkscape:document-units="px"
     inkscape:current-layer="layer1"
     showgrid="false"
     fit-margin-top="0"
     fit-margin-left="0"
     fit-margin-right="0"
     fit-margin-bottom="0"
     inkscape:window-width="1600"
     inkscape:window-height="871"
     inkscape:window-x="0"
     inkscape:window-y="0"
     inkscape:window-maximized="1" />
  <metadata
     id="metadata6739">
    <rdf:RDF>
      <cc:Work
         rdf:about="">
        <dc:format>image/svg+xml</dc:format>
        <dc:type
           rdf:resource="http://purl.org/dc/dcmitype/StillImage" />
        <dc:title></dc:title>
      </cc:Work>
    </rdf:RDF>
  </metadata>
  <g
     inkscape:label="Layer 1"
     inkscape:groupmode="layer"
     id="layer1"
     transform="translate(-8.2416282,-34.799159)">
    <path
       inkscape:connector-curvature="0"
       id="path6773"
       style="fill:#FFFFFF;fill-opacity: 0.3;"
       d="m 175.30333,160.97505 c 22.83937,-30.96182 38.1766,-61.638192 40.46117,-80.927937 1.15091,-9.717613 0.56692,-11.688853 -5.45666,-18.430646 -6.1172,-6.846364 -7.92641,-7.538837 -19.4281,-7.435414 -6.97561,0.06129 -16.45451,1.6897 -21.06433,3.615893 -10.89349,4.551525 -31.46162,23.833916 -31.46162,29.494824 0,2.422164 2.54068,8.143058 5.64597,12.71274 3.56962,5.25319 8.42973,19.99141 13.21514,40.07498 4.16304,17.47111 8.12406,31.77634 8.80229,31.78921 0.67799,0.023 4.85696,-4.88938 9.28614,-10.89365 z m -86.492316,4.022 c 5.801717,-32.59843 10.072239,-47.86916 17.803596,-63.66206 l 6.97545,-14.248916 -5.0016,-8.092955 C 101.25095,67.120862 83.876287,52.741636 73.488264,49.944392 56.984118,45.500426 40.654566,51.901383 30.899108,66.639142 c -5.576026,8.423448 -6.310481,11.696897 -6.310481,28.123437 0,16.335761 0.899549,20.398211 7.417182,33.495681 7.914684,15.90483 25.896704,40.89455 40.389773,56.12989 10.701357,11.24942 11.03162,10.8594 16.415432,-19.3911 z m 36.373286,44.54469 c 18.29834,-11.32618 24.66092,-19.04199 24.66092,-29.90645 0,-19.75399 -12.98815,-68.95984 -19.6649,-74.50123 -4.3456,-3.60648 -9.29374,0.35393 -13.74092,10.99729 -3.7842,9.05709 -13.74773,55.36502 -16.10424,74.84897 -1.447924,11.97155 -1.071311,13.92026 3.66415,18.96086 6.65155,7.08033 9.17775,7.03253 21.18499,-0.39913 z m -3.89613,101.97105 c 7.9271,-9.36 17.93215,-31.12063 22.51616,-48.97142 3.94914,-15.37875 7.48735,-49.28031 5.14318,-49.28031 -0.8424,0 -7.86566,3.19737 -15.6072,7.10538 -10.0465,5.0714 -16.11298,6.7696 -21.19357,5.93257 -3.91498,-0.64506 -9.18656,-1.51549 -11.71467,-1.93424 -4.339396,-0.7186 -4.638327,0.71783 -5.342751,25.66887 -0.864845,30.63523 2.649541,54.87433 9.155371,63.14518 6.02144,7.6549 9.43179,7.32165 17.04348,-1.66603 z m -18.79622,20.27226 C 98.568617,330.07719 93.158835,325.59048 90.47007,321.81463 79.76925,306.78659 74.425964,268.02945 78.20856,232.87578 L 80.425717,212.27073 64.190318,194.95406 C 43.119784,172.4805 22.005966,144.13712 14.481531,128.22448 6.9217024,112.23714 6.1151574,84.993714 12.696605,67.936754 21.752235,44.467117 49.237822,30.106965 73.439004,36.200871 89.364978,40.21115 96.930782,44.934588 111.30955,59.844719 l 13.17569,13.662621 10.6711,-10.671172 c 26.03023,-26.030159 62.05839,-31.707385 84.00833,-13.237898 14.96061,12.588632 16.79564,27.872005 6.67567,55.60129 -9.13047,25.01822 -26.1145,53.06328 -49.1054,81.08606 -8.88855,10.83389 -9.00285,11.22322 -11.13007,37.92172 -2.54305,31.91767 -6.58053,50.68479 -15.44057,71.77248 -7.69773,18.32102 -17.0064,31.19901 -25.86223,35.77842 -7.83517,4.05188 -12.55079,4.05724 -21.81012,0 z" />
  </g>
</svg>
