<?xml version="1.0" encoding="UTF-8" standalone="no"?>
<!-- Created with Inkscape (http://www.inkscape.org/) -->

<svg
   xmlns:dc="http://purl.org/dc/elements/1.1/"
   xmlns:cc="http://creativecommons.org/ns#"
   xmlns:rdf="http://www.w3.org/1999/02/22-rdf-syntax-ns#"
   xmlns:svg="http://www.w3.org/2000/svg"
   xmlns="http://www.w3.org/2000/svg"
   xmlns:sodipodi="http://sodipodi.sourceforge.net/DTD/sodipodi-0.dtd"
   xmlns:inkscape="http://www.inkscape.org/namespaces/inkscape"
   width="93.440163mm"
   height="84.666664mm"
   viewBox="0 0 331.08719 299.99999"
   id="svg6782"
   version="1.1"
   inkscape:version="0.91 r13725"
   sodipodi:docname="uta.svg">
  <defs
     id="defs6784" />
  <sodipodi:namedview
     id="base"
     pagecolor="#ffffff"
     bordercolor="#666666"
     borderopacity="1.0"
     inkscape:pageopacity="0.0"
     inkscape:pageshadow="2"
     inkscape:zoom="0.35"
     inkscape:cx="453.06922"
     inkscape:cy="-194.51941"
     inkscape:document-units="px"
     inkscape:current-layer="layer1"
     showgrid="false"
     fit-margin-top="0"
     fit-margin-left="0"
     fit-margin-right="0"
     fit-margin-bottom="0"
     inkscape:window-width="1600"
     inkscape:window-height="871"
     inkscape:window-x="0"
     inkscape:window-y="0"
     inkscape:window-maximized="1" />
  <metadata
     id="metadata6787">
    <rdf:RDF>
      <cc:Work
         rdf:about="">
        <dc:format>image/svg+xml</dc:format>
        <dc:type
           rdf:resource="http://purl.org/dc/dcmitype/StillImage" />
        <dc:title></dc:title>
      </cc:Work>
    </rdf:RDF>
  </metadata>
  <g
     inkscape:label="Layer 1"
     inkscape:groupmode="layer"
     id="layer1"
     transform="translate(78.069215,-37.84279)">
    <path
       inkscape:connector-curvature="0"
       id="path6733"
       style="fill:#FFFFFF;fill-opacity: 0.3;"
       d="m 122.64017,217.70063 c 35.3874,-9.83057 73.89557,-65.34742 78.8895,-113.73452 l 2.36653,-22.928756 -96.44553,0 c -53.044871,0 -107.53441143,1.159013 -121.087761,2.575822 -24.06539,2.515125 -24.58487,2.821024 -22.18578,13.064016 8.40652,35.890668 58.98235,100.802748 90.81769,116.560768 18.5552,9.1846 44.48868,10.89539 67.645351,4.46267 z M 68.311949,251.3885 C 24.867719,240.99397 -8.1009014,214.05757 -42.478021,160.86934 -60.407342,133.12941 -79.986751,76.535695 -77.918348,58.430577 l 1.32114,-11.561453 138.679567,-2.633303 c 76.273751,-1.448297 145.977981,-3.862126 154.898361,-5.364286 12.95642,-2.181892 18.21204,-1.110777 26.12803,5.322883 l 9.90923,8.053865 -13.03387,51.576337 c -21.79319,86.23818 -46.62474,123.53695 -93.81451,140.91691 -31.23023,11.50196 -50.637201,13.15888 -77.857381,6.64617 z m 4.6189,79.75361 c -7.93461,-8.76777 -8.96178,-25.28068 -2.00542,-32.23717 2.653,-2.653 10.75121,-4.82364 17.99591,-4.82364 9.76961,0 14.951671,2.71571 20.060431,10.51232 6.16877,9.41493 6.2702,11.61853 0.97277,21.10341 -7.53707,13.49372 -27.131211,16.37544 -37.023021,5.44508 z" />
  </g>
</svg>
