<?xml version="1.0" encoding="UTF-8" standalone="no"?>
<!-- Created with Inkscape (http://www.inkscape.org/) -->

<svg
   xmlns:dc="http://purl.org/dc/elements/1.1/"
   xmlns:cc="http://creativecommons.org/ns#"
   xmlns:rdf="http://www.w3.org/1999/02/22-rdf-syntax-ns#"
   xmlns:svg="http://www.w3.org/2000/svg"
   xmlns="http://www.w3.org/2000/svg"
   xmlns:sodipodi="http://sodipodi.sourceforge.net/DTD/sodipodi-0.dtd"
   xmlns:inkscape="http://www.inkscape.org/namespaces/inkscape"
   width="38.028389mm"
   height="84.666664mm"
   viewBox="0 0 134.74626 299.99999"
   id="svg6950"
   version="1.1"
   inkscape:version="0.91 r13725"
   sodipodi:docname="waso.svg">
  <defs
     id="defs6952" />
  <sodipodi:namedview
     id="base"
     pagecolor="#ffffff"
     bordercolor="#666666"
     borderopacity="1.0"
     inkscape:pageopacity="0.0"
     inkscape:pageshadow="2"
     inkscape:zoom="0.35"
     inkscape:cx="386.16267"
     inkscape:cy="-187.22282"
     inkscape:document-units="px"
     inkscape:current-layer="layer1"
     showgrid="false"
     fit-margin-top="0"
     fit-margin-left="0"
     fit-margin-right="0"
     fit-margin-bottom="0"
     inkscape:window-width="1600"
     inkscape:window-height="871"
     inkscape:window-x="0"
     inkscape:window-y="0"
     inkscape:window-maximized="1" />
  <metadata
     id="metadata6955">
    <rdf:RDF>
      <cc:Work
         rdf:about="">
        <dc:format>image/svg+xml</dc:format>
        <dc:type
           rdf:resource="http://purl.org/dc/dcmitype/StillImage" />
        <dc:title></dc:title>
      </cc:Work>
    </rdf:RDF>
  </metadata>
  <g
     inkscape:label="Layer 1"
     inkscape:groupmode="layer"
     id="layer1"
     transform="translate(11.162666,-45.139393)">
    <path
       inkscape:connector-curvature="0"
       id="path6729"
       style="fill:#FFFFFF;fill-opacity: 0.3;"
       d="m 45.198124,188.28791 c -6.07148,-6.70882 -1.67404,-17.0249 7.25759,-17.0249 5.31926,0 6.13596,1.06882 6.13596,8.03073 0,7.33473 -3.49191,13.87126 -7.41017,13.87126 -0.86343,0 -3.55591,-2.19458 -5.98338,-4.87709 z m -30.25735,-0.59865 c -4.262131,-10.98944 9.17766,-20.79545 15.26811,-11.14008 1.82614,2.89496 1.74219,5.88068 -0.29121,10.3426 -3.59679,7.89445 -12.04999,8.34442 -14.97707,0.7974 z M 7.9199663,344.3128 c -2.152966,-1.33091 -3.098158,-16.98085 -3.482173,-57.66574 -0.514291,-54.50577 -0.395858,-56.02382 4.974671,-63.5659 3.0258817,-4.24971 7.9372797,-8.60869 10.9139997,-9.68675 2.97673,-1.07782 20.74362,-1.70617 39.48199,-1.39589 18.73837,0.30987 35.55788,-0.37963 37.37672,-1.53338 3.843556,-2.43721 -14.2835,-30.82583 -46.78679,-73.27213 C 20.969414,98.76135 -3.3357087,66.208183 -8.2074407,58.698721 -11.79085,53.175284 -12.007923,51.332596 -9.4402797,48.238576 c 1.714196,-2.065601 5.092699,-3.428878 7.507515,-3.029775 4.48066,0.740611 33.5995987,37.860992 89.3377287,113.886199 35.907576,48.97674 37.719356,51.96709 35.576126,58.71947 -3.15072,9.92695 -16.21721,12.76204 -56.905016,12.34615 -24.93712,-0.25472 -38.65239,0.54268 -40.86108,2.37563 -2.62848,2.18144 -3.23152,12.49363 -2.87865,49.22521 0.24579,25.55597 -0.38369,49.50603 -1.39759,53.22207 -2.05125,7.51652 -8.488241,12.12932 -13.0187877,9.32927 z" />
  </g>
</svg>
