<?xml version="1.0" encoding="UTF-8"?>
<svg xmlns="http://www.w3.org/2000/svg" xmlns:xlink="http://www.w3.org/1999/xlink" width="128px" height="128px" viewBox="0 0 128 128" version="1.1">
<defs>
<linearGradient id="linear0" gradientUnits="userSpaceOnUse" x1="6.247948" y1="242.24794" x2="121.752052" y2="242.24794" gradientTransform="matrix(1,0,0,1,0,-172)">
<stop offset="0" style="stop-color:rgb(76.862746%,76.862746%,0%);stop-opacity:1;"/>
<stop offset="0.101746" style="stop-color:rgb(100%,100%,38.82353%);stop-opacity:1;"/>
<stop offset="0.171007" style="stop-color:rgb(75.294119%,75.294119%,0%);stop-opacity:1;"/>
<stop offset="0.846308" style="stop-color:rgb(75.294119%,75.294119%,0%);stop-opacity:1;"/>
<stop offset="0.924227" style="stop-color:rgb(100%,100%,52.941179%);stop-opacity:1;"/>
<stop offset="1" style="stop-color:rgb(75.294119%,75.294119%,0%);stop-opacity:1;"/>
</linearGradient>
</defs>
<g id="surface132579">
<path style=" stroke:none;fill-rule:nonzero;fill:url(#linear0);" d="M 121.753906 70.246094 C 121.753906 102.144531 95.894531 128 64 128 C 32.105469 128 6.246094 102.144531 6.246094 70.246094 C 6.246094 38.351562 32.105469 12.496094 64 12.496094 C 95.894531 12.496094 121.753906 38.351562 121.753906 70.246094 Z M 121.753906 70.246094 "/>
<path style=" stroke:none;fill-rule:nonzero;fill:rgb(100%,100%,38.82353%);fill-opacity:1;" d="M 121.75 62.246094 C 121.75 94.144531 95.894531 120 64 120 C 32.105469 120 6.246094 94.144531 6.246094 62.246094 C 6.246094 30.351562 32.105469 4.496094 64 4.496094 C 95.894531 4.496094 121.75 30.351562 121.75 62.246094 Z M 121.75 62.246094 "/>
<path style=" stroke:none;fill-rule:nonzero;fill:rgb(0%,0%,60.000002%);fill-opacity:1;" d="M 64 24 C 66.210938 24 68 25.789062 68 28 L 68 100 C 68 102.210938 66.210938 104 64 104 C 61.789062 104 60 102.210938 60 100 L 60 28 C 60 25.789062 61.789062 24 64 24 Z M 64 24 "/>
<path style=" stroke:none;fill-rule:nonzero;fill:rgb(0%,0%,60.000002%);fill-opacity:1;" d="M 28 64 C 28 66.210938 26.210938 68 24 68 C 21.789062 68 20 66.210938 20 64 C 20 61.789062 21.789062 60 24 60 C 26.210938 60 28 61.789062 28 64 Z M 28 64 "/>
<path style=" stroke:none;fill-rule:nonzero;fill:rgb(0%,0%,60.000002%);fill-opacity:1;" d="M 108 64 C 108 66.210938 106.210938 68 104 68 C 101.789062 68 100 66.210938 100 64 C 100 61.789062 101.789062 60 104 60 C 106.210938 60 108 61.789062 108 64 Z M 108 64 "/>
</g>
</svg>
